<?xml version="1.0" encoding="UTF-8"?>
<svg enable-background="new 0 0 487 115" version="1.1" viewBox="0 0 487 115" xml:space="preserve" xmlns="http://www.w3.org/2000/svg" xmlns:xlink="http://www.w3.org/1999/xlink">
<style type="text/css">
	.st0{fill:#1B449C;}
	.st1{fill:#0090BE;}
	.st2{clip-path:url(#a);fill:#0090BE;}
</style>
	<path class="st0" d="m5.9 12.9c0-4.5-0.2-5.6-2.9-5.8l-1.9-0.2c-0.5-0.4-0.5-1.3 0-1.5 3.2-0.3 7.3-0.5 12.9-0.5 3.8 0 7.4 0.3 10.1 1.7 2.6 1.3 4.6 3.7 4.6 7.5 0 4.3-2.5 6.6-6.1 8.2 0 0.6 0.5 0.8 1.1 0.9 3.2 0.6 8.1 3.6 8.1 10 0 7-5.2 11.7-16 11.7-1.7 0-4.7-0.2-7.2-0.2-2.6 0-4.7 0.1-6.9 0.2-0.4-0.2-0.5-1.1-0.1-1.5l1.1-0.2c3.2-0.5 3.3-1.2 3.3-7.5v-22.8m4.9 8c0 1.7 0.1 1.8 3.1 1.7 6.1-0.2 9.4-2 9.4-7.7 0-5.9-4.4-8.1-9-8.1-1.3 0-2.2 0.1-2.8 0.4-0.6 0.2-0.8 0.5-0.8 1.6v12.1zm0 14c0 2.2 0.1 5.2 1.3 6.6 1.1 1.4 2.9 1.7 4.8 1.7 5.4 0 9.4-2.4 9.4-8.4 0-4.8-2.4-10.3-12-10.3-3.2 0-3.5 0.4-3.5 1.6v8.8z"/>
	<path class="st0" d="m47.9 32.3c0.9-0.3 1-0.8 1-1.7l0.1-2.8c0.1-2.2-0.7-5.2-4.4-5.2-1.7 0-3.7 0.8-3.8 2.7-0.1 1-0.1 1.7-0.6 2-0.9 0.7-2.5 1.1-3.4 1.1-0.5 0-0.8-0.3-0.8-0.8 0-3.1 6.8-7.4 11.2-7.4 4.3 0 6.4 2.5 6.3 7l-0.4 10.5c-0.1 2.8 0.4 5.2 2.8 5.2 0.6 0 1.1-0.2 1.5-0.4 0.3-0.2 0.6-0.4 0.8-0.4s0.4 0.4 0.4 0.8c0 0.3-2.1 2.6-5 2.6-1.4 0-2.9-0.5-3.9-1.9-0.2-0.4-0.6-0.8-1-0.8s-1.1 0.5-2.3 1.2c-1.3 0.7-2.6 1.5-4.3 1.5s-3.2-0.5-4.2-1.4c-1.1-1-1.9-2.5-1.9-4.2 0-2.3 1.1-3.7 5-5.1l6.9-2.5m-3.8 10.6c1.2 0 3.1-0.9 3.7-1.5 0.7-0.7 0.7-1.6 0.8-2.8l0.1-3.5c0-0.7-0.2-0.8-0.6-0.8s-1.4 0.2-2.5 0.6c-3.5 1.2-5.3 2.1-5.3 4.4 0 1 0.8 3.6 3.8 3.6"/>
	<path class="st0" d="m58.4 56c0-1.6 1.1-2.4 2.4-2.4h1.1c1 0 1.6-0.4 2-1.1 1.7-2.7 2.4-4.1 2.9-5.5 0.2-0.5 0.6-1.7 0.6-2.6 0-1.2-0.2-1.9-1-4.1l-4.7-12.9c-1-2.8-1.4-4.3-3.5-4.7l-1.5-0.3c-0.4-0.3-0.3-1.3 0.2-1.5 1.9 0.1 3.7 0.2 5.7 0.2 1.6 0 3.3-0.1 5.2-0.2 0.5 0.2 0.5 1.2 0.1 1.5l-1.5 0.3c-0.8 0.2-1.3 0.4-1.3 0.8 0 0.7 1.4 4.6 1.7 5.7l1.9 5.5c0.4 1 1.5 4.1 1.7 4.3 0.2-0.1 1.1-2 2.2-4.5l2-4.7c1.3-3.1 2.1-5.4 2.1-6 0-0.4-0.4-0.8-1.4-1l-1.9-0.3c-0.4-0.3-0.4-1.3 0.1-1.5 1.9 0.1 3.7 0.2 5.3 0.2 1.5 0 2.9-0.1 4.6-0.2 0.5 0.2 0.5 1.1 0.1 1.5l-1 0.2c-2 0.4-3.1 2.1-5.1 6.4l-3.4 6.9c-2 4-6.4 13.3-9.3 19.9-1 2.3-2.5 2.8-3.8 2.8-1.6-0.1-2.5-1.2-2.5-2.7"/>
	<path class="st0" d="m89.8 38.1c0 4.3 0.1 4.9 2.3 5.2l1.4 0.2c0.4 0.3 0.3 1.3-0.1 1.5-2-0.1-3.7-0.2-5.8-0.2-2.2 0-4 0.1-5.8 0.2-0.4-0.2-0.5-1.2-0.1-1.5l1.4-0.2c2.2-0.3 2.3-0.9 2.3-5.2v-27.2c0-3.5-0.1-3.9-1.9-5l-0.6-0.4c-0.3-0.2-0.3-1 0-1.2 1.5-0.5 4.3-1.4 6.5-2.5 0.2 0 0.5 0.1 0.6 0.4-0.1 1.8-0.2 4.8-0.2 7.4v28.5"/>
	<path class="st0" d="m120.5 32.7c0 7.5-5.2 12.9-12.7 12.9-6.9 0-12.3-4.9-12.3-12.4 0-7.6 5.7-13 12.8-13 6.7 0.1 12.2 5.1 12.2 12.5m-12.9-10.6c-4 0-6.9 3.8-6.9 10.4 0 5.5 2.5 11.4 7.8 11.4s6.9-5.5 6.9-10.2c-0.1-5.1-2.1-11.6-7.8-11.6"/>
	<path class="st0" d="m127 27.5c0-2.3 0-2.6-1.6-3.7l-0.5-0.4c-0.2-0.2-0.2-0.9 0.1-1.1 1.4-0.5 4.6-2 6.1-2.9 0.3 0.1 0.5 0.2 0.5 0.4v3.5c0 0.3 0.1 0.5 0.2 0.5 2.1-1.7 4.4-3.6 6.6-3.6 1.5 0 2.7 1 2.7 2.4 0 2-1.6 2.8-2.6 2.8-0.6 0-0.9-0.2-1.3-0.4-0.9-0.6-1.8-1-2.6-1-1 0-1.7 0.5-2.2 1.2-0.6 0.8-0.8 2.6-0.8 4.6v8.2c0 4.3 0.1 5 2.4 5.2l2.2 0.2c0.4 0.3 0.3 1.3-0.1 1.5-2.8-0.1-4.6-0.2-6.7-0.2-2.2 0-4 0.1-5.5 0.2-0.4-0.2-0.5-1.2-0.1-1.5l1.1-0.2c2.2-0.4 2.3-0.9 2.3-5.2v-10.5"/>
	<path class="st0" d="m153.4 45.8c-5.1 0-8.2-1.6-9.4-2.2-0.7-1.3-1.5-5.6-1.6-8.4 0.3-0.4 1.2-0.5 1.4-0.2 0.9 3.1 3.4 9 10.3 9 5.1 0 7.5-3.3 7.5-6.9 0-2.6-0.5-5.6-4.9-8.4l-5.7-3.7c-3-2-6.5-5.4-6.5-10.3 0-5.7 4.4-10.3 12.3-10.3 1.9 0 4 0.4 5.6 0.8 0.8 0.2 1.6 0.4 2.1 0.4 0.5 1.4 1.1 4.8 1.1 7.3-0.2 0.4-1.2 0.5-1.5 0.2-0.7-3.2-2.4-7.1-8.1-7.1-5.9 0-7.2 3.9-7.2 6.7 0 3.5 2.9 6 5.1 7.4l4.8 3c3.8 2.3 7.5 5.8 7.5 11.5 0 6.6-4.9 11.2-12.8 11.2"/>
	<path class="st0" d="m189.9 21.3c0.5 0.4 0.9 1.4 0.9 2.4 0 1.1-0.6 2.2-1.3 2.2-0.3 0-0.6-0.1-0.8-0.4-1.3-1.6-3.5-3.2-6-3.2-4.2 0-8.3 3.3-8.3 9.7 0 4.7 3.2 10.3 9.7 10.3 3.5 0 5.3-1.6 6.7-3.6 0.5-0.1 1 0.3 1.1 0.8-2 4.5-6.6 6.1-10 6.1-3.2 0-6.1-1-8.2-3.1-2.1-2-3.5-5-3.5-8.9 0-6.5 4.6-13.4 14.6-13.4 1.2 0.1 3.5 0.4 5.1 1.1"/>
	<path class="st0" d="m217.5 32.7c0 7.5-5.2 12.9-12.7 12.9-6.9 0-12.3-4.9-12.3-12.4 0-7.6 5.7-13 12.8-13 6.8 0.1 12.2 5.1 12.2 12.5m-12.9-10.6c-4 0-6.9 3.8-6.9 10.4 0 5.5 2.5 11.4 7.8 11.4s6.9-5.5 6.9-10.2c0-5.1-2.1-11.6-7.8-11.6"/>
	<path class="st0" d="m229 23.6c-1 0-1.1 0.2-1.1 1.4v11.2c0 3.5 0.4 6.7 4.4 6.7 0.6 0 1.1-0.1 1.6-0.3s1.3-0.8 1.5-0.8c0.5 0 0.7 0.7 0.6 1-1.1 1.3-3.2 2.8-6.3 2.8-5.2 0-6.3-2.9-6.3-6.5v-13.7c0-1.6-0.1-1.7-1.3-1.7h-1.7c-0.4-0.2-0.4-0.9-0.2-1.3 1.7-0.5 3.2-1.3 3.8-1.9 0.8-0.7 1.9-2.3 2.5-3.5 0.3-0.1 1-0.1 1.3 0.3v2.7c0 1.1 0.1 1.1 1.1 1.1h6.7c0.7 0.5 0.6 2.2 0.1 2.5h-6.7"/>
	<path class="st0" d="m247.1 23.6c-1 0-1.1 0.2-1.1 1.4v11.2c0 3.5 0.4 6.7 4.4 6.7 0.6 0 1.1-0.1 1.6-0.3s1.3-0.8 1.5-0.8c0.5 0 0.7 0.7 0.6 1-1.1 1.3-3.2 2.8-6.3 2.8-5.2 0-6.3-2.9-6.3-6.5v-13.7c0-1.6-0.1-1.7-1.3-1.7h-1.7c-0.4-0.2-0.4-0.9-0.2-1.3 1.7-0.5 3.2-1.3 3.9-1.9 0.8-0.7 1.9-2.3 2.5-3.5 0.3-0.1 1-0.1 1.3 0.3v2.7c0 1.1 0.1 1.1 1.1 1.1h6.7c0.7 0.5 0.6 2.2 0.1 2.5h-6.8"/>
	<path class="st0" d="m264.2 19.7c0-4.2 3.3-7.4 7.5-7.4 2.8 0 5.6 1.7 5.6 4.5 0 3-3 4.2-4.1 4.2-0.2 0-1.2 0-0.5-1 0.1-0.2 1-1.1 0.5-2.7-0.4-1.2-1.5-2.2-3.3-2.3-2.2-0.2-3.9 1.3-3.9 3.2 0 2 1.2 3.3 5.3 5.5 5.3 2.9 9.9 5.3 13.8 13.4 1.4-1.7 2-3.5 2-5.7 0-1.5-0.3-2.7-1.3-4.1-0.7-0.9-1.6-1.1-2.2-1.2s-1.7-0.2-3 0.9c-0.2 0.2-0.4 0.3-0.8 0.2s-0.5-0.7-0.4-1.4c0.3-2 2.4-3.6 5.3-3.6 0.8 0 2 0.2 3 0.4 1.2 0.2 1.9 0.3 2.3 0.3 0.7 0 1.1-0.1 1.4-0.6 0 0 0.2-0.3 0.4-0.3 0.5 0 0.7 0.4 0.7 0.4 0 2.2-1.3 3.5-4.2 4.3 0.7 1.4 0.9 2.4 0.9 3.9 0 2.9-1 5.3-3.3 7.8 1.8 3.3 3.5 4.6 6.5 4.6 0.6 0 1.1-0.1 1.6-0.2 0.6-0.2 0.8-0.2 1-0.2 0.3 0 0.4 0.1 0.4 0.4 0 1.1-2.5 2-5.8 2-3.1 0-4.7-0.7-7.3-3-4 2.3-6.5 3.1-10 3.1-7.3 0-12.9-4.7-12.9-10.8 0-6.4 4.8-8.7 6.9-9.6-1.5-1.7-2.1-3.1-2.1-5m3.6 6.5c-2.4 0.5-3.5 2-3.5 4.9 0 6.2 5.2 11.6 11 11.6 2.1 0 3.5-0.4 6.1-1.7-1-1.2-1.5-1.7-2.6-3.4l-1.3-1.9c-3.3-4.8-6-6.8-8.3-8.6l-1.4-0.9z"/>
	<path class="st0" d="m287.1 6.4c-0.4-0.4-0.3-1.2 0.2-1.4 1.6 0.1 4.3 0.2 6.2 0.2 1.7 0 4.7-0.1 6.9-0.2 0.5 0.2 0.5 1 0.1 1.4l-1.4 0.1c-1.3 0.1-2 0.5-2 1 0 0.7 1.3 3.8 3.1 8.1 3.4 7.5 6.9 15 10.4 22.4 1.4-3 3.1-6.4 4.6-9.7 0.5-1.1 1-2.2 1-2.5s-0.2-0.8-0.5-1.6c-2.1-4.8-4.3-9.6-6.6-14.4-0.9-1.9-1.8-3.1-3.8-3.3l-1.4-0.1c-0.4-0.5-0.4-1.2 0.1-1.4 1.7 0.1 4 0.2 6.4 0.2 3 0 5.2-0.1 6.6-0.2 0.4 0.2 0.5 1 0.1 1.4l-1.6 0.1c-2.3 0.2-2.4 0.6-1.3 3.3 1.3 2.9 2.9 6.7 4.6 10.5 1.1-2.3 2.2-4.6 3.5-7.9 2.2-5.1 1.9-5.8-0.1-5.9l-1.8-0.1c-0.4-0.6-0.3-1.3 0.1-1.4 1.6 0.1 3.4 0.2 5.7 0.2 2 0 4.4-0.1 5.8-0.2 0.4 0.2 0.5 1 0.1 1.4l-1.7 0.1c-2.5 0.2-3.6 2.9-4.9 5.4-1.3 2.2-3.8 7.5-4.7 9.6-0.3 0.6-0.5 1.2-0.5 1.4s0.1 0.7 0.4 1.4c2 4.6 4.1 9.1 6.1 13.7 1.9-4.2 3.7-8.4 5.4-12.7 1.2-2.9 4.4-10.9 4.8-12 0.8-2.2 1.8-4.7 1.8-5.5s-0.7-1.3-2-1.4l-1.7-0.1c-0.5-0.5-0.4-1.2 0.1-1.4 2.3 0.1 3.9 0.2 5.8 0.2 2.3 0 4-0.1 5.6-0.2 0.5 0.2 0.5 1 0.1 1.4l-1.1 0.1c-3 0.3-3.5 2.1-7.2 10.5l-4.4 10.2c-2.6 6.1-5.1 12-7.5 18.5-0.2 0.1-0.4 0.2-0.7 0.2s-0.6-0.1-0.8-0.2c-1.9-5.4-5.4-12.9-7.3-17.1-2.2 4.4-5.8 12.1-7.5 17.1-0.2 0.1-0.4 0.2-0.7 0.2s-0.6-0.1-0.9-0.2c-1-2.5-3.4-7.9-4.1-9.7-3.9-8.4-7.6-16.7-11.5-25.1-1.1-2.5-1.9-4.1-4.4-4.3l-1.5-0.1"/>
	<path class="st0" d="m345.2 10.9c0-3.8-0.3-4.3-1.1-4l-1.3-1.4c-0.3-0.2-2.3-0.4-1.5-0.4 4.8 0 5.9-2.1 8-3.3 0.2-0.1 0.6 0 0.6 0.4-0.1 1.8-0.2 4.8-0.2 7.5v12.6c0 0.5 0.1 1 0.2 1.1 2.2-1.7 5.1-3.1 8.1-3.1 5.7 0 7.8 3.5 7.8 7.8v10c0 4.3 0.1 5 2.3 5.2l1.6 0.2c0.4 0.3 0.3 1.3-0.1 1.5-2.2-0.1-3.9-0.2-6-0.2-2.2 0-4 0.1-5.6 0.2-0.4-0.2-0.5-1.2-0.1-1.5l1.2-0.2c2.2-0.4 2.3-0.9 2.3-5.2v-8.6c0-3.8-1.9-6.4-5.7-6.4-2 0-3.6 0.7-4.7 1.6s-1.3 1.2-1.3 3.3v10.1c0 4.3 0.1 4.9 2.3 5.2l1.3 0.2c0.4 0.2 0.3 1.3-0.1 1.5-1.8-0.1-3.6-0.2-5.7-0.2-2.2 0-4 0.1-5.9 0.2-0.4-0.2-0.5-1.2-0.1-1.5l1.5-0.2c2.2-0.2 2.3-0.9 2.3-5.2v-27.2"/>
	<path class="st0" d="m375.3 27.5c0-2.3 0-2.6-1.6-3.7l-0.5-0.4c-0.2-0.2-0.2-0.9 0.1-1.1 1.4-0.5 4.8-2 6.2-2.9 0.3 0 0.5 0.1 0.6 0.4-0.1 2.1-0.2 5-0.2 7.5v10.8c0 4.3 0.1 4.9 2.3 5.2l1.3 0.2c0.4 0.3 0.3 1.3-0.1 1.5-1.8-0.1-3.5-0.2-5.7-0.2s-4 0.1-5.7 0.2c-0.4-0.2-0.5-1.2-0.1-1.5l1.3-0.2c2.2-0.3 2.3-0.9 2.3-5.2v-10.6m4.7-15.2c0 2.2-1.5 3.1-3.2 3.1-1.9 0-3.1-1.4-3.1-3 0-2 1.4-3.2 3.2-3.2 1.9 0 3.1 1.4 3.1 3.1"/>
	<path class="st0" d="m394.1 23.6c-1 0-1.1 0.2-1.1 1.4v11.2c0 3.5 0.4 6.7 4.4 6.7 0.6 0 1.1-0.1 1.6-0.3s1.3-0.8 1.5-0.8c0.5 0 0.7 0.7 0.6 1-1.1 1.3-3.2 2.8-6.3 2.8-5.2 0-6.3-2.9-6.3-6.5v-13.7c0-1.6-0.1-1.7-1.3-1.7h-1.7c-0.4-0.2-0.4-0.9-0.2-1.3 1.7-0.5 3.2-1.3 3.8-1.9 0.8-0.7 1.9-2.3 2.5-3.5 0.3-0.1 1-0.1 1.3 0.3v2.7c0 1.1 0.1 1.1 1.1 1.1h6.7c0.7 0.5 0.6 2.2 0.1 2.5h-6.7"/>
	<path class="st0" d="m408.1 29.4c-1.6 0-1.6 0.1-1.6 1.6 0 6.1 3.5 11.2 10 11.2 2 0 3.7-0.6 5.5-2.9 0.6-0.2 1 0.2 1.1 0.7-2 4.1-6.3 5.6-9.4 5.6-3.9 0-7-1.7-8.7-4-1.8-2.3-2.5-5.2-2.5-7.8 0-7.4 4.9-13.6 12.1-13.6 5.2 0 8.5 3.5 8.5 7.2 0 0.8-0.1 1.3-0.2 1.6-0.2 0.4-1 0.4-3.5 0.4h-11.3m3.7-1.8c4.5 0 5.8-0.2 6.3-0.6 0.2-0.1 0.4-0.4 0.4-1.1 0-1.7-1.1-3.8-4.6-3.8s-6.6 3.2-6.7 5.2c0 0.1 0 0.3 0.4 0.3h4.2z"/>
	<path class="st0" d="m6 80.3v-15.1h7.1c3.2 0 4.8 1.3 4.8 3.8 0 1.4-0.7 2.5-2.1 3.2 0.9 0.3 1.6 0.7 2.1 1.4s0.7 1.5 0.7 2.5c0 1.4-0.5 2.5-1.6 3.3-1 0.7-2.3 1.1-3.8 1.1h-7.2m3.4-12.7v3.5h3.4c0.6 0 1.1-0.1 1.5-0.4s0.6-0.8 0.6-1.4c0-1.2-0.8-1.7-2.3-1.7h-3.2zm0 5.8v4.2h3.6c1.6 0 2.5-0.7 2.5-2 0-1.4-0.8-2.2-2.4-2.2h-3.7z"/>
	<path class="st0" d="m21.5 80.3l5.8-15.2h3.4l5.7 15.2h-3.5l-1.2-3.3h-5.7l-1.2 3.4h-3.3m7.4-11.5l-2 5.6h3.9l-1.9-5.6z"/>
	<polyline class="st0" points="42.2 80.3 42.2 74.4 36.6 65.2 40.3 65.2 43.9 71.2 47.4 65.2 51.1 65.2 45.5 74.5 45.5 80.3 42.2 80.3"/>
	<polyline class="st0" points="54.5 80.3 54.5 65.2 57.9 65.2 57.9 77.5 65.3 77.5 65.3 80.3 54.5 80.3"/>
	<path class="st0" d="m68.6 72.8c0-2.3 0.7-4.2 2-5.7s3.2-2.3 5.5-2.3 4.1 0.8 5.4 2.3 2 3.4 2 5.7-0.7 4.1-2 5.6-3.2 2.2-5.4 2.2c-2.3 0-4.1-0.7-5.4-2.2-1.4-1.4-2.1-3.3-2.1-5.6m3.3 0c0 1.4 0.3 2.6 1 3.6s1.7 1.5 3.1 1.5 2.4-0.5 3.1-1.5 1-2.2 1-3.6c0-0.9-0.1-1.8-0.4-2.5s-0.7-1.4-1.3-1.9-1.4-0.8-2.4-0.8c-0.9 0-1.7 0.3-2.4 0.8-0.6 0.5-1.1 1.1-1.4 1.9-0.1 0.7-0.3 1.6-0.3 2.5z"/>
	<path class="st0" d="m87.9 80.3v-15.1h8.2c1.3 0 2.4 0.4 3.2 1.2s1.2 1.8 1.2 3c0 1.9-0.8 3.2-2.4 3.8 1.3 0.3 2.1 1.5 2.2 3.5v0.6c0 0.3 0 0.6 0.1 0.8 0 0.2 0 0.5 0.1 0.8 0 0.3 0.1 0.6 0.2 0.8l0.3 0.6h-3.3c-0.1-0.3-0.2-0.6-0.3-1s-0.1-0.9-0.1-1.4-0.1-0.9-0.1-1.2c-0.1-0.8-0.4-1.4-0.7-1.8-0.4-0.4-1-0.5-1.8-0.5h-3.3v5.9h-3.5m3.3-12.5v4.2h3.7c1.5 0 2.3-0.7 2.3-2.2 0-1.4-0.8-2.1-2.3-2.1h-3.7z"/>
	<path class="st0" d="m126.3 65.2v9.4c0 2-0.6 3.5-1.7 4.6-1.1 1-2.7 1.5-4.8 1.5s-3.7-0.5-4.8-1.5-1.7-2.5-1.7-4.6v-9.4h3.3v9.4c0 1 0.2 1.8 0.6 2.4s1.3 0.9 2.5 0.9 2-0.3 2.4-0.8c0.5-0.5 0.7-1.4 0.7-2.5v-9.4h3.5"/>
	<polyline class="st0" points="131.3 80.3 131.3 65.2 134.6 65.2 140.9 75.3 141 75.3 141 65.2 144.1 65.2 144.1 80.3 140.8 80.3 134.4 70.2 134.4 70.2 134.4 80.3 131.3 80.3"/>
	<rect class="st0" x="149.1" y="65.2" width="3.3" height="15.2"/>
	<polyline class="st0" points="169.6 65.2 164.6 80.3 160.8 80.3 155.9 65.2 159.3 65.2 162.7 75.8 162.8 75.8 166.2 65.2 169.6 65.2"/>
	<polyline class="st0" points="173.1 80.3 173.1 65.2 184.4 65.2 184.4 68 176.4 68 176.4 71.2 183.7 71.2 183.7 73.8 176.4 73.8 176.4 77.5 184.6 77.5 184.6 80.3 173.1 80.3"/>
	<path class="st0" d="m188.9 80.3v-15.1h8.2c1.3 0 2.4 0.4 3.2 1.2s1.2 1.8 1.2 3c0 1.9-0.8 3.2-2.4 3.8 1.3 0.3 2.1 1.5 2.2 3.5v0.6c0 0.3 0 0.6 0.1 0.8 0 0.2 0 0.5 0.1 0.8 0 0.3 0.1 0.6 0.2 0.8l0.3 0.6h-3.3c-0.1-0.3-0.2-0.6-0.3-1s-0.1-0.9-0.1-1.4-0.1-0.9-0.1-1.2c-0.1-0.8-0.4-1.4-0.7-1.8-0.4-0.4-1-0.5-1.8-0.5h-3.3v5.9h-3.5m3.4-12.5v4.2h3.7c1.5 0 2.3-0.7 2.3-2.2 0-1.4-0.8-2.1-2.3-2.1h-3.7z"/>
	<path class="st0" d="m205.5 75.3h3.2c0 0.9 0.3 1.7 0.9 2.1 0.6 0.5 1.4 0.7 2.4 0.7 0.5 0 0.9 0 1.3-0.1s0.8-0.3 1.1-0.6 0.5-0.7 0.5-1.2c0-0.2 0-0.4-0.1-0.6s-0.2-0.4-0.4-0.5-0.4-0.3-0.5-0.4c-0.2-0.1-0.4-0.2-0.8-0.3-0.3-0.1-0.6-0.2-0.8-0.2-0.2-0.1-0.5-0.1-0.9-0.2s-0.7-0.2-0.9-0.2c-0.7-0.2-1.2-0.3-1.7-0.5s-0.9-0.4-1.4-0.8c-0.5-0.3-0.8-0.7-1.1-1.2-0.2-0.5-0.4-1.1-0.4-1.8 0-1 0.3-1.8 0.9-2.6 0.6-0.7 1.3-1.2 2.1-1.6s1.7-0.5 2.7-0.5c1.1 0 2.1 0.2 3 0.5s1.6 0.8 2.2 1.6 0.9 1.7 0.9 2.8h-3.2c-0.1-1.5-1.1-2.3-3-2.3-0.6 0-1.1 0.1-1.6 0.4s-0.7 0.7-0.7 1.3 0.2 0.9 0.7 1.2c0.5 0.2 1.7 0.6 3.8 1.1 1.3 0.3 2.3 0.8 3 1.3 1 0.8 1.5 1.8 1.5 3.2s-0.6 2.6-1.7 3.5-2.7 1.3-4.7 1.3c-1.8 0-3.4-0.5-4.6-1.4-1.1-0.9-1.8-2.2-1.7-4"/>
	<rect class="st0" x="222.3" y="65.2" width="3.3" height="15.2"/>
	<polyline class="st0" points="234.1 80.3 234.1 68 229.5 68 229.5 65.2 242 65.2 242 68 237.4 68 237.4 80.3 234.1 80.3"/>
	<polyline class="st0" points="249.8 80.3 249.8 74.4 244.2 65.2 247.9 65.2 251.5 71.2 255 65.2 258.7 65.2 253.1 74.5 253.1 80.3 249.8 80.3"/>
	<polyline class="st0" points="270.2 80.3 270.2 65.2 274.9 65.2 278.4 75.6 278.4 75.6 281.8 65.2 286.5 65.2 286.5 80.3 283.4 80.3 283.4 69.6 283.3 69.6 279.6 80.3 277 80.3 273.3 69.7 273.3 69.7 273.3 80.3 270.2 80.3"/>
	<polyline class="st0" points="291.6 80.3 291.6 65.2 302.9 65.2 302.9 68 294.9 68 294.9 71.2 302.2 71.2 302.2 73.8 294.9 73.8 294.9 77.5 303.1 77.5 303.1 80.3 291.6 80.3"/>
	<path class="st0" d="m307.5 80.3v-15.1h6.5c2.1 0 3.7 0.6 5 1.9s1.9 3.1 1.9 5.6c0 2.3-0.6 4.1-1.8 5.6-1.2 1.4-2.9 2.1-5.1 2.1h-6.5m3.3-12.4v9.6h3c1.1 0 2-0.4 2.7-1.1s1.1-1.9 1.1-3.4c0-1.6-0.3-2.9-1-3.7-0.7-0.9-1.8-1.3-3.4-1.3h-2.4z"/>
	<rect class="st0" x="325.3" y="65.2" width="3.3" height="15.2"/>
	<path class="st0" d="m347.1 70.3h-3.2c-0.1-0.8-0.5-1.4-1.1-1.9s-1.4-0.8-2.2-0.8c-0.9 0-1.7 0.3-2.4 0.8-0.6 0.5-1.1 1.1-1.4 1.9s-0.4 1.6-0.4 2.5c0 1.4 0.3 2.6 1 3.6s1.7 1.5 3.1 1.5c1 0 1.8-0.3 2.4-0.9s0.9-1.4 1.1-2.5h3.2c-0.2 1.9-0.9 3.4-2.1 4.5s-2.7 1.7-4.6 1.7c-2.3 0-4.1-0.7-5.4-2.2s-2-3.4-2-5.6c0-2.3 0.7-4.2 2-5.7s3.2-2.3 5.5-2.3c1.7 0 3.2 0.5 4.4 1.5 1.2 0.8 1.9 2.2 2.1 3.9"/>
	<path class="st0" d="m350 80.3l5.8-15.2h3.4l5.7 15.2h-3.5l-1.1-3.4h-5.7l-1.2 3.4h-3.4m7.4-11.4l-2 5.6h3.9l-1.9-5.6z"/>
	<polyline class="st0" points="368.3 80.3 368.3 65.2 371.6 65.2 371.6 77.5 379 77.5 379 80.3 368.3 80.3"/>
	<path class="st0" d="m404.4 70.3h-3.2c-0.1-0.8-0.5-1.4-1.1-1.9s-1.4-0.8-2.2-0.8c-0.9 0-1.7 0.3-2.4 0.8-0.6 0.5-1.1 1.1-1.4 1.9s-0.4 1.6-0.4 2.5c0 1.4 0.3 2.6 1 3.6s1.7 1.5 3.1 1.5c1 0 1.8-0.3 2.4-0.9s0.9-1.4 1.1-2.5h3.2c-0.2 1.9-0.9 3.4-2.1 4.5s-2.7 1.7-4.6 1.7c-2.3 0-4.1-0.7-5.4-2.2s-2-3.4-2-5.6c0-2.3 0.7-4.2 2-5.7s3.2-2.3 5.5-2.3c1.7 0 3.2 0.5 4.4 1.5 1.2 0.8 1.9 2.2 2.1 3.9"/>
	<polyline class="st0" points="408.9 80.3 408.9 65.2 420.2 65.2 420.2 68 412.2 68 412.2 71.2 419.6 71.2 419.6 73.8 412.2 73.8 412.2 77.5 420.4 77.5 420.4 80.3 408.9 80.3"/>
	<polyline class="st0" points="424.8 80.3 424.8 65.2 428.1 65.2 434.4 75.3 434.5 75.3 434.5 65.2 437.6 65.2 437.6 80.3 434.3 80.3 428 70.2 427.9 70.2 427.9 80.3 424.8 80.3"/>
	<polyline class="st0" points="446 80.3 446 68 441.5 68 441.5 65.2 453.9 65.2 453.9 68 449.4 68 449.4 80.3 446 80.3"/>
	<polyline class="st0" points="457.8 80.3 457.8 65.2 469.1 65.2 469.1 68 461.1 68 461.1 71.2 468.5 71.2 468.5 73.8 461.1 73.8 461.1 77.5 469.3 77.5 469.3 80.3 457.8 80.3"/>
	<path class="st0" d="m473.7 80.3v-15.1h8.2c1.3 0 2.4 0.4 3.2 1.2s1.2 1.8 1.2 3c0 1.9-0.8 3.2-2.4 3.8 1.3 0.3 2.1 1.5 2.2 3.5v0.6c0 0.3 0 0.6 0.1 0.8 0 0.2 0 0.5 0.1 0.8 0 0.3 0.1 0.6 0.2 0.8l0.3 0.6h-3.3c-0.1-0.3-0.2-0.6-0.3-1s-0.1-0.9-0.2-1.4c0-0.5-0.1-0.9-0.1-1.2-0.1-0.8-0.4-1.4-0.7-1.8-0.4-0.4-1-0.5-1.8-0.5h-3.4v5.9h-3.3m3.3-12.5v4.2h3.7c1.5 0 2.3-0.7 2.3-2.2 0-1.4-0.8-2.1-2.3-2.1h-3.7z"/>
	<path class="st1" d="m5.6 114.6v-15h6.4c2 0 3.7 0.6 4.9 1.9 1.3 1.3 1.9 3.1 1.9 5.5 0 2.3-0.6 4.1-1.7 5.5-1.2 1.4-2.9 2.1-5.1 2.1h-6.4m3.3-12.2v9.5h2.9c1.1 0 2-0.4 2.7-1.1s1.1-1.9 1.1-3.4c0-1.6-0.3-2.8-1-3.7s-1.8-1.3-3.3-1.3h-2.4z"/>
	<path class="st1" d="m21.2 114.6l5.7-15h3.4l5.6 15h-3.4l-1.1-3.3h-5.6l-1.2 3.3h-3.4m7.4-11.3l-2 5.5h3.9l-1.9-5.5z"/>
	<polyline class="st1" points="39 114.6 39 99.6 42.3 99.6 42.3 111.9 49.6 111.9 49.6 114.6 39 114.6"/>
	<polyline class="st1" points="53.1 114.6 53.1 99.6 56.4 99.6 56.4 111.9 63.8 111.9 63.8 114.6 53.1 114.6"/>
		<defs>
			<rect id="b" x="-101" width="588" height="115"/>
		</defs>
		<clipPath id="a">
			<use xlink:href="#b"/>
		</clipPath>
		<path class="st2" d="m65.7 114.6l5.7-15h3.4l5.6 15h-3.4l-1.1-3.3h-5.6l-1.2 3.3h-3.4m7.3-11.3l-2 5.5h4l-2-5.5z"/>
		<path class="st2" d="m82.5 109.7h3.2c0 0.9 0.3 1.6 0.9 2.1s1.4 0.7 2.4 0.7c0.5 0 0.9 0 1.3-0.1s0.8-0.3 1.1-0.6 0.5-0.7 0.5-1.2c0-0.2 0-0.4-0.1-0.6s-0.2-0.3-0.4-0.5c-0.2-0.1-0.4-0.3-0.5-0.4-0.2-0.1-0.4-0.2-0.7-0.3s-0.6-0.2-0.8-0.2c-0.2-0.1-0.5-0.1-0.9-0.2s-0.7-0.2-0.9-0.2c-0.7-0.2-1.2-0.3-1.7-0.5-0.4-0.2-0.9-0.4-1.4-0.8-0.5-0.3-0.8-0.7-1.1-1.2-0.2-0.5-0.4-1.1-0.4-1.8 0-1 0.3-1.8 0.9-2.5s1.3-1.2 2.1-1.5 1.7-0.5 2.7-0.5c1.1 0 2.1 0.2 3 0.5s1.6 0.8 2.2 1.6 0.9 1.7 0.9 2.8h-3.2c-0.1-1.5-1.1-2.3-3-2.3-0.6 0-1.1 0.1-1.6 0.4s-0.7 0.7-0.7 1.3c0 0.5 0.2 0.9 0.7 1.2 0.5 0.2 1.7 0.6 3.8 1.1 1.3 0.3 2.3 0.8 3 1.2 1 0.8 1.5 1.8 1.5 3.1 0 1.4-0.5 2.6-1.6 3.5s-2.6 1.3-4.6 1.3c-1.8 0-3.3-0.5-4.6-1.4-1.4-1-2.1-2.3-2-4"/>
</svg>
