<?xml version="1.0" encoding="utf-8"?>
<!-- Generator: Adobe Illustrator 22.1.0, SVG Export Plug-In . SVG Version: 6.00 Build 0)  -->
<svg version="1.1" id="Layer_1" xmlns="http://www.w3.org/2000/svg" xmlns:xlink="http://www.w3.org/1999/xlink" x="0px" y="0px"
	 viewBox="0 0 196 112.2" style="enable-background:new 0 0 196 112.2;" xml:space="preserve">
<style type="text/css">
	.st0{fill:#FFFFFF;}
</style>
<polygon class="st0" points="33,2 16.5,39.5 0,2 "/>
<path class="st0" d="M16.5,43.5c5.7,0,10.3,4.6,10.3,10.3c0,5.7-4.6,10.3-10.3,10.3c-5.7,0-10.3-4.6-10.3-10.3
	C6.2,48.1,10.8,43.5,16.5,43.5"/>
<path class="st0" d="M61.7,91.5c0,10.8-7,20.5-27.1,20.5c-20,0-27.1-12.7-27.1-20.5V75.9h17.9l0,18.9c0,5.1,4.1,9.2,9.2,9.2
	c5.1,0,9.2-4.2,9.2-9.3l0-92.7h17.9V91.5z"/>
<path class="st0" d="M196,110.4h-54.1V2h17.9v92.8c0,5.1,4.1,9.2,9.2,9.2c5.1,0,9.2-4.1,9.2-9.2l0-18.9H196V110.4z"/>
<path class="st0" d="M128.8,38.1V19.7c0-12-11-17.7-17.9-17.7H75.3v108.4H111c13.4,0,17.9-8.6,17.9-14.2V63.8
	c0-4.6-4.7-10.7-11.8-10.7C124.1,53.1,128.8,43.5,128.8,38.1z M103.9,101.5l-10.8,0V57.8h10.8c7.1,0,7.1,5,7.1,22
	C111,96.8,111,101.5,103.9,101.5z M102.9,48.7l-9.8,0V12.2h9.8c6.5,0,8.1,1.4,8.1,18.3C111,47.6,109.4,48.7,102.9,48.7z"/>
</svg>
