<?xml version="1.0" encoding="UTF-8"?>
<svg enable-background="new 0 0 424 115" version="1.1" viewBox="0 0 424 115" xml:space="preserve" xmlns="http://www.w3.org/2000/svg">
<style type="text/css">
	.st0{fill:#1C4799;}
	.st1{fill:#008EBD;}
</style>
<path class="st0" d="m6 13.7c0-4.4-0.3-5.6-3-5.8l-1.9-0.2c-0.5-0.3-0.4-1.2 0-1.5 3.2-0.3 7.3-0.5 12.9-0.5 3.8 0 7.4 0.3 10.1 1.7 2.6 1.3 4.6 3.7 4.6 7.5 0 4.3-2.5 6.6-6.1 8.2 0 0.6 0.5 0.8 1.1 0.9 3.2 0.6 8.1 3.6 8.1 10 0 7-5.2 11.7-16 11.7-1.7 0-4.7-0.2-7.2-0.2-2.6 0-4.7 0.1-6.9 0.2-0.4-0.2-0.5-1.1-0.1-1.5l1.1-0.2c3.1-0.4 3.3-1.1 3.3-7.4v-22.9m4.9 8c0 1.7 0.1 1.8 3.1 1.7 6.1-0.2 9.4-2 9.4-7.7 0-5.9-4.4-8.1-9-8.1-1.3 0-2.2 0.1-2.8 0.4-0.6 0.2-0.8 0.5-0.8 1.6v12.1zm0 14c0 2.2 0.1 5.2 1.3 6.6 1.1 1.4 2.9 1.7 4.8 1.7 5.4 0 9.4-2.4 9.4-8.4 0-4.8-2.4-10.3-12-10.3-3.2 0-3.5 0.4-3.5 1.6v8.8z"/>
<path class="st0" d="m47.9 33.2c0.9-0.3 1-0.8 1-1.7l0.1-2.8c0.1-2.2-0.7-5.2-4.4-5.2-1.7 0-3.7 0.8-3.8 2.7-0.1 1-0.1 1.7-0.6 2-0.9 0.7-2.5 1.1-3.4 1.1-0.5 0-0.8-0.3-0.8-0.8 0-3.1 6.8-7.4 11.2-7.4 4.3 0 6.4 2.5 6.3 7l-0.4 10.5c-0.1 2.8 0.4 5.2 2.8 5.2 0.6 0 1.1-0.2 1.5-0.4 0.3-0.2 0.6-0.4 0.8-0.4s0.4 0.4 0.4 0.8c0 0.3-2.1 2.6-5.1 2.6-1.4 0-2.9-0.5-3.9-1.9-0.2-0.4-0.6-0.8-1-0.8s-1.1 0.5-2.3 1.2c-1.3 0.7-2.6 1.5-4.3 1.5s-3.2-0.5-4.2-1.4c-1.1-1-1.9-2.5-1.9-4.2 0-2.3 1.1-3.7 5-5.1l7-2.5m-3.8 10.5c1.2 0 3.1-0.9 3.7-1.5 0.7-0.7 0.7-1.6 0.8-2.8l0.1-3.5c0-0.7-0.2-0.8-0.6-0.8s-1.4 0.2-2.5 0.6c-3.5 1.2-5.3 2.1-5.3 4.5 0.1 1 0.8 3.5 3.8 3.5"/>
<path class="st0" d="m58.4 56.8c0-1.6 1.1-2.4 2.4-2.4h1.1c1 0 1.6-0.4 2-1.1 1.7-2.7 2.4-4.1 2.9-5.5 0.2-0.5 0.6-1.7 0.6-2.6 0-1.2-0.2-1.9-1-4.1l-4.7-12.9c-1-2.8-1.4-4.3-3.5-4.7l-1.5-0.3c-0.4-0.3-0.3-1.3 0.2-1.5 1.9 0.1 3.7 0.2 5.7 0.2 1.6 0 3.3-0.1 5.2-0.2 0.5 0.2 0.5 1.2 0.1 1.5l-1.5 0.3c-0.8 0.2-1.3 0.4-1.3 0.8 0 0.7 1.4 4.6 1.7 5.7l1.9 5.5c0.4 1 1.5 4.1 1.7 4.3 0.2-0.1 1.1-2 2.2-4.5l2-4.7c1.3-3.1 2.1-5.4 2.1-6 0-0.4-0.4-0.8-1.4-1l-1.9-0.3c-0.4-0.3-0.4-1.3 0.1-1.5 1.9 0.1 3.7 0.2 5.3 0.2 1.5 0 2.9-0.1 4.6-0.2 0.5 0.2 0.5 1.1 0.1 1.5l-1 0.2c-2 0.4-3.1 2.1-5.1 6.4l-3.4 6.9c-2 4-6.4 13.3-9.3 19.9-1 2.3-2.5 2.8-3.8 2.8-1.6-0.1-2.5-1.2-2.5-2.7"/>
<path class="st0" d="m89.8 38.9c0 4.3 0.1 4.9 2.3 5.2l1.4 0.2c0.4 0.3 0.3 1.3-0.1 1.5-2-0.1-3.7-0.2-5.8-0.2-2.2 0-4 0.1-5.8 0.2-0.4-0.2-0.5-1.2-0.1-1.5l1.4-0.2c2.2-0.3 2.3-0.9 2.3-5.2v-27.2c0-3.5-0.1-3.9-1.9-5l-0.6-0.4c-0.3-0.2-0.3-1 0-1.2 1.5-0.5 4.3-1.4 6.5-2.5 0.2 0 0.5 0.1 0.6 0.4-0.1 1.8-0.2 4.8-0.2 7.5v28.4"/>
<path class="st0" d="m120.5 33.5c0 7.5-5.2 12.9-12.7 12.9-6.9 0-12.3-4.9-12.3-12.4 0-7.6 5.7-13 12.8-13 6.7 0.1 12.2 5.1 12.2 12.5m-12.9-10.6c-4 0-6.9 3.8-6.9 10.4 0 5.5 2.5 11.4 7.8 11.4s6.9-5.5 6.9-10.2c-0.1-5.1-2.1-11.6-7.8-11.6"/>
<path class="st0" d="m127 28.4c0-2.3 0-2.6-1.6-3.7l-0.5-0.4c-0.2-0.2-0.2-0.9 0.1-1.1 1.4-0.5 4.6-2 6.1-2.9 0.3 0.1 0.5 0.2 0.5 0.4v3.5c0 0.3 0.1 0.5 0.2 0.5 2.1-1.7 4.4-3.6 6.6-3.6 1.5 0 2.7 1 2.7 2.4 0 2-1.6 2.8-2.6 2.8-0.6 0-0.9-0.2-1.3-0.4-0.9-0.6-1.8-1-2.6-1-1 0-1.7 0.5-2.2 1.2-0.6 0.8-0.8 2.6-0.8 4.6v8.2c0 4.3 0.1 5 2.4 5.2l2.2 0.2c0.4 0.3 0.3 1.3-0.1 1.5-2.8-0.1-4.6-0.2-6.7-0.2-2.2 0-4 0.1-5.5 0.2-0.4-0.2-0.5-1.2-0.1-1.5l1.1-0.2c2.2-0.4 2.3-0.9 2.3-5.2v-10.5"/>
<path class="st0" d="m153.5 46.6c-5.1 0-8.2-1.6-9.4-2.2-0.7-1.3-1.5-5.6-1.6-8.4 0.3-0.4 1.2-0.5 1.4-0.2 0.9 3.1 3.4 9 10.3 9 5.1 0 7.5-3.3 7.5-6.9 0-2.6-0.5-5.6-4.9-8.4l-5.7-3.7c-3-2-6.5-5.4-6.5-10.3 0-5.7 4.4-10.3 12.3-10.3 1.9 0 4 0.4 5.6 0.8 0.8 0.2 1.6 0.4 2.1 0.4 0.5 1.4 1.1 4.8 1.1 7.3-0.2 0.4-1.2 0.5-1.5 0.2-0.8-2.9-2.4-6.8-8.2-6.8-5.9 0-7.2 3.9-7.2 6.7 0 3.5 2.9 6 5.1 7.4l4.8 3c3.8 2.3 7.5 5.8 7.5 11.5 0.1 6.4-4.9 10.9-12.7 10.9"/>
<path class="st0" d="m190 22.1c0.5 0.4 0.9 1.4 0.9 2.4 0 1.1-0.6 2.2-1.3 2.2-0.3 0-0.6-0.1-0.8-0.4-1.3-1.6-3.5-3.2-6-3.2-4.2 0-8.3 3.3-8.3 9.7 0 4.7 3.2 10.3 9.7 10.3 3.5 0 5.3-1.6 6.7-3.6 0.5-0.1 1 0.3 1.1 0.8-2 4.5-6.6 6.1-10 6.1-3.2 0-6.1-1-8.2-3.1-2.1-2-3.5-5-3.5-8.9 0-6.5 4.6-13.4 14.6-13.4 1.1 0.1 3.4 0.4 5.1 1.1"/>
<path class="st0" d="m217.6 33.5c0 7.5-5.2 12.9-12.7 12.9-6.9 0-12.3-4.9-12.3-12.4 0-7.6 5.7-13 12.8-13 6.7 0.1 12.2 5.1 12.2 12.5m-13-10.6c-4 0-6.9 3.8-6.9 10.4 0 5.5 2.5 11.4 7.8 11.4s6.9-5.5 6.9-10.2c0-5.1-2.1-11.6-7.8-11.6"/>
<path class="st0" d="m229 24.4c-1 0-1.1 0.2-1.1 1.4v11.2c0 3.5 0.4 6.7 4.4 6.7 0.6 0 1.1-0.1 1.6-0.3s1.3-0.8 1.5-0.8c0.5 0 0.7 0.7 0.6 1-1.1 1.3-3.2 2.8-6.3 2.8-5.2 0-6.3-2.9-6.3-6.5v-13.7c0-1.6-0.1-1.7-1.3-1.7h-1.7c-0.4-0.2-0.4-0.9-0.2-1.3 1.7-0.5 3.2-1.3 3.8-1.9 0.8-0.7 1.9-2.3 2.5-3.5 0.3-0.1 1-0.1 1.3 0.3v2.7c0 1.1 0.1 1.1 1.1 1.1h6.7c0.7 0.5 0.6 2.2 0.1 2.5h-6.7"/>
<path class="st0" d="m247.2 24.4c-1 0-1.1 0.2-1.1 1.4v11.2c0 3.5 0.4 6.7 4.4 6.7 0.6 0 1.1-0.1 1.6-0.3s1.3-0.8 1.5-0.8c0.5 0 0.7 0.7 0.6 1-1.1 1.3-3.2 2.8-6.3 2.8-5.2 0-6.3-2.9-6.3-6.5v-13.7c0-1.6-0.1-1.7-1.3-1.7h-1.7c-0.4-0.2-0.4-0.9-0.2-1.3 1.7-0.5 3.2-1.3 3.9-1.9 0.8-0.7 1.9-2.3 2.5-3.5 0.3-0.1 1-0.1 1.3 0.3v2.7c0 1.1 0.1 1.1 1.1 1.1h6.7c0.7 0.5 0.6 2.2 0.1 2.5h-6.8"/>
<path class="st0" d="m264.2 20.6c0-4.2 3.3-7.4 7.5-7.4 2.8 0 5.6 1.7 5.6 4.5 0 3-3 4.2-4.1 4.2-0.2 0-1.2 0-0.5-1 0.1-0.2 1-1.1 0.5-2.7-0.4-1.2-1.5-2.2-3.3-2.3-2.2-0.2-3.9 1.3-3.9 3.2 0 2 1.2 3.3 5.3 5.5 5.3 2.9 9.9 5.3 13.8 13.4 1.4-1.7 2-3.5 2-5.7 0-1.5-0.3-2.7-1.3-4.1-0.7-0.9-1.6-1.1-2.2-1.2s-1.7-0.2-3 0.9c-0.2 0.2-0.4 0.3-0.8 0.2s-0.5-0.7-0.4-1.4c0.3-2 2.4-3.6 5.3-3.6 0.8 0 2 0.2 3 0.4 1.2 0.2 1.9 0.3 2.3 0.3 0.7 0 1.1-0.1 1.4-0.6 0 0 0.2-0.3 0.4-0.3 0.5 0 0.7 0.4 0.7 0.4 0 2.3-1.3 3.5-4.2 4.3 0.7 1.3 0.9 2.4 0.9 3.9 0 2.9-1 5.3-3.3 7.8 1.8 3.3 3.5 4.6 6.5 4.6 0.6 0 1.1-0.1 1.6-0.2 0.6-0.2 0.8-0.2 1-0.2 0.3 0 0.4 0.1 0.4 0.4 0 1.1-2.5 2-5.8 2-3.1 0-4.7-0.7-7.3-3-4 2.3-6.5 3.1-10 3.1-7.3 0-12.9-4.7-12.9-10.8 0-6.4 4.8-8.7 6.9-9.6-1.5-1.7-2.1-3.2-2.1-5m3.6 6.4c-2.4 0.5-3.5 2-3.5 4.9 0 6.2 5.2 11.6 11 11.6 2.1 0 3.5-0.4 6.1-1.7-1-1.2-1.5-1.7-2.6-3.4l-1.3-1.9c-3.3-4.8-6-6.8-8.3-8.6l-1.4-0.9z"/>
<path class="st0" d="m287.1 7.2c-0.4-0.4-0.3-1.2 0.2-1.4 1.6 0.1 4.3 0.2 6.2 0.2 1.7 0 4.7-0.1 6.9-0.2 0.5 0.2 0.5 1 0.1 1.4l-1.4 0.1c-1.3 0.1-2 0.5-2 1 0 0.7 1.3 3.8 3.1 8.1 3.4 7.5 6.9 15 10.4 22.4 1.4-3 3.1-6.4 4.6-9.7 0.5-1.1 1-2.2 1-2.5s-0.2-0.8-0.5-1.6c-2.1-4.8-4.3-9.6-6.6-14.4-0.9-1.9-1.8-3.1-3.8-3.3l-1.4-0.1c-0.4-0.5-0.4-1.2 0.1-1.4 1.7 0.1 4 0.2 6.4 0.2 3 0 5.2-0.1 6.6-0.2 0.4 0.2 0.5 1 0.1 1.4l-1.6 0.1c-2.3 0.2-2.4 0.6-1.3 3.3 1.3 2.9 2.9 6.7 4.6 10.5 1.1-2.3 2.2-4.6 3.5-7.9 2.2-5.1 1.9-5.8-0.1-5.9l-1.8-0.1c-0.4-0.6-0.3-1.3 0.1-1.4 1.6 0.1 3.4 0.2 5.7 0.2 2 0 4.4-0.1 5.8-0.2 0.4 0.2 0.5 1 0.1 1.4l-1.7 0.1c-2.5 0.2-3.6 2.9-4.9 5.4-1.3 2.2-3.8 7.5-4.7 9.6-0.3 0.6-0.5 1.2-0.5 1.4s0.1 0.7 0.4 1.4c2 4.6 4.1 9.1 6.1 13.7 1.9-4.2 3.7-8.4 5.4-12.7 1.2-2.9 4.4-10.9 4.8-12 0.8-2.2 1.8-4.7 1.8-5.5s-0.7-1.3-2-1.4l-1.7-0.1c-0.5-0.5-0.4-1.2 0.1-1.4 2.3 0.1 3.9 0.2 5.8 0.2 2.3 0 4-0.1 5.6-0.2 0.5 0.2 0.5 1 0.1 1.4l-1.1 0.1c-3 0.3-3.5 2.1-7.2 10.5l-4.4 10.2c-2.6 6.1-5.1 12-7.5 18.5-0.2 0.1-0.4 0.2-0.7 0.2s-0.6-0.1-0.8-0.2c-1.9-5.4-5.4-12.9-7.3-17.1-2.2 4.4-5.8 12.1-7.5 17.1-0.2 0.1-0.4 0.2-0.7 0.2s-0.6-0.1-0.9-0.2c-1-2.5-3.4-7.9-4.1-9.7-3.9-8.4-7.6-16.7-11.5-25.1-1.1-2.5-1.9-4.1-4.4-4.3l-1.5-0.1"/>
<path class="st0" d="m345.2 11.7c0-3.8-0.3-4.3-1.1-4l-1.3-1.4c-0.3-0.2-2.3-0.4-1.5-0.4 4.8 0 5.9-2.1 8-3.3 0.2-0.1 0.6 0 0.6 0.4-0.1 1.8-0.2 4.8-0.2 7.5v12.6c0 0.5 0.1 1 0.2 1.1 2.2-1.7 5.1-3.1 8.1-3.1 5.7 0 7.8 3.5 7.8 7.8v10c0 4.3 0.1 5 2.3 5.2l1.6 0.2c0.4 0.3 0.3 1.3-0.1 1.5-2.2-0.1-3.9-0.2-6-0.2-2.2 0-4 0.1-5.6 0.2-0.4-0.2-0.5-1.2-0.1-1.5l1.2-0.2c2.2-0.4 2.3-0.9 2.3-5.2v-8.6c0-3.8-1.9-6.4-5.7-6.4-2 0-3.6 0.7-4.7 1.6s-1.3 1.2-1.3 3.3v10.1c0 4.3 0.1 4.9 2.3 5.2l1.3 0.2c0.4 0.2 0.3 1.3-0.1 1.5-1.8-0.1-3.6-0.2-5.7-0.2-2.2 0-4 0.1-5.9 0.2-0.4-0.2-0.5-1.2-0.1-1.5l1.5-0.2c2.2-0.2 2.3-0.9 2.3-5.2v-27.2"/>
<path class="st0" d="m375.3 28.3c0-2.3 0-2.6-1.6-3.7l-0.5-0.4c-0.2-0.2-0.2-0.9 0.1-1.1 1.4-0.5 4.8-2 6.2-2.9 0.3 0 0.5 0.1 0.6 0.4-0.1 2.1-0.2 5-0.2 7.5v10.8c0 4.3 0.1 4.9 2.3 5.2l1.3 0.2c0.4 0.3 0.3 1.3-0.1 1.5-1.8-0.1-3.5-0.2-5.7-0.2s-4 0.1-5.7 0.2c-0.4-0.2-0.5-1.2-0.1-1.5l1.3-0.2c2.2-0.3 2.3-0.9 2.3-5.2v-10.6m4.8-15.2c0 2.2-1.5 3.1-3.2 3.1-1.9 0-3.1-1.4-3.1-3 0-2 1.4-3.2 3.2-3.2 1.9 0 3.1 1.4 3.1 3.1"/>
	<path class="st0" d="m394.2 24.4c-1 0-1.1 0.2-1.1 1.4v11.2c0 3.5 0.4 6.7 4.4 6.7 0.6 0 1.1-0.1 1.6-0.3s1.3-0.8 1.5-0.8c0.5 0 0.7 0.7 0.6 1-1.1 1.3-3.2 2.8-6.3 2.8-5.2 0-6.3-2.9-6.3-6.5v-13.7c0-1.6-0.1-1.7-1.3-1.7h-1.7c-0.4-0.2-0.4-0.9-0.2-1.3 1.7-0.5 3.2-1.3 3.8-1.9 0.8-0.7 1.9-2.3 2.5-3.5 0.3-0.1 1-0.1 1.3 0.3v2.7c0 1.1 0.1 1.1 1.1 1.1h6.7c0.7 0.5 0.6 2.2 0.1 2.5h-6.7"/>
	<path class="st0" d="m408.1 30.2c-1.6 0-1.6 0.1-1.6 1.6 0 6.1 3.5 11.2 10 11.2 2 0 3.7-0.6 5.5-2.9 0.6-0.2 1 0.2 1.1 0.7-2 4.1-6.3 5.6-9.4 5.6-3.9 0-7-1.7-8.7-4-1.8-2.3-2.5-5.2-2.5-7.8 0-7.4 4.9-13.6 12.1-13.6 5.2 0 8.5 3.5 8.5 7.2 0 0.8-0.1 1.3-0.2 1.6-0.2 0.4-1 0.4-3.5 0.4h-11.3m3.7-1.8c4.5 0 5.8-0.2 6.3-0.6 0.2-0.1 0.4-0.4 0.4-1.1 0-1.7-1.1-3.8-4.6-3.8s-6.6 3.2-6.7 5.2c0 0.1 0 0.3 0.4 0.3h4.2z"/>
<path class="st1" d="m5.6 81.3v-14.9h7c3.2 0 4.7 1.2 4.7 3.7 0 1.4-0.7 2.4-2 3.1 0.9 0.2 1.6 0.7 2 1.4 0.5 0.7 0.7 1.5 0.7 2.4 0 1.4-0.5 2.5-1.5 3.2s-2.2 1.1-3.7 1.1h-7.2m3.3-12.3v3.5h3.3c0.6 0 1.1-0.1 1.5-0.4s0.5-0.7 0.5-1.3c0-1.1-0.7-1.7-2.2-1.7h-3.1zm0 5.7v4.1h3.5c1.6 0 2.4-0.7 2.4-2 0-1.4-0.8-2.1-2.3-2.1h-3.6z"/>
<path class="st1" d="m21.9 81.3v-14.9h8c1.3 0 2.4 0.4 3.1 1.2 0.8 0.8 1.2 1.8 1.2 2.9 0 1.8-0.8 3.1-2.3 3.7 1.3 0.3 2 1.5 2.2 3.5v0.6c0 0.3 0 0.6 0.1 0.8 0 0.2 0 0.4 0.1 0.7 0 0.3 0.1 0.6 0.2 0.8l0.3 0.6h-3.3c-0.1-0.3-0.2-0.6-0.3-1s-0.1-0.9-0.1-1.4-0.1-0.9-0.1-1.2c-0.1-0.8-0.4-1.4-0.7-1.7-0.4-0.3-1-0.5-1.8-0.5h-3.3v5.8h-3.3m3.3-12.2v4.2h3.6c1.5 0 2.2-0.7 2.2-2.1s-0.7-2.1-2.2-2.1h-3.6z"/>
<path class="st1" d="m37 81.3l5.6-14.8h3.4l5.5 14.8h-3.4l-1.1-3.3h-5.5l-1.2 3.3h-3.3m7.2-11.2l-1.9 5.4h3.8l-1.9-5.4z"/>
<rect class="st1" x="54.5" y="66.4" width="3.3" height="14.8"/>
<polyline class="st1" points="62.3 81.3 62.3 66.4 65.5 66.4 71.7 76.4 71.7 76.4 71.7 66.4 74.8 66.4 74.8 81.3 71.5 81.3 65.4 71.3 65.3 71.3 65.3 81.3 62.3 81.3"/>
<path class="st1" d="m85.2 81.3l5.6-14.8h3.3l5.5 14.8h-3.4l-1-3.3h-5.5l-1.2 3.3h-3.3m7.2-11.2l-1.9 5.4h3.8l-1.9-5.4z"/>
<polyline class="st1" points="102.6 81.3 102.6 66.4 105.9 66.4 112.1 76.4 112.1 76.4 112.1 66.4 115.2 66.4 115.2 81.3 111.9 81.3 105.7 71.3 105.7 71.3 105.7 81.3 102.6 81.3"/>
<path class="st1" d="m119.7 81.3v-14.9h6.4c2 0 3.6 0.6 4.9 1.9 1.2 1.3 1.9 3.1 1.9 5.5 0 2.2-0.6 4.1-1.7 5.4-1.2 1.4-2.8 2.1-5 2.1h-6.5m3.2-12.1v9.3h2.9c1.1 0 1.9-0.4 2.6-1.1s1.1-1.8 1.1-3.4-0.3-2.8-1-3.6-1.8-1.3-3.3-1.3h-2.3z"/>
<path class="st1" d="m143.2 76.4h3.2c0 0.9 0.3 1.6 0.9 2.1s1.4 0.7 2.4 0.7c0.5 0 0.9 0 1.3-0.1s0.8-0.3 1.1-0.6 0.5-0.7 0.5-1.1c0-0.2 0-0.4-0.1-0.6s-0.2-0.3-0.4-0.5c-0.2-0.1-0.4-0.3-0.5-0.4-0.2-0.1-0.4-0.2-0.7-0.3s-0.6-0.2-0.8-0.2c-0.2-0.1-0.5-0.1-0.9-0.2s-0.7-0.2-0.9-0.2c-0.7-0.2-1.2-0.3-1.6-0.5s-0.9-0.4-1.4-0.7-0.8-0.7-1.1-1.2c-0.2-0.5-0.4-1.1-0.4-1.7 0-1 0.3-1.8 0.8-2.5 0.6-0.7 1.2-1.2 2.1-1.5 0.8-0.3 1.7-0.5 2.6-0.5 1.1 0 2.1 0.2 2.9 0.5 0.9 0.3 1.6 0.8 2.2 1.6 0.6 0.7 0.9 1.7 0.9 2.8h-3.2c-0.1-1.5-1.1-2.2-2.9-2.2-0.6 0-1.1 0.1-1.6 0.4s-0.7 0.7-0.7 1.3c0 0.5 0.2 0.9 0.7 1.1s1.7 0.6 3.7 1.1c1.3 0.3 2.3 0.7 2.9 1.2 1 0.8 1.5 1.8 1.5 3.1 0 1.4-0.5 2.6-1.6 3.4-1.1 0.9-2.6 1.3-4.5 1.3-1.8 0-3.3-0.5-4.5-1.3-1.3-1.3-1.9-2.6-1.9-4.3"/>
<path class="st1" d="m159.3 81.3v-14.9h6.7c1.2 0 2.2 0.2 3 0.7s1.4 1 1.7 1.7 0.5 1.5 0.5 2.3c0 0.9-0.2 1.6-0.5 2.3s-0.9 1.3-1.7 1.7-1.8 0.7-3 0.7h-3.4v5.3h-3.3m3.3-12.1v4.4h2.5c0.9 0 1.6-0.2 2.1-0.5s0.8-0.9 0.8-1.8-0.3-1.4-0.8-1.8c-0.5-0.3-1.2-0.5-2.1-0.5h-2.5z"/>
<rect class="st1" x="174.8" y="66.4" width="3.3" height="14.8"/>
<polyline class="st1" points="182.6 81.3 182.6 66.4 185.9 66.4 192.1 76.4 192.1 76.4 192.1 66.4 195.2 66.4 195.2 81.3 191.9 81.3 185.7 71.3 185.7 71.3 185.7 81.3 182.6 81.3"/>
<polyline class="st1" points="199.7 81.3 199.7 66.4 210.8 66.4 210.8 69.2 202.9 69.2 202.9 72.4 210.1 72.4 210.1 74.9 202.9 74.9 202.9 78.5 210.9 78.5 210.9 81.3 199.7 81.3"/>
<path class="st1" d="m235.3 71.4h-3.2c-0.1-0.7-0.5-1.3-1.1-1.8s-1.3-0.7-2.2-0.7-1.7 0.2-2.3 0.7-1.1 1.1-1.3 1.9c-0.3 0.7-0.4 1.6-0.4 2.5 0 1.4 0.3 2.6 1 3.5 0.7 1 1.7 1.4 3 1.4 1 0 1.7-0.3 2.3-0.9s0.9-1.4 1-2.4h3.2c-0.2 1.8-0.8 3.3-2 4.4s-2.7 1.7-4.5 1.7c-2.2 0-4-0.7-5.3-2.2s-2-3.3-2-5.5c0-2.3 0.7-4.1 2-5.6s3.1-2.2 5.3-2.2c1.7 0 3.1 0.5 4.3 1.4 1.3 0.9 2 2.2 2.2 3.8"/>
<polyline class="st1" points="239.3 81.3 239.3 66.4 250.4 66.4 250.4 69.2 242.6 69.2 242.6 72.4 249.7 72.4 249.7 74.9 242.6 74.9 242.6 78.5 250.5 78.5 250.5 81.3 239.3 81.3"/>
<polyline class="st1" points="254.4 81.3 254.4 66.4 257.7 66.4 263.8 76.4 263.9 76.4 263.9 66.4 266.9 66.4 266.9 81.3 263.7 81.3 257.5 71.3 257.5 71.3 257.5 81.3 254.4 81.3"/>
<polyline class="st1" points="274.7 81.3 274.7 69.2 270.3 69.2 270.3 66.4 282.5 66.4 282.5 69.2 278 69.2 278 81.3 274.7 81.3"/>
<polyline class="st1" points="285.8 81.3 285.8 66.4 296.9 66.4 296.9 69.2 289.1 69.2 289.1 72.4 296.3 72.4 296.3 74.9 289.1 74.9 289.1 78.5 297.1 78.5 297.1 81.3 285.8 81.3"/>
<path class="st1" d="m300.9 81.3v-14.9h8c1.3 0 2.4 0.4 3.1 1.2 0.8 0.8 1.2 1.8 1.2 2.9 0 1.8-0.8 3.1-2.3 3.7 1.3 0.3 2 1.5 2.2 3.5v0.6c0 0.3 0 0.6 0.1 0.8 0 0.2 0 0.4 0.1 0.7 0 0.3 0.1 0.6 0.2 0.8l0.3 0.6h-3.3c-0.1-0.3-0.2-0.6-0.3-1s-0.1-0.9-0.1-1.4-0.1-0.9-0.1-1.2c-0.1-0.8-0.4-1.4-0.7-1.7-0.4-0.3-1-0.5-1.8-0.5h-3.3v5.8h-3.3m3.3-12.2v4.2h3.6c1.5 0 2.2-0.7 2.2-2.1s-0.7-2.1-2.2-2.1h-3.6z"/>
<path class="st1" d="m5.6 114.6v-14.8h6.7c1.2 0 2.2 0.2 3 0.7s1.4 1 1.7 1.7 0.5 1.5 0.5 2.3c0 0.9-0.2 1.6-0.5 2.3s-0.9 1.3-1.7 1.7c-0.8 0.5-1.8 0.7-3 0.7h-3.4v5.3h-3.3m3.3-12.2v4.4h2.5c0.9 0 1.6-0.2 2.1-0.5s0.8-0.9 0.8-1.8-0.3-1.4-0.8-1.8c-0.5-0.3-1.2-0.5-2.1-0.5h-2.5z"/>
<polyline class="st1" points="21.1 114.6 21.1 99.8 24.4 99.8 24.4 111.9 31.6 111.9 31.6 114.6 21.1 114.6"/>
<path class="st1" d="m33.5 114.6l5.6-14.8h3.3l5.5 14.8h-3.4l-1.1-3.3h-5.4l-1.2 3.3h-3.3m7.3-11.1l-1.9 5.4h3.8l-1.9-5.4z"/>
	<polyline class="st1" points="51 114.6 51 99.8 54.3 99.8 60.4 109.8 60.5 109.8 60.5 99.8 63.5 99.8 63.5 114.6 60.3 114.6 54.1 104.7 54.1 104.7 54.1 114.6 51 114.6"/>
	<path class="st1" d="m67.4 107.3c0-2.3 0.7-4.1 2-5.6s3.1-2.2 5.3-2.2 4 0.7 5.3 2.2 2 3.3 2 5.6c0 2.2-0.7 4.1-2 5.5-1.3 1.5-3.1 2.2-5.3 2.2s-4-0.7-5.3-2.2-2-3.3-2-5.5m3.3 0c0 1.4 0.3 2.6 1 3.5 0.7 1 1.7 1.4 3 1.4 1.4 0 2.4-0.5 3-1.4 0.7-1 1-2.1 1-3.5 0-0.9-0.1-1.7-0.4-2.5-0.3-0.7-0.7-1.4-1.3-1.9s-1.4-0.7-2.3-0.7-1.7 0.2-2.3 0.7-1.1 1.1-1.3 1.9c-0.3 0.8-0.4 1.6-0.4 2.5z"/>
</svg>
