<?xml version="1.0" encoding="utf-8"?>
<!-- Generator: Adobe Illustrator 24.0.0, SVG Export Plug-In . SVG Version: 6.00 Build 0)  -->
<svg version="1.1" id="Layer_1" xmlns="http://www.w3.org/2000/svg" xmlns:xlink="http://www.w3.org/1999/xlink" x="0px" y="0px"
	 viewBox="0 0 300 250" style="enable-background:new 0 0 300 250;" xml:space="preserve">
<style type="text/css">
	.st0{fill:none;}
</style>
<path class="st0" d="M143.27,249.97l-18.24-10.43l-3.15-1.52l-0.98-5.97l-3.04-0.87l1.41-5.1l-4.02-1.41l-5.43-1.41l-3.26,6.62
	l-2.39,2.71l-18.14,3.91l-16.62,6.3l-11.62,2.93c0,0-6.52,0.11-7.06,0c-0.54-0.11-11.51,0-11.51,0l-7.38-0.43
	c0,0-5.1-6.41-5.76-9.67c-0.65-3.26-1.63-19.22-1.63-19.22s1.41-9.34,1.85-9.67c0.43-0.33,9.56-6.95,13.36-7.6
	c3.8-0.65,14.01-2.61,17.27-1.95c3.26,0.65,10.43,4.02,10.43,4.02s9.77,1.09,10.1,0.98s7.93-1.63,7.93-1.63l10.75-2.82l7.38-3.26
	l9.45-0.54l2.28,0.22l14.01-5c0,0,10.32-0.54,10.64-0.54c0.33,0,4.89,0.33,4.89,0.33l2.28,0.54l3.91-5.97l0.22-6.52l5.97-4.13
	l2.39-0.65l14.33,0.76l3.26,1.19l8.25,0.98l10.43,3.15l5.76,2.17l9.45-0.43l13.47-3.48l8.14-1.3l4.24-0.22l2.61-0.43l0.98-2.06
	l2.06-0.76l3.69,0.33l22.59-14.88l0.65-4.13l20.74-15.96l3.8,0.22l6.19-4.45v32.58l-14.33,10.75l-2.17-2.06l-6.73,4.34l0.11,3.37
	l3.37,4.78l-0.11,4.13c0,0-5.43,7.28-5.65,7.6c-0.22,0.33-0.22,2.61-0.22,2.61l6.3,11.29l0.22,14.44l-5.76,10.32l-5.65,7.6
	l-6.84,4.34c0,0-5.43,0.43-5.86,0.22s-9.77-3.91-9.77-3.91l-6.08-5.54l-7.49-9.34l-24.33,19.87L143.27,249.97z"/>
</svg>
