<?xml version="1.0" encoding="utf-8"?>
<!-- Generator: Adobe Illustrator 24.0.0, SVG Export Plug-In . SVG Version: 6.00 Build 0)  -->
<svg version="1.1" id="Layer_1" xmlns="http://www.w3.org/2000/svg" xmlns:xlink="http://www.w3.org/1999/xlink" x="0px" y="0px"
	 viewBox="0 0 300 250" style="enable-background:new 0 0 300 250;" xml:space="preserve">
<style type="text/css">
	.st0{fill:none;}
</style>
<path class="st0" d="M104.43,179.66v-1.74l14.33-23.78l1.41-0.87l0.11-1.52l-0.76-0.98l0.11-92.09c0,0,0.43-1.95,1.3-2.82
	c0,0,2.39-1.09,5.86-1.09s147.37-0.11,147.37-0.11s1.32,0.07,1.97,0.94c0.65,0.87,0.84,0.75,0.73,3.46
	c-0.11,2.71,0.12,31.55,0.12,31.55l-0.11,59.73l-0.65,2.39l0.65,1.09l1.74,1.52l13.9,23.24l-1.41,1.95l-5.43,1.74l-12.16,0.33
	l-56.47,0.98h-40.18h-42.14l-22.81-1.52C111.93,182.05,105.84,180.96,104.43,179.66z"/>
</svg>
