<?xml version="1.0" encoding="UTF-8"?>
<svg enable-background="new 0 0 481 114.2" version="1.1" viewBox="0 0 481 114.2" xml:space="preserve" xmlns="http://www.w3.org/2000/svg">
<style type="text/css">
	.st0{fill:#1B449C;}
	.st1{fill:#0090BE;}
</style>
	<path class="st0" d="m34.1 11.2c0-4.5-0.2-5.6-2.9-5.8l-1.9-0.2c-0.5-0.4-0.4-1.3 0.1-1.5 3.2-0.3 7.3-0.5 12.9-0.5 3.8 0 7.4 0.3 10.1 1.7 2.6 1.3 4.6 3.7 4.6 7.5 0 4.3-2.5 6.6-6.1 8.2 0 0.6 0.5 0.8 1.1 0.9 3.2 0.6 8.1 3.6 8.1 10 0 7-5.2 11.7-16 11.7-1.7 0-4.7-0.2-7.2-0.2-2.6 0-4.7 0.1-6.9 0.2-0.4-0.2-0.5-1.1-0.1-1.5l1.1-0.2c3.2-0.5 3.3-1.2 3.3-7.5v-22.8m4.7 8c0 1.7 0.1 1.8 3.1 1.7 6.1-0.2 9.4-2 9.4-7.7 0-5.9-4.4-8.1-9-8.1-1.3 0-2.2 0.1-2.8 0.4-0.5 0.1-0.7 0.4-0.7 1.5v12.2zm0 13.9c0 2.2 0.1 5.2 1.3 6.6 1.1 1.4 2.9 1.7 4.8 1.7 5.4 0 9.4-2.4 9.4-8.4 0-4.8-2.4-10.3-12-10.3-3.2 0-3.5 0.4-3.5 1.6v8.8z"/>
	<path class="st0" d="m76 30.6c0.9-0.3 1-0.8 1-1.7l0.1-2.8c0.1-2.2-0.7-5.2-4.4-5.2-1.7 0-3.7 0.8-3.8 2.7-0.1 1-0.1 1.7-0.6 2-0.9 0.7-2.5 1.1-3.4 1.1-0.5 0-0.8-0.3-0.8-0.8 0-3.1 6.8-7.4 11.2-7.4 4.3 0 6.4 2.5 6.3 7l-0.6 10.5c-0.1 2.8 0.4 5.2 2.8 5.2 0.6 0 1.1-0.2 1.5-0.4 0.3-0.2 0.6-0.4 0.8-0.4s0.4 0.4 0.4 0.8c0 0.3-2.1 2.6-5 2.6-1.4 0-2.9-0.5-3.9-1.9-0.2-0.4-0.6-0.8-1-0.8s-1.1 0.5-2.3 1.2c-1.3 0.7-2.6 1.5-4.3 1.5s-3.2-0.5-4.2-1.4c-1.1-1-1.9-2.5-1.9-4.2 0-2.3 1.1-3.7 5-5.1l7.1-2.5m-3.7 10.6c1.2 0 3.1-0.9 3.7-1.5 0.7-0.7 0.7-1.6 0.8-2.8l0.1-3.5c0-0.7-0.2-0.8-0.6-0.8s-1.4 0.2-2.5 0.6c-3.5 1.2-5.3 2.1-5.3 4.4 0 1 0.7 3.6 3.8 3.6"/>
	<path class="st0" d="m86.5 54.3c0-1.6 1.1-2.4 2.4-2.4h1.1c1 0 1.6-0.4 2-1.1 1.7-2.7 2.4-4.1 2.9-5.5 0.2-0.5 0.6-1.7 0.6-2.6 0-1.2-0.2-1.9-1-4.1l-4.7-12.9c-1-2.8-1.4-4.3-3.5-4.7l-1.5-0.3c-0.4-0.3-0.3-1.3 0.2-1.5 1.9 0.1 3.7 0.2 5.7 0.2 1.6 0 3.3-0.1 5.2-0.2 0.5 0.2 0.5 1.2 0.1 1.5l-1.4 0.3c-0.8 0.2-1.3 0.4-1.3 0.8 0 0.7 1.4 4.6 1.7 5.7l1.9 5.5c0.4 1 1.5 4.1 1.7 4.3 0.2-0.1 1.1-2 2.2-4.5l2-4.7c1.3-3.1 2.1-5.4 2.1-6 0-0.4-0.4-0.8-1.4-1l-1.9-0.3c-0.4-0.3-0.4-1.3 0.1-1.5 1.9 0.1 3.7 0.2 5.3 0.2 1.5 0 2.9-0.1 4.6-0.2 0.5 0.2 0.5 1.1 0.1 1.5l-1 0.2c-2 0.4-3.1 2.1-5.1 6.4l-3.4 6.9c-2 4-6.4 13.3-9.3 19.9-1 2.3-2.5 2.8-3.8 2.8-1.7-0.1-2.6-1.2-2.6-2.7"/>
	<path class="st0" d="m117.9 36.3c0 4.3 0.1 4.9 2.3 5.2l1.4 0.2c0.4 0.3 0.3 1.3-0.1 1.5-2-0.1-3.7-0.2-5.8-0.2-2.2 0-4 0.1-5.8 0.2-0.4-0.2-0.5-1.2-0.1-1.5l1.4-0.2c2.2-0.3 2.3-0.9 2.3-5.2v-27.2c0-3.5-0.1-3.9-1.9-5l-0.6-0.3c-0.3-0.2-0.3-1 0-1.2 1.5-0.5 4.3-1.4 6.5-2.5 0.2 0 0.5 0.1 0.6 0.4-0.1 1.8-0.2 4.8-0.2 7.5v28.3"/>
	<path class="st0" d="m148.6 31c0 7.5-5.2 12.9-12.7 12.9-6.9 0-12.3-4.9-12.3-12.4 0-7.6 5.7-13 12.8-13 6.8 0 12.2 5.1 12.2 12.5m-12.9-10.7c-4 0-6.9 3.8-6.9 10.4 0 5.5 2.5 11.4 7.8 11.4s6.9-5.5 6.9-10.2c0-5.1-2.1-11.6-7.8-11.6"/>
	<path class="st0" d="m155.1 25.8c0-2.3 0-2.6-1.6-3.7l-0.5-0.4c-0.2-0.2-0.2-0.9 0.1-1.1 1.4-0.5 4.6-2 6.1-2.9 0.3 0.1 0.5 0.2 0.5 0.4v3.5c0 0.3 0.1 0.5 0.2 0.5 2.1-1.7 4.4-3.6 6.6-3.6 1.5 0 2.7 1 2.7 2.4 0 2-1.6 2.8-2.6 2.8-0.6 0-0.9-0.2-1.3-0.4-0.9-0.6-1.8-1-2.6-1-1 0-1.7 0.5-2.2 1.2-0.6 0.8-0.8 2.6-0.8 4.6v8.2c0 4.3 0.1 5 2.4 5.2l2.2 0.2c0.4 0.3 0.3 1.3-0.1 1.5-2.8-0.1-4.6-0.2-6.7-0.2-2.2 0-4 0.1-5.5 0.2-0.4-0.2-0.5-1.2-0.1-1.5l1.1-0.2c2.2-0.4 2.3-0.9 2.3-5.2v-10.5"/>
	<path class="st0" d="m181.6 44c-5.1 0-8.2-1.6-9.4-2.2-0.7-1.3-1.5-5.6-1.6-8.4 0.3-0.4 1.2-0.5 1.4-0.2 0.9 3.1 3.4 9 10.3 9 5.1 0 7.5-3.3 7.5-6.9 0-2.6-0.5-5.6-4.9-8.4l-5.7-3.7c-3-2-6.5-5.4-6.5-10.3 0-5.7 4.4-10.3 12.3-10.3 1.9 0 4 0.4 5.6 0.8 0.8 0.2 1.6 0.4 2.1 0.4 0.5 1.4 1.1 4.8 1.1 7.3-0.2 0.4-1.2 0.5-1.5 0.2-0.8-2.9-2.4-6.8-8.2-6.8-5.9 0-7.2 3.9-7.2 6.7 0 3.5 2.9 6 5.1 7.4l4.8 3c3.8 2.3 7.5 5.8 7.5 11.5 0.1 6.4-4.9 10.9-12.7 10.9"/>
	<path class="st0" d="m218.1 19.5c0.5 0.4 0.9 1.4 0.9 2.4 0 1.1-0.6 2.2-1.3 2.2-0.3 0-0.6-0.1-0.8-0.4-1.3-1.6-3.5-3.2-6-3.2-4.2 0-8.3 3.3-8.3 9.7 0 4.7 3.2 10.3 9.7 10.3 3.5 0 5.3-1.6 6.7-3.6 0.5-0.1 1 0.3 1.1 0.8-2 4.5-6.6 6.1-10 6.1-3.2 0-6.1-1-8.2-3.1-2.1-2-3.5-5-3.5-8.9 0-6.5 4.6-13.4 14.6-13.4 1.1 0.1 3.4 0.4 5.1 1.1"/>
	<path class="st0" d="m245.7 31c0 7.5-5.2 12.9-12.7 12.9-6.9 0-12.3-4.9-12.3-12.4 0-7.6 5.7-13 12.8-13 6.7 0 12.2 5.1 12.2 12.5m-13-10.7c-4 0-6.9 3.8-6.9 10.4 0 5.5 2.5 11.4 7.8 11.4s6.9-5.5 6.9-10.2c0-5.1-2-11.6-7.8-11.6"/>
	<path class="st0" d="m257.1 21.9c-1 0-1.1 0.2-1.1 1.4v11.2c0 3.5 0.4 6.7 4.4 6.7 0.6 0 1.1-0.1 1.6-0.3s1.3-0.8 1.5-0.8c0.5 0 0.7 0.7 0.6 1-1.1 1.3-3.2 2.8-6.3 2.8-5.2 0-6.3-2.9-6.3-6.5v-13.8c0-1.6-0.1-1.7-1.3-1.7h-1.7c-0.4-0.2-0.4-0.9-0.2-1.3 1.7-0.5 3.2-1.3 3.9-1.9 0.8-0.7 1.9-2.3 2.5-3.5 0.3-0.1 1-0.1 1.3 0.3v2.7c0 1.1 0.1 1.1 1.1 1.1h6.7c0.7 0.5 0.6 2.2 0.1 2.5h-6.8"/>
	<path class="st0" d="m275.3 21.9c-1 0-1.1 0.2-1.1 1.4v11.2c0 3.5 0.4 6.7 4.4 6.7 0.6 0 1.1-0.1 1.6-0.3s1.3-0.8 1.5-0.8c0.5 0 0.7 0.7 0.6 1-1.1 1.3-3.2 2.8-6.3 2.8-5.2 0-6.3-2.9-6.3-6.5v-13.8c0-1.6-0.1-1.7-1.3-1.7h-1.7c-0.4-0.2-0.4-0.9-0.2-1.3 1.7-0.5 3.2-1.3 3.9-1.9 0.8-0.7 1.9-2.3 2.5-3.5 0.3-0.1 1-0.1 1.3 0.3v2.7c0 1.1 0.1 1.1 1.1 1.1h6.7c0.7 0.5 0.6 2.2 0.1 2.5h-6.8"/>
	<path class="st0" d="m292.3 18c0-4.2 3.3-7.4 7.5-7.4 2.8 0 5.6 1.7 5.6 4.5 0 3-3 4.2-4.1 4.2-0.2 0-1.2 0-0.5-1 0.1-0.2 1-1.1 0.5-2.7-0.4-1.2-1.5-2.2-3.3-2.3-2.2-0.2-3.9 1.3-3.9 3.2 0 2 1.2 3.3 5.3 5.5 5.3 2.9 9.9 5.3 13.8 13.4 1.4-1.7 2-3.5 2-5.7 0-1.5-0.3-2.7-1.3-4.1-0.7-0.9-1.6-1.1-2.2-1.2s-1.7-0.2-3 0.9c-0.2 0.2-0.4 0.3-0.8 0.2s-0.5-0.7-0.4-1.4c0.3-2 2.4-3.6 5.3-3.6 0.8 0 2 0.2 3 0.4 1.2 0.2 1.9 0.3 2.3 0.3 0.7 0 1.1-0.1 1.4-0.6 0 0 0.2-0.3 0.4-0.3 0.5 0 0.7 0.4 0.7 0.4 0 2.3-1.3 3.6-4.2 4.3 0.7 1.4 0.9 2.4 0.9 3.9 0 2.9-1 5.3-3.3 7.8 1.8 3.3 3.5 4.6 6.5 4.6 0.6 0 1.1-0.1 1.6-0.2 0.6-0.2 0.8-0.2 1-0.2 0.3 0 0.4 0.1 0.4 0.4 0 1.1-2.5 2-5.8 2-3.1 0-4.7-0.7-7.3-3-4 2.3-6.5 3.1-10 3.1-7.3 0-12.9-4.7-12.9-10.8 0-6.4 4.8-8.7 6.9-9.6-1.5-1.7-2.1-3.1-2.1-5m3.6 6.4c-2.4 0.5-3.5 2-3.5 4.9 0 6.2 5.2 11.6 11 11.6 2.1 0 3.5-0.4 6.1-1.7-1-1.2-1.5-1.7-2.6-3.4l-1.3-1.9c-3.3-4.8-6-6.8-8.3-8.6l-1.4-0.9z"/>
	<path class="st0" d="m315.2 4.6c-0.4-0.4-0.3-1.2 0.2-1.4 1.6 0.1 4.3 0.2 6.2 0.2 1.7 0 4.7-0.1 6.9-0.2 0.5 0.2 0.5 1 0.1 1.4l-1.4 0.1c-1.3 0.1-2 0.5-2 1 0 0.7 1.3 3.8 3.1 8.1 3.4 7.5 6.9 15 10.4 22.4 1.4-3 3.1-6.4 4.6-9.7 0.5-1.1 1-2.2 1-2.5s-0.2-0.8-0.5-1.6c-2.1-4.8-4.3-9.6-6.6-14.4-0.9-1.9-1.8-3.1-3.8-3.3l-1.4-0.1c-0.4-0.5-0.4-1.2 0.1-1.4 1.7 0.1 4 0.2 6.4 0.2 3 0 5.2-0.1 6.6-0.2 0.4 0.2 0.5 1 0.1 1.4l-1.6 0.1c-2.3 0.2-2.4 0.6-1.3 3.3 1.3 2.9 2.9 6.7 4.6 10.5 1.1-2.3 2.2-4.6 3.5-7.9 2.2-5.1 1.9-5.8-0.1-5.9l-1.8-0.1c-0.4-0.6-0.3-1.3 0.1-1.4 1.6 0.1 3.4 0.2 5.7 0.2 2 0 4.4-0.1 5.8-0.2 0.4 0.2 0.5 1 0.1 1.4l-1.7 0.1c-2.5 0.2-3.6 2.9-4.9 5.4-1.3 2.2-3.8 7.5-4.7 9.6-0.3 0.6-0.5 1.2-0.5 1.4s0.1 0.7 0.4 1.4c2 4.6 4.1 9.1 6.1 13.7 1.9-4.2 3.7-8.4 5.4-12.7 1.2-2.9 4.4-10.9 4.8-12 0.8-2.2 1.8-4.7 1.8-5.5s-0.7-1.3-2-1.4l-1.7-0.1c-0.5-0.5-0.4-1.2 0.1-1.4 2.3 0.1 3.9 0.2 5.8 0.2 2.3 0 4-0.1 5.6-0.2 0.5 0.2 0.5 1 0.1 1.4l-1.1 0.1c-3 0.3-3.5 2.1-7.2 10.5l-4.4 10.2c-2.6 6.1-5.1 12-7.5 18.5-0.2 0.1-0.4 0.2-0.7 0.2s-0.6-0.1-0.8-0.2c-1.9-5.4-5.4-12.9-7.3-17.1-2.2 4.4-5.8 12.1-7.5 17.1-0.2 0.1-0.4 0.2-0.7 0.2s-0.6-0.1-0.9-0.2c-1-2.5-3.4-7.9-4.1-9.7-3.9-8.4-7.6-16.7-11.5-25.1-1.1-2.5-1.9-4.1-4.4-4.3l-1.5-0.1"/>
	<path class="st0" d="m373.3 9.1c0-3.8-0.3-4.3-1.1-4l-1.3-1.4c-0.3-0.2-2.3-0.4-1.5-0.4 4.8 0 5.9-2.1 8-3.3 0.2-0.1 0.6 0 0.6 0.4-0.1 1.8-0.2 4.8-0.2 7.5v12.6c0 0.5 0.1 1 0.2 1.1 2.2-1.7 5.1-3.1 8.1-3.1 5.7 0 7.8 3.5 7.8 7.8v10c0 4.3 0.1 5 2.3 5.2l1.6 0.2c0.4 0.3 0.3 1.3-0.1 1.5-2.2-0.1-3.9-0.2-6-0.2-2.2 0-4 0.1-5.6 0.2-0.4-0.2-0.5-1.2-0.1-1.5l1.2-0.2c2.2-0.4 2.3-0.9 2.3-5.2v-8.6c0-3.8-1.9-6.4-5.7-6.4-2 0-3.6 0.7-4.7 1.6s-1.3 1.2-1.3 3.3v10.1c0 4.3 0.1 4.9 2.3 5.2l1.3 0.2c0.4 0.2 0.3 1.3-0.1 1.5-1.8-0.1-3.6-0.2-5.7-0.2-2.2 0-4 0.1-5.9 0.2-0.4-0.2-0.5-1.2-0.1-1.5l1.5-0.2c2.2-0.2 2.3-0.9 2.3-5.2v-27.2"/>
	<path class="st0" d="m403.4 25.8c0-2.3 0-2.6-1.6-3.7l-0.5-0.4c-0.2-0.2-0.2-0.9 0.1-1.1 1.4-0.5 4.8-2 6.2-2.9 0.3 0 0.5 0.1 0.6 0.4-0.1 2.1-0.2 5-0.2 7.5v10.8c0 4.3 0.1 4.9 2.3 5.2l1.3 0.2c0.4 0.3 0.3 1.3-0.1 1.5-1.8-0.1-3.5-0.2-5.7-0.2s-4 0.1-5.7 0.2c-0.4-0.2-0.5-1.2-0.1-1.5l1.3-0.2c2.2-0.3 2.3-0.9 2.3-5.2v-10.6m4.8-15.2c0 2.2-1.5 3.1-3.2 3.1-1.9 0-3.1-1.4-3.1-3 0-2 1.4-3.2 3.2-3.2 1.9-0.1 3.1 1.4 3.1 3.1"/>
	<path class="st0" d="m422.3 21.9c-1 0-1.1 0.2-1.1 1.4v11.2c0 3.5 0.4 6.7 4.4 6.7 0.6 0 1.1-0.1 1.6-0.3s1.3-0.8 1.5-0.8c0.5 0 0.7 0.7 0.6 1-1.1 1.3-3.2 2.8-6.3 2.8-5.2 0-6.3-2.9-6.3-6.5v-13.8c0-1.6-0.1-1.7-1.3-1.7h-1.7c-0.4-0.2-0.4-0.9-0.2-1.3 1.7-0.5 3.2-1.3 3.8-1.9 0.8-0.7 1.9-2.3 2.5-3.5 0.3-0.1 1-0.1 1.3 0.3v2.7c0 1.1 0.1 1.1 1.1 1.1h6.7c0.7 0.5 0.6 2.2 0.1 2.5h-6.7"/>
	<path class="st0" d="m436.2 27.7c-1.6 0-1.6 0.1-1.6 1.6 0 6.1 3.5 11.2 10 11.2 2 0 3.7-0.6 5.5-2.9 0.6-0.2 1 0.2 1.1 0.7-2 4.1-6.3 5.6-9.4 5.6-3.9 0-7-1.7-8.7-4-1.8-2.3-2.5-5.2-2.5-7.8 0-7.4 4.9-13.6 12.1-13.6 5.2 0 8.5 3.5 8.5 7.2 0 0.8-0.1 1.3-0.2 1.6-0.2 0.4-1 0.4-3.5 0.4h-11.3m3.8-1.8c4.5 0 5.8-0.2 6.3-0.6 0.2-0.1 0.4-0.4 0.4-1.1 0-1.7-1.1-3.8-4.6-3.8s-6.6 3.2-6.7 5.2c0 0.1 0 0.3 0.4 0.3h4.2z"/>
	<path class="st0" d="m0 78.6v-15.1h7.1c3.2 0 4.8 1.3 4.8 3.8 0 1.4-0.7 2.5-2.1 3.2 0.9 0.3 1.6 0.7 2.1 1.4s0.7 1.5 0.7 2.5c0 1.4-0.5 2.5-1.6 3.3s-2.3 1.1-3.8 1.1h-7.2m3.3-12.7v3.5h3.4c0.6 0 1.1-0.1 1.5-0.4s0.6-0.8 0.6-1.4c0-1.2-0.8-1.7-2.3-1.7h-3.2zm0 5.8v4.1h3.6c1.6 0 2.5-0.7 2.5-2 0-1.4-0.8-2.2-2.4-2.2h-3.7z"/>
	<path class="st0" d="m15.5 78.6l5.8-15.2h3.4l5.7 15.2h-3.5l-1.1-3.4h-5.8l-1.2 3.4h-3.3m7.4-11.4l-2 5.6h3.9l-1.9-5.6z"/>
	<polyline class="st0" points="36.1 78.6 36.1 72.7 30.5 63.5 34.3 63.5 37.8 69.5 41.4 63.5 45.1 63.5 39.5 72.8 39.5 78.6 36.1 78.6"/>
	<polyline class="st0" points="48.5 78.6 48.5 63.5 51.8 63.5 51.8 75.8 59.2 75.8 59.2 78.6 48.5 78.6"/>
	<path class="st0" d="m62.6 71.1c0-2.3 0.7-4.2 2-5.7s3.2-2.3 5.5-2.3 4.1 0.8 5.5 2.3c1.3 1.5 2 3.4 2 5.7s-0.7 4.1-2 5.6c-1.5 1.5-3.3 2.3-5.6 2.3s-4.1-0.7-5.4-2.2c-1.4-1.5-2-3.4-2-5.7m3.3 0c0 1.4 0.3 2.6 1 3.6s1.7 1.5 3.1 1.5 2.4-0.5 3.1-1.5 1-2.2 1-3.6c0-0.9-0.1-1.8-0.4-2.5-0.3-0.8-0.7-1.4-1.3-1.9s-1.4-0.8-2.4-0.8c-0.9 0-1.7 0.3-2.4 0.8-0.6 0.5-1.1 1.1-1.3 1.9-0.3 0.7-0.4 1.6-0.4 2.5z"/>
	<path class="st0" d="m81.9 78.6v-15.1h8.2c1.3 0 2.4 0.4 3.2 1.2s1.2 1.8 1.2 3c0 1.9-0.8 3.2-2.4 3.8 1.3 0.3 2.1 1.5 2.2 3.5v0.6c0 0.3 0 0.6 0.1 0.8 0 0.2 0 0.5 0.1 0.8 0 0.3 0.1 0.6 0.2 0.8l0.3 0.6h-3.3c-0.1-0.3-0.2-0.6-0.3-1s-0.1-0.9-0.1-1.4-0.1-0.9-0.1-1.2c-0.1-0.8-0.4-1.4-0.7-1.8-0.4-0.4-1-0.5-1.8-0.5h-3.3v5.9h-3.5m3.3-12.5v4.3h3.7c1.5 0 2.3-0.7 2.3-2.2 0-1.4-0.8-2.1-2.3-2.1h-3.7z"/>
	<path class="st0" d="m120.3 63.5v9.4c0 2-0.6 3.5-1.7 4.6-1.1 1-2.7 1.5-4.8 1.5s-3.7-0.5-4.8-1.5-1.7-2.5-1.7-4.6v-9.4h3.3v9.4c0 1 0.2 1.8 0.6 2.4s1.3 0.9 2.5 0.9 2-0.3 2.4-0.8c0.5-0.5 0.7-1.4 0.7-2.5v-9.4h3.5"/>
	<polyline class="st0" points="125.2 78.6 125.2 63.5 128.6 63.5 134.9 73.6 134.9 73.6 134.9 63.5 138.1 63.5 138.1 78.6 134.7 78.6 128.4 68.5 128.4 68.5 128.4 78.6 125.2 78.6"/>
	<rect class="st0" x="143.1" y="63.5" width="3.3" height="15.2"/>
	<polyline class="st0" points="163.6 63.5 158.6 78.6 154.8 78.6 149.9 63.5 153.3 63.5 156.7 74.1 156.7 74.1 160.2 63.5 163.6 63.5"/>
	<polyline class="st0" points="167 78.6 167 63.5 178.4 63.5 178.4 66.3 170.4 66.3 170.4 69.5 177.7 69.5 177.7 72.1 170.4 72.1 170.4 75.8 178.5 75.8 178.5 78.6 167 78.6"/>
	<path class="st0" d="m182.9 78.6v-15.1h8.2c1.3 0 2.4 0.4 3.2 1.2s1.2 1.8 1.2 3c0 1.9-0.8 3.2-2.4 3.8 1.3 0.3 2.1 1.5 2.2 3.5v0.6c0 0.3 0 0.6 0.1 0.8 0 0.2 0 0.5 0.1 0.8 0 0.3 0.1 0.6 0.2 0.8l0.3 0.6h-3.3c-0.1-0.3-0.2-0.6-0.3-1s-0.1-0.9-0.1-1.4-0.1-0.9-0.1-1.2c-0.1-0.8-0.4-1.4-0.7-1.8-0.4-0.4-1-0.5-1.8-0.5h-3.3v5.9h-3.5m3.4-12.5v4.3h3.7c1.5 0 2.3-0.7 2.3-2.2 0-1.4-0.8-2.1-2.3-2.1h-3.7z"/>
	<path class="st0" d="m199.4 73.6h3.2c0 0.9 0.3 1.7 0.9 2.1 0.6 0.5 1.4 0.7 2.4 0.7 0.5 0 0.9 0 1.3-0.1s0.8-0.3 1.1-0.6 0.5-0.7 0.5-1.2c0-0.2 0-0.4-0.1-0.6s-0.2-0.4-0.4-0.5-0.4-0.3-0.5-0.4c-0.2-0.1-0.4-0.2-0.8-0.3-0.3-0.1-0.6-0.2-0.8-0.2-0.2-0.1-0.5-0.1-0.9-0.2s-0.7-0.2-0.9-0.2c-0.7-0.2-1.2-0.3-1.7-0.5s-0.9-0.4-1.4-0.8c-0.5-0.3-0.8-0.7-1.1-1.2-0.2-0.5-0.4-1.1-0.4-1.8 0-1 0.3-1.8 0.9-2.5s1.3-1.2 2.1-1.6c0.8-0.3 1.7-0.5 2.7-0.5 1.1 0 2.1 0.2 3 0.5s1.6 0.8 2.2 1.6 0.9 1.7 0.9 2.8h-3.2c-0.1-1.5-1.1-2.3-3-2.3-0.6 0-1.1 0.1-1.6 0.4s-0.7 0.7-0.7 1.3 0.2 0.9 0.7 1.2c0.5 0.2 1.8 0.6 3.8 1.1 1.3 0.3 2.3 0.8 3 1.3 1 0.8 1.5 1.8 1.5 3.2s-0.6 2.6-1.7 3.5-2.7 1.3-4.7 1.3c-1.8 0-3.4-0.5-4.6-1.4-1.1-1-1.7-2.3-1.7-4.1"/>
	<rect class="st0" x="216.3" y="63.5" width="3.3" height="15.2"/>
	<polyline class="st0" points="228.1 78.6 228.1 66.3 223.5 66.3 223.5 63.5 235.9 63.5 235.9 66.3 231.4 66.3 231.4 78.6 228.1 78.6"/>
	<polyline class="st0" points="243.7 78.6 243.7 72.7 238.1 63.5 241.9 63.5 245.5 69.5 249 63.5 252.7 63.5 247.1 72.8 247.1 78.6 243.7 78.6"/>
	<polyline class="st0" points="264.1 78.6 264.1 63.5 268.8 63.5 272.4 73.9 272.4 73.9 275.8 63.5 280.5 63.5 280.5 78.6 277.4 78.6 277.4 67.9 277.3 67.9 273.6 78.6 271 78.6 267.3 68 267.3 68 267.3 78.6 264.1 78.6"/>
	<polyline class="st0" points="285.5 78.6 285.5 63.5 296.9 63.5 296.9 66.3 288.9 66.3 288.9 69.5 296.2 69.5 296.2 72.1 288.9 72.1 288.9 75.8 297.1 75.8 297.1 78.6 285.5 78.6"/>
	<path class="st0" d="m301.4 78.6v-15.1h6.5c2.1 0 3.7 0.6 5 1.9s1.9 3.1 1.9 5.6c0 2.3-0.6 4.1-1.8 5.6-1.2 1.4-2.9 2.1-5.1 2.1h-6.5m3.4-12.4v9.6h3c1.1 0 2-0.4 2.7-1.1s1.1-1.9 1.1-3.4c0-1.6-0.3-2.9-1-3.7-0.7-0.9-1.8-1.3-3.4-1.3h-2.4z"/>
	<rect class="st0" x="319.3" y="63.5" width="3.3" height="15.2"/>
	<path class="st0" d="m341 68.6h-3.2c-0.1-0.8-0.5-1.4-1.1-1.9s-1.4-0.8-2.2-0.8c-0.9 0-1.7 0.3-2.4 0.8-0.6 0.5-1.1 1.1-1.3 1.9-0.3 0.8-0.4 1.6-0.4 2.5 0 1.4 0.3 2.6 1 3.6s1.7 1.5 3.1 1.5c1 0 1.8-0.3 2.4-0.9s0.9-1.4 1.1-2.5h3.2c-0.2 1.9-0.9 3.4-2.1 4.5s-2.7 1.7-4.6 1.7c-2.3 0-4.1-0.7-5.4-2.2s-2-3.4-2-5.6c0-2.3 0.7-4.2 2-5.7s3.2-2.3 5.5-2.3c1.7 0 3.2 0.5 4.4 1.5 1.1 0.8 1.8 2.2 2 3.9"/>
	<path class="st0" d="m344 78.6l5.8-15.2h3.4l5.7 15.2h-3.5l-1.1-3.4h-5.7l-1.2 3.4h-3.4m7.4-11.4l-2 5.6h3.9l-1.9-5.6z"/>
	<polyline class="st0" points="362.2 78.6 362.2 63.5 365.6 63.5 365.6 75.8 373 75.8 373 78.6 362.2 78.6"/>
	<path class="st0" d="m398.4 68.6h-3.2c-0.1-0.8-0.5-1.4-1.1-1.9s-1.4-0.8-2.2-0.8c-0.9 0-1.7 0.3-2.4 0.8-0.6 0.5-1.1 1.1-1.3 1.9-0.3 0.8-0.4 1.6-0.4 2.5 0 1.4 0.3 2.6 1 3.6s1.7 1.5 3.1 1.5c1 0 1.8-0.3 2.4-0.9s0.9-1.4 1.1-2.5h3.2c-0.2 1.9-0.9 3.4-2.1 4.5s-2.7 1.7-4.6 1.7c-2.3 0-4.1-0.7-5.4-2.2s-2-3.4-2-5.6c0-2.3 0.7-4.2 2-5.7s3.2-2.3 5.5-2.3c1.7 0 3.2 0.5 4.4 1.5 1 0.8 1.8 2.2 2 3.9"/>
	<polyline class="st0" points="402.9 78.6 402.9 63.5 414.2 63.5 414.2 66.3 406.2 66.3 406.2 69.5 413.6 69.5 413.6 72.1 406.2 72.1 406.2 75.8 414.4 75.8 414.4 78.6 402.9 78.6"/>
	<polyline class="st0" points="418.8 78.6 418.8 63.5 422.1 63.5 428.4 73.6 428.5 73.6 428.5 63.5 431.6 63.5 431.6 78.6 428.2 78.6 421.9 68.5 421.9 68.5 421.9 78.6 418.8 78.6"/>
	<polyline class="st0" points="440 78.6 440 66.3 435.5 66.3 435.5 63.5 447.9 63.5 447.9 66.3 443.3 66.3 443.3 78.6 440 78.6"/>
	<polyline class="st0" points="451.8 78.6 451.8 63.5 463.1 63.5 463.1 66.3 455.1 66.3 455.1 69.5 462.4 69.5 462.4 72.1 455.1 72.1 455.1 75.8 463.3 75.8 463.3 78.6 451.8 78.6"/>
	<path class="st0" d="m467.6 78.6v-15.1h8.2c1.3 0 2.4 0.4 3.2 1.2s1.2 1.8 1.2 3c0 1.9-0.8 3.2-2.4 3.8 1.3 0.3 2.1 1.5 2.2 3.5v0.6c0 0.3 0 0.6 0.1 0.8 0 0.2 0 0.5 0.1 0.8 0 0.3 0.1 0.6 0.2 0.8l0.3 0.6h-3.3c-0.1-0.3-0.2-0.6-0.3-1s-0.1-0.9-0.1-1.4-0.1-0.9-0.1-1.2c-0.1-0.8-0.4-1.4-0.7-1.8-0.4-0.4-1-0.5-1.8-0.5h-3.4v5.9h-3.4m3.4-12.5v4.3h3.7c1.5 0 2.3-0.7 2.3-2.2 0-1.4-0.8-2.1-2.3-2.1h-3.7z"/>
	<path class="st1" d="m196.3 113.8v-14.8h6.4c2 0 3.6 0.6 4.9 1.9 1.2 1.3 1.9 3.1 1.9 5.4 0 2.2-0.6 4-1.7 5.4s-2.8 2.1-5 2.1h-6.5m3.2-12v9.3h2.9c1.1 0 1.9-0.4 2.6-1.1s1.1-1.8 1.1-3.4-0.3-2.8-1-3.6c-0.6-0.8-1.7-1.3-3.3-1.3h-2.3z"/>
	<path class="st1" d="m211.7 113.8l5.6-14.8h3.3l5.5 14.8h-3.4l-1.1-3.3h-5.5l-1.2 3.3h-3.2m7.3-11.1l-1.9 5.4h3.8l-1.9-5.4z"/>
	<polyline class="st1" points="229.2 113.8 229.2 99 232.4 99 232.4 111.1 239.6 111.1 239.6 113.8 229.2 113.8"/>
	<polyline class="st1" points="243.1 113.8 243.1 99 246.4 99 246.4 111.1 253.6 111.1 253.6 113.8 243.1 113.8"/>
	<path class="st1" d="m255.5 113.8l5.6-14.8h3.3l5.5 14.8h-3.4l-1.1-3.3h-5.4l-1.2 3.3h-3.3m7.2-11.1l-1.9 5.4h3.8l-1.9-5.4z"/>
	<path class="st1" d="m272 108.9h3.2c0 0.9 0.3 1.6 0.9 2.1 0.6 0.4 1.4 0.7 2.4 0.7 0.5 0 0.9 0 1.3-0.1s0.8-0.3 1.1-0.6 0.5-0.7 0.5-1.1c0-0.2 0-0.4-0.1-0.6s-0.2-0.3-0.4-0.5c-0.2-0.1-0.4-0.3-0.5-0.4-0.2-0.1-0.4-0.2-0.7-0.3s-0.6-0.2-0.8-0.2c-0.2-0.1-0.5-0.1-0.9-0.2s-0.7-0.2-0.9-0.2c-0.6-0.2-1.2-0.3-1.6-0.5s-0.9-0.4-1.4-0.7-0.8-0.7-1.1-1.2c-0.2-0.5-0.4-1.1-0.4-1.7 0-1 0.3-1.8 0.8-2.5 0.6-0.7 1.2-1.2 2.1-1.5 0.8-0.3 1.7-0.5 2.6-0.5 1.1 0 2.1 0.2 2.9 0.5 0.9 0.3 1.6 0.8 2.1 1.6 0.6 0.7 0.9 1.7 0.9 2.7h-3.2c-0.1-1.5-1.1-2.2-2.9-2.2-0.6 0-1.1 0.1-1.6 0.4s-0.7 0.7-0.7 1.3c0 0.5 0.2 0.9 0.7 1.1s1.7 0.6 3.7 1.1c1.3 0.3 2.3 0.7 2.9 1.2 1 0.8 1.5 1.8 1.5 3.1 0 1.4-0.5 2.6-1.6 3.4-1.1 0.9-2.6 1.3-4.5 1.3-1.8 0-3.3-0.4-4.5-1.3-1.2-1.2-1.8-2.5-1.8-4.2"/>
</svg>
