<?xml version="1.0" encoding="UTF-8"?>
<svg enable-background="new 0 0 423 149" version="1.1" viewBox="0 0 423 149" xml:space="preserve" xmlns="http://www.w3.org/2000/svg">
<style type="text/css">
	.st0{fill:#1C4799;}
	.st1{fill:#008EBD;}
</style>
<polyline class="st0" points="103.2 79.3 103.2 64.1 107.9 64.1 111.5 74.5 111.5 74.5 114.9 64.1 119.5 64.1 119.5 79.3 116.4 79.3 116.4 68.5 116.4 68.5 112.7 79.3 110.1 79.3 106.4 68.6 106.3 68.6 106.3 79.3 103.2 79.3"/>
<polyline class="st0" points="124.6 79.3 124.6 64.1 136 64.1 136 66.9 127.9 66.9 127.9 70.2 135.3 70.2 135.3 72.8 127.9 72.8 127.9 76.5 136.1 76.5 136.1 79.3 124.6 79.3"/>
<path class="st0" d="m140.5 79.3v-15.2h6.5c2.1 0 3.7 0.6 5 1.9s1.9 3.1 1.9 5.6c0 2.3-0.6 4.1-1.8 5.6-1.2 1.4-2.9 2.1-5.1 2.1h-6.5m3.3-12.4v9.6h3c1.1 0 2-0.4 2.7-1.1s1.1-1.9 1.1-3.4c0-1.6-0.3-2.9-1-3.7-0.7-0.9-1.8-1.3-3.4-1.3h-2.4z"/>
<rect class="st0" x="158.4" y="64.1" width="3.3" height="15.2"/>
<path class="st0" d="m180.1 69.2h-3.2c-0.1-0.8-0.5-1.4-1.1-1.9s-1.4-0.8-2.2-0.8c-0.9 0-1.7 0.3-2.4 0.8-0.6 0.5-1.1 1.1-1.3 1.9-0.3 0.8-0.4 1.6-0.4 2.5 0 1.4 0.3 2.6 1 3.6s1.7 1.5 3.1 1.5c1 0 1.8-0.3 2.4-0.9s0.9-1.4 1.1-2.5h3.2c-0.2 1.9-0.9 3.4-2.1 4.5s-2.7 1.7-4.6 1.7c-2.3 0-4.1-0.7-5.4-2.2s-2-3.4-2-5.6c0-2.3 0.7-4.2 2-5.7s3.2-2.3 5.5-2.3c1.7 0 3.2 0.5 4.4 1.5 1.1 0.9 1.8 2.2 2 3.9"/>
<path class="st0" d="m183 79.3l5.8-15.2h3.4l5.7 15.2h-3.5l-1.1-3.4h-5.7l-1.2 3.4h-3.4m7.4-11.5l-2 5.6h3.9l-1.9-5.6z"/>
<polyline class="st0" points="201.3 79.3 201.3 64.1 204.7 64.1 204.7 76.5 212 76.5 212 79.3 201.3 79.3"/>
<path class="st0" d="m237.4 69.2h-3.2c-0.1-0.8-0.5-1.4-1.1-1.9s-1.4-0.8-2.2-0.8c-0.9 0-1.7 0.3-2.4 0.8-0.6 0.5-1.1 1.1-1.3 1.9-0.3 0.8-0.4 1.6-0.4 2.5 0 1.4 0.3 2.6 1 3.6s1.7 1.5 3.1 1.5c1 0 1.8-0.3 2.4-0.9s0.9-1.4 1.1-2.5h3.2c-0.2 1.9-0.9 3.4-2.1 4.5s-2.7 1.7-4.6 1.7c-2.3 0-4.1-0.7-5.4-2.2s-2-3.4-2-5.6c0-2.3 0.7-4.2 2-5.7s3.2-2.3 5.5-2.3c1.7 0 3.2 0.5 4.4 1.5 1.1 0.9 1.8 2.2 2 3.9"/>
<polyline class="st0" points="241.9 79.3 241.9 64.1 253.3 64.1 253.3 66.9 245.3 66.9 245.3 70.2 252.6 70.2 252.6 72.8 245.3 72.8 245.3 76.5 253.5 76.5 253.5 79.3 241.9 79.3"/>
<polyline class="st0" points="257.8 79.3 257.8 64.1 261.2 64.1 267.5 74.3 267.5 74.3 267.5 64.1 270.7 64.1 270.7 79.3 267.3 79.3 261 69.1 261 69.1 261 79.3 257.8 79.3"/>
<polyline class="st0" points="279.1 79.3 279.1 66.9 274.5 66.9 274.5 64.1 287 64.1 287 66.9 282.4 66.9 282.4 79.3 279.1 79.3"/>
<polyline class="st0" points="290.8 79.3 290.8 64.1 302.2 64.1 302.2 66.9 294.2 66.9 294.2 70.2 301.5 70.2 301.5 72.8 294.2 72.8 294.2 76.5 302.3 76.5 302.3 79.3 290.8 79.3"/>
	<path class="st0" d="m306.7 79.3v-15.2h8.2c1.3 0 2.4 0.4 3.2 1.2s1.2 1.8 1.2 3c0 1.9-0.8 3.2-2.4 3.8 1.3 0.3 2.1 1.5 2.2 3.5v0.6c0 0.3 0 0.6 0.1 0.8 0 0.2 0 0.5 0.1 0.8 0 0.3 0.1 0.6 0.2 0.8l0.3 0.6h-3.3c-0.1-0.3-0.2-0.6-0.3-1s-0.1-0.9-0.1-1.4-0.1-0.9-0.1-1.2c-0.1-0.8-0.4-1.4-0.7-1.8-0.4-0.4-1-0.5-1.8-0.5h-3.3v5.9h-3.5m3.4-12.5v4.3h3.7c1.5 0 2.3-0.7 2.3-2.2 0-1.4-0.8-2.1-2.3-2.1h-3.7z"/>
	<path class="st0" d="m5.2 11.9c0-4.5-0.2-5.6-2.9-5.8l-2-0.2c-0.5-0.4-0.4-1.3 0.1-1.5 3.2-0.3 7.3-0.5 12.9-0.5 3.8 0 7.4 0.3 10.1 1.7 2.6 1.2 4.6 3.6 4.6 7.5 0 4.3-2.5 6.6-6.1 8.2 0 0.6 0.5 0.8 1.1 0.9 3.2 0.6 8.1 3.6 8.1 10 0 7-5.2 11.7-16 11.7-1.7 0-4.7-0.2-7.2-0.2-2.6 0-4.7 0.1-6.9 0.2-0.4-0.2-0.5-1.1-0.1-1.5l1.1-0.2c3.2-0.5 3.3-1.2 3.3-7.5v-22.8m4.8 8c0 1.7 0.1 1.8 3.1 1.7 6.1-0.2 9.4-2 9.4-7.7 0-5.9-4.4-8.1-9-8.1-1.3 0-2.2 0.1-2.8 0.4-0.6 0.2-0.8 0.5-0.8 1.6v12.1zm0 13.9c0 2.2 0.1 5.2 1.3 6.6 1.1 1.4 2.9 1.7 4.8 1.7 5.4 0 9.4-2.4 9.4-8.4 0-4.8-2.4-10.3-12-10.3-3.2 0-3.5 0.4-3.5 1.6v8.8z"/>
<path class="st0" d="m47.1 31.3c0.9-0.3 1-0.8 1-1.7l0.1-2.8c0.1-2.2-0.7-5.2-4.4-5.2-1.7 0-3.7 0.8-3.8 2.7-0.1 1-0.1 1.7-0.6 2-0.9 0.7-2.5 1.1-3.4 1.1-0.5 0-0.8-0.3-0.8-0.8 0-3.1 6.8-7.4 11.2-7.4 4.3 0 6.4 2.5 6.3 7l-0.4 10.5c-0.1 2.8 0.4 5.2 2.8 5.2 0.6 0 1.1-0.2 1.5-0.4 0.3-0.2 0.6-0.4 0.8-0.4s0.4 0.4 0.4 0.8c0 0.3-2.1 2.6-5 2.6-1.4 0-2.9-0.5-3.9-1.9-0.2-0.4-0.6-0.8-1-0.8s-1.1 0.5-2.3 1.2c-1.3 0.7-2.6 1.5-4.3 1.5s-3.2-0.5-4.2-1.4c-1.1-1-1.9-2.5-1.9-4.2 0-2.3 1.1-3.7 5-5.1l6.9-2.5m-3.7 10.6c1.2 0 3.1-0.9 3.7-1.5 0.7-0.7 0.7-1.6 0.8-2.8l0.1-3.6c0-0.7-0.2-0.8-0.6-0.8s-1.4 0.2-2.5 0.6c-3.5 1.2-5.3 2.1-5.3 4.4 0 1.1 0.7 3.7 3.8 3.7"/>
<path class="st0" d="m57.6 55c0-1.6 1.1-2.4 2.4-2.4h1.1c1 0 1.6-0.4 2-1.1 1.7-2.7 2.4-4.1 2.9-5.5 0.2-0.5 0.6-1.7 0.6-2.6 0-1.2-0.2-1.9-1-4.1l-4.6-12.9c-1-2.8-1.4-4.3-3.5-4.7l-1.5-0.3c-0.4-0.3-0.3-1.3 0.2-1.5 1.9 0.1 3.7 0.2 5.7 0.2 1.6 0 3.3-0.1 5.2-0.2 0.5 0.2 0.5 1.2 0.1 1.5l-1.5 0.3c-0.8 0.2-1.3 0.4-1.3 0.8 0 0.7 1.4 4.6 1.7 5.7l1.9 5.5c0.4 1 1.5 4.1 1.7 4.3 0.2-0.1 1.1-2 2.2-4.4l2-4.8c1.3-3.1 2.1-5.4 2.1-6 0-0.4-0.4-0.8-1.4-1l-1.9-0.3c-0.4-0.3-0.4-1.3 0.1-1.5 1.9 0.1 3.7 0.2 5.3 0.2 1.5 0 2.9-0.1 4.6-0.2 0.5 0.2 0.5 1.1 0.1 1.5l-1 0.2c-2 0.4-3.1 2.1-5.1 6.4l-3.4 6.9c-2 4-6.4 13.3-9.3 19.9-1 2.3-2.5 2.8-3.8 2.8-1.7-0.1-2.6-1.2-2.6-2.7"/>
<path class="st0" d="m89 37c0 4.3 0.1 4.9 2.3 5.2l1.4 0.2c0.4 0.3 0.3 1.3-0.1 1.5-2-0.1-3.7-0.2-5.8-0.2-2.2 0-4 0.1-5.8 0.2-0.4-0.2-0.5-1.2-0.1-1.5l1.4-0.2c2.2-0.3 2.3-0.9 2.3-5.2v-27.1c0-3.5-0.1-3.9-1.9-5l-0.6-0.4c-0.3-0.2-0.3-1 0-1.2 1.5-0.5 4.3-1.4 6.5-2.5 0.2 0 0.5 0.1 0.6 0.4 0 1.7-0.2 4.7-0.2 7.4v28.4"/>
<path class="st0" d="m119.8 31.7c0 7.5-5.2 12.9-12.7 12.9-6.9 0-12.3-4.9-12.3-12.4 0-7.6 5.7-13 12.8-13 6.7 0 12.2 5.1 12.2 12.5m-13-10.7c-4 0-6.9 3.8-6.9 10.4 0 5.5 2.5 11.4 7.8 11.4s6.9-5.5 6.9-10.2c0-5.1-2-11.6-7.8-11.6"/>
<path class="st0" d="m126.3 26.5c0-2.3 0-2.6-1.6-3.7l-0.5-0.4c-0.2-0.2-0.2-0.9 0.1-1.1 1.4-0.5 4.6-2 6.1-2.9 0.3 0.1 0.5 0.2 0.5 0.4v3.5c0 0.3 0.1 0.5 0.2 0.5 2.1-1.7 4.4-3.6 6.6-3.6 1.5 0 2.7 1 2.7 2.4 0 2-1.6 2.8-2.6 2.8-0.6 0-0.9-0.2-1.3-0.4-0.9-0.6-1.8-1-2.6-1-1 0-1.7 0.5-2.2 1.2-0.6 0.8-0.8 2.6-0.8 4.6v8.2c0 4.3 0.1 5 2.4 5.2l2.2 0.2c0.4 0.3 0.3 1.3-0.1 1.5-2.8-0.1-4.6-0.2-6.7-0.2-2.2 0-4 0.1-5.5 0.2-0.4-0.2-0.5-1.2-0.1-1.5l1.1-0.2c2.2-0.4 2.3-0.9 2.3-5.2v-10.5"/>
<path class="st0" d="m152.7 44.7c-5.1 0-8.2-1.6-9.4-2.2-0.7-1.3-1.5-5.6-1.6-8.4 0.3-0.4 1.2-0.5 1.4-0.2 0.9 3.1 3.4 9 10.3 9 5.1 0 7.5-3.3 7.5-6.9 0-2.6-0.5-5.6-4.9-8.4l-5.7-3.7c-3-2-6.5-5.4-6.5-10.3 0-5.7 4.4-10.3 12.3-10.3 1.9 0 4 0.4 5.6 0.8 0.8 0.2 1.6 0.4 2.1 0.4 0.5 1.4 1.1 4.8 1.1 7.3-0.2 0.4-1.2 0.5-1.5 0.2-0.8-3.1-2.4-7-8.2-7-5.9 0-7.2 3.9-7.2 6.7 0 3.5 2.9 6 5.1 7.4l4.8 3c3.8 2.3 7.5 5.8 7.5 11.5 0.1 6.6-4.9 11.1-12.7 11.1"/>
<path class="st0" d="m189.2 20.3c0.5 0.4 0.9 1.4 0.9 2.4 0 1.1-0.6 2.2-1.3 2.2-0.3 0-0.6-0.1-0.8-0.4-1.3-1.6-3.5-3.2-6-3.2-4.2 0-8.3 3.3-8.3 9.7 0 4.7 3.2 10.3 9.7 10.3 3.5 0 5.3-1.6 6.7-3.6 0.5-0.1 1 0.3 1.1 0.8-2 4.5-6.6 6.1-10 6.1-3.2 0-6.1-1-8.2-3.1-2.1-2-3.5-5-3.5-8.9 0-6.5 4.6-13.4 14.6-13.4 1.1 0 3.5 0.3 5.1 1.1"/>
<path class="st0" d="m216.8 31.7c0 7.5-5.2 12.9-12.7 12.9-6.9 0-12.3-4.9-12.3-12.4 0-7.6 5.7-13 12.8-13 6.7 0 12.2 5.1 12.2 12.5m-12.9-10.7c-4 0-6.9 3.8-6.9 10.4 0 5.5 2.5 11.4 7.8 11.4s6.9-5.5 6.9-10.2c-0.1-5.1-2.1-11.6-7.8-11.6"/>
<path class="st0" d="m228.2 22.6c-1 0-1.1 0.2-1.1 1.4v11.2c0 3.5 0.4 6.7 4.4 6.7 0.6 0 1.1-0.1 1.6-0.3s1.3-0.8 1.5-0.8c0.5 0 0.7 0.7 0.6 1-1.1 1.3-3.2 2.8-6.3 2.8-5.2 0-6.3-2.9-6.3-6.5v-13.8c0-1.6-0.1-1.7-1.3-1.7h-1.7c-0.4-0.2-0.4-0.9-0.2-1.3 1.7-0.5 3.2-1.3 3.9-1.9 0.8-0.7 1.9-2.3 2.5-3.5 0.3-0.1 1-0.1 1.3 0.3v2.7c0 1.1 0.1 1.1 1.1 1.1h6.7c0.7 0.5 0.6 2.2 0.1 2.5h-6.8"/>
<path class="st0" d="m246.4 22.6c-1 0-1.1 0.2-1.1 1.4v11.2c0 3.5 0.4 6.7 4.4 6.7 0.6 0 1.1-0.1 1.6-0.3s1.3-0.8 1.5-0.8c0.5 0 0.7 0.7 0.6 1-1.1 1.3-3.2 2.8-6.3 2.8-5.2 0-6.3-2.9-6.3-6.5v-13.8c0-1.6-0.1-1.7-1.3-1.7h-1.7c-0.4-0.2-0.4-0.9-0.2-1.3 1.7-0.5 3.2-1.3 3.9-1.9 0.8-0.7 1.9-2.3 2.5-3.5 0.3-0.1 1-0.1 1.3 0.3v2.7c0 1.1 0.1 1.1 1.1 1.1h6.7c0.7 0.5 0.6 2.2 0.1 2.5h-6.8"/>
<path class="st0" d="m263.4 18.7c0-4.2 3.3-7.4 7.5-7.4 2.8 0 5.6 1.7 5.6 4.5 0 3-3 4.2-4.1 4.2-0.2 0-1.2 0-0.5-1 0.1-0.2 1-1.1 0.5-2.7-0.4-1.2-1.5-2.2-3.3-2.3-2.2-0.2-3.9 1.3-3.9 3.2 0 2 1.2 3.3 5.3 5.5 5.3 2.9 9.9 5.3 13.8 13.4 1.4-1.7 2-3.5 2-5.7 0-1.5-0.3-2.7-1.3-4.1-0.7-0.9-1.6-1.1-2.2-1.2s-1.7-0.2-3 0.9c-0.2 0.2-0.4 0.3-0.8 0.2s-0.5-0.7-0.4-1.4c0.3-2 2.4-3.6 5.3-3.6 0.8 0 2 0.2 3 0.4 1.2 0.2 1.9 0.3 2.3 0.3 0.7 0 1.1-0.1 1.4-0.6 0 0 0.2-0.3 0.4-0.3 0.5 0 0.7 0.4 0.7 0.4 0 2.2-1.3 3.5-4.2 4.3 0.7 1.4 0.9 2.4 0.9 3.9 0 2.9-1 5.3-3.3 7.8 1.8 3.3 3.5 4.6 6.5 4.6 0.6 0 1.1-0.1 1.6-0.2 0.6-0.2 0.8-0.2 1-0.2 0.3 0 0.4 0.1 0.4 0.4 0 1.1-2.5 2-5.8 2-3.1 0-4.7-0.7-7.3-3-4 2.3-6.5 3.1-10 3.1-7.3 0-12.9-4.7-12.9-10.8 0-6.4 4.8-8.7 6.9-9.6-1.5-1.7-2.1-3.1-2.1-5m3.7 6.4c-2.4 0.5-3.5 2-3.5 4.9 0 6.2 5.2 11.6 11 11.6 2.1 0 3.5-0.4 6.1-1.7-1-1.2-1.5-1.7-2.6-3.4l-1.3-1.9c-3.3-4.8-6-6.8-8.3-8.6l-1.4-0.9z"/>
<path class="st0" d="m286.4 5.3c-0.4-0.4-0.3-1.2 0.2-1.4 1.6 0.1 4.3 0.2 6.2 0.2 1.7 0 4.7-0.1 6.9-0.2 0.5 0.2 0.5 1 0.1 1.4l-1.4 0.1c-1.3 0.1-2 0.5-2 1 0 0.7 1.3 3.8 3.1 8.1 3.4 7.5 6.9 15 10.4 22.4 1.4-3 3.1-6.4 4.6-9.7 0.5-1.1 1-2.2 1-2.5s-0.2-0.8-0.5-1.6c-2.1-4.8-4.3-9.6-6.6-14.4-0.9-1.9-1.8-3.1-3.8-3.3l-1.4-0.1c-0.4-0.5-0.4-1.2 0.1-1.4 1.7 0.1 4 0.2 6.4 0.2 3 0 5.2-0.1 6.6-0.2 0.4 0.2 0.5 1 0.1 1.4l-1.6 0.1c-2.3 0.2-2.4 0.6-1.3 3.3 1.3 2.9 2.9 6.7 4.6 10.5 1.1-2.3 2.2-4.6 3.5-7.9 2.2-5.1 1.9-5.8-0.1-5.9l-1.8-0.1c-0.4-0.6-0.3-1.3 0.1-1.4 1.6 0.1 3.4 0.2 5.7 0.2 2 0 4.4-0.1 5.8-0.2 0.4 0.2 0.5 1 0.1 1.4l-1.7 0.1c-2.5 0.2-3.6 2.9-4.9 5.4-1.3 2.2-3.8 7.5-4.7 9.6-0.3 0.6-0.5 1.2-0.5 1.4s0.1 0.7 0.4 1.4c2 4.6 4.1 9.1 6.1 13.7 1.9-4.2 3.7-8.4 5.4-12.7 1.2-2.9 4.4-10.9 4.8-12 0.8-2.2 1.8-4.7 1.8-5.5s-0.7-1.3-2-1.4l-1.7-0.1c-0.5-0.5-0.4-1.2 0.1-1.4 2.3 0.1 3.9 0.2 5.8 0.2 2.3 0 4-0.1 5.6-0.2 0.5 0.2 0.5 1 0.1 1.4l-1.1 0.1c-3 0.3-3.5 2.1-7.2 10.5l-4.4 10.2c-2.6 6.1-5.1 12-7.5 18.5-0.2 0.1-0.4 0.2-0.7 0.2s-0.6-0.1-0.8-0.2c-1.9-5.4-5.4-12.9-7.3-17.1-2.2 4.4-5.8 12.1-7.5 17.1-0.2 0.1-0.4 0.2-0.7 0.2s-0.6-0.1-0.9-0.2c-1-2.5-3.4-7.9-4.1-9.7-3.9-8.4-7.6-16.7-11.5-25.1-1.1-2.5-1.9-4.1-4.4-4.3l-1.5-0.1"/>
<path class="st0" d="m344.5 9.9c0-3.8-0.3-4.3-1.1-4l-1.4-1.4c-0.3-0.2-2.3-0.4-1.5-0.4 4.8 0 5.9-2.1 8-3.3 0.2-0.1 0.6 0 0.6 0.4-0.1 1.8-0.2 4.8-0.2 7.5v12.6c0 0.5 0.1 1 0.2 1.1 2.2-1.7 5.1-3.1 8.1-3.1 5.7 0 7.8 3.5 7.8 7.8v10c0 4.3 0.1 5 2.3 5.2l1.6 0.2c0.4 0.3 0.3 1.3-0.1 1.5-2.2-0.1-3.9-0.2-6-0.2-2.2 0-4 0.1-5.6 0.2-0.4-0.2-0.5-1.2-0.1-1.5l1.2-0.2c2.2-0.4 2.3-0.9 2.3-5.2v-8.6c0-3.8-1.9-6.4-5.7-6.4-2 0-3.6 0.7-4.7 1.6s-1.3 1.2-1.3 3.3v10c0 4.3 0.1 4.9 2.3 5.2l1.3 0.2c0.4 0.2 0.3 1.3-0.1 1.5-1.8-0.1-3.5-0.2-5.7-0.2s-4 0.1-5.9 0.2c-0.4-0.2-0.5-1.2-0.1-1.5l1.5-0.2c2.2-0.2 2.3-0.9 2.3-5.2v-27.1"/>
<path class="st0" d="m374.5 26.5c0-2.3 0-2.6-1.6-3.7l-0.5-0.4c-0.2-0.2-0.2-0.9 0.1-1.1 1.4-0.5 4.8-2 6.2-2.9 0.3 0 0.5 0.1 0.6 0.4-0.1 2.1-0.2 5-0.2 7.5v10.7c0 4.3 0.1 4.9 2.3 5.2l1.3 0.2c0.4 0.3 0.3 1.3-0.1 1.5-1.8-0.1-3.5-0.2-5.7-0.2s-4 0.1-5.7 0.2c-0.4-0.2-0.5-1.2-0.1-1.5l1.3-0.2c2.2-0.3 2.3-0.9 2.3-5.2v-10.5m4.8-15.2c0 2.2-1.5 3.1-3.2 3.1-1.9 0-3.1-1.4-3.1-3 0-2 1.4-3.2 3.2-3.2 1.9 0 3.1 1.4 3.1 3.1"/>
<path class="st0" d="m393.4 22.6c-1 0-1.1 0.2-1.1 1.4v11.2c0 3.5 0.4 6.7 4.4 6.7 0.6 0 1.1-0.1 1.6-0.3s1.3-0.8 1.5-0.8c0.5 0 0.7 0.7 0.6 1-1.1 1.3-3.2 2.8-6.3 2.8-5.2 0-6.3-2.9-6.3-6.5v-13.8c0-1.6-0.1-1.7-1.3-1.7h-1.7c-0.4-0.2-0.4-0.9-0.2-1.3 1.7-0.5 3.2-1.3 3.8-1.9 0.8-0.7 1.9-2.3 2.5-3.5 0.3-0.1 1-0.1 1.3 0.3v2.7c0 1.1 0.1 1.1 1.1 1.1h6.7c0.7 0.5 0.6 2.2 0.1 2.5h-6.7"/>
<path class="st0" d="m407.4 28.4c-1.6 0-1.6 0.1-1.6 1.6 0 6.1 3.5 11.2 10 11.2 2 0 3.7-0.6 5.5-2.9 0.6-0.2 1 0.2 1.1 0.7-2 4.1-6.3 5.6-9.4 5.6-3.9 0-7-1.7-8.7-4-1.8-2.3-2.5-5.2-2.5-7.8 0-7.4 4.9-13.6 12.1-13.6 5.2 0 8.5 3.5 8.5 7.2 0 0.8-0.1 1.3-0.2 1.6-0.2 0.4-1 0.4-3.5 0.4h-11.3m3.7-1.8c4.5 0 5.8-0.2 6.3-0.6 0.2-0.1 0.4-0.4 0.4-1.1 0-1.7-1.1-3.8-4.6-3.8s-6.6 3.2-6.7 5.2c0 0.1 0 0.3 0.4 0.3h4.2z"/>
<path class="st1" d="m60 114.1v-14.6h6.9c3.1 0 4.7 1.2 4.7 3.6 0 1.4-0.7 2.4-2 3.1 0.9 0.2 1.5 0.7 2 1.3s0.7 1.4 0.7 2.4c0 1.4-0.5 2.5-1.5 3.2s-2.2 1.1-3.7 1.1h-7.1m3.2-12.2v3.4h3.3c0.6 0 1.1-0.1 1.4-0.4 0.4-0.3 0.5-0.7 0.5-1.3 0-1.1-0.7-1.7-2.2-1.7h-3zm0 5.6v4h3.4c1.6 0 2.4-0.6 2.4-1.9 0-1.4-0.8-2.1-2.3-2.1h-3.5z"/>
<path class="st1" d="m76.1 114.1v-14.6h7.9c1.3 0 2.3 0.4 3.1 1.2s1.2 1.7 1.2 2.9c0 1.8-0.8 3-2.3 3.7 1.3 0.3 2 1.5 2.1 3.4v0.6c0 0.3 0 0.6 0.1 0.8 0 0.2 0 0.4 0.1 0.7 0 0.3 0.1 0.5 0.2 0.8l0.3 0.6h-3.2c-0.1-0.3-0.2-0.6-0.3-1s-0.1-0.8-0.1-1.4c0-0.5-0.1-0.9-0.1-1.1-0.1-0.8-0.3-1.4-0.7-1.7s-0.9-0.5-1.7-0.5h-3.2v5.7h-3.4m3.2-12.2v4.1h3.5c1.5 0 2.2-0.7 2.2-2.1s-0.7-2-2.2-2h-3.5z"/>
<path class="st1" d="m91 114.1l5.6-14.6h3.3l5.5 14.6h-3.4l-1.1-3.3h-5.5l-1.1 3.3h-3.3m7.1-11l-1.9 5.4h3.8l-1.9-5.4z"/>
<rect class="st1" x="108.2" y="99.5" width="3.2" height="14.6"/>
<polyline class="st1" points="115.9 114.1 115.9 99.5 119.1 99.5 125.2 109.3 125.3 109.3 125.3 99.5 128.3 99.5 128.3 114.1 125.1 114.1 119 104.3 118.9 104.3 118.9 114.1 115.9 114.1"/>
<path class="st1" d="m138.5 114.1l5.6-14.6h3.3l5.5 14.6h-3.3l-1.1-3.3h-5.5l-1.1 3.3h-3.4m7.2-11l-1.9 5.4h3.8l-1.9-5.4z"/>
<polyline class="st1" points="155.8 114.1 155.8 99.5 159 99.5 165.1 109.3 165.1 109.3 165.1 99.5 168.2 99.5 168.2 114.1 164.9 114.1 158.8 104.3 158.8 104.3 158.8 114.1 155.8 114.1"/>
<path class="st1" d="m172.6 114.1v-14.6h6.3c2 0 3.6 0.6 4.8 1.9 1.2 1.2 1.8 3 1.8 5.4 0 2.2-0.6 4-1.7 5.4s-2.8 2-4.9 2h-6.3m3.2-12v9.2h2.9c1 0 1.9-0.4 2.6-1.1s1-1.8 1-3.3c0-1.6-0.3-2.8-1-3.6-0.6-0.8-1.7-1.2-3.3-1.2h-2.2z"/>
<path class="st1" d="m195.9 109.3h3.1c0 0.9 0.3 1.6 0.9 2s1.4 0.7 2.3 0.7c0.5 0 0.9 0 1.3-0.1s0.8-0.3 1.1-0.6 0.5-0.7 0.5-1.1c0-0.2 0-0.4-0.1-0.6s-0.2-0.3-0.4-0.5c-0.2-0.1-0.4-0.3-0.5-0.4-0.2-0.1-0.4-0.2-0.7-0.3s-0.6-0.2-0.8-0.2c-0.2-0.1-0.5-0.1-0.9-0.2s-0.7-0.2-0.9-0.2c-0.6-0.2-1.2-0.3-1.6-0.5s-0.9-0.4-1.4-0.7-0.8-0.7-1-1.2-0.3-1.1-0.3-1.7c0-0.9 0.3-1.8 0.8-2.5 0.6-0.7 1.2-1.2 2-1.5s1.7-0.5 2.6-0.5c1.1 0 2 0.1 2.9 0.5 0.8 0.3 1.6 0.8 2.1 1.5 0.6 0.7 0.9 1.6 0.9 2.7h-3.1c-0.1-1.5-1-2.2-2.9-2.2-0.6 0-1.1 0.1-1.5 0.4s-0.7 0.7-0.7 1.3c0 0.5 0.2 0.9 0.7 1.1s1.7 0.6 3.7 1.1c1.3 0.3 2.3 0.7 2.9 1.2 1 0.8 1.5 1.8 1.5 3.1 0 1.4-0.5 2.5-1.6 3.4s-2.6 1.3-4.5 1.3c-1.8 0-3.2-0.4-4.4-1.3-1.4-1-2-2.3-2-4"/>
<path class="st1" d="m211.8 114.1v-14.6h6.6c1.2 0 2.1 0.2 2.9 0.7s1.3 1 1.7 1.7c0.3 0.7 0.5 1.4 0.5 2.3 0 0.8-0.2 1.6-0.5 2.3s-0.9 1.2-1.7 1.7-1.8 0.7-2.9 0.7h-3.4v5.2h-3.2m3.2-12.1v4.4h2.5c0.9 0 1.6-0.2 2.1-0.5s0.8-0.9 0.8-1.7-0.3-1.4-0.8-1.7-1.2-0.5-2.1-0.5h-2.5z"/>
<rect class="st1" x="227.1" y="99.5" width="3.2" height="14.6"/>
<polyline class="st1" points="234.8 114.1 234.8 99.5 238 99.5 244.1 109.3 244.1 109.3 244.1 99.5 247.1 99.5 247.1 114.1 243.9 114.1 237.8 104.3 237.8 104.3 237.8 114.1 234.8 114.1"/>
<polyline class="st1" points="251.6 114.1 251.6 99.5 262.5 99.5 262.5 102.2 254.8 102.2 254.8 105.3 261.9 105.3 261.9 107.8 254.8 107.8 254.8 111.4 262.7 111.4 262.7 114.1 251.6 114.1"/>
<path class="st1" d="m286.7 104.4h-3.1c-0.1-0.7-0.5-1.3-1.1-1.8s-1.3-0.7-2.1-0.7c-0.9 0-1.7 0.2-2.3 0.7s-1 1.1-1.3 1.8-0.4 1.5-0.4 2.4c0 1.4 0.3 2.5 1 3.5 0.7 0.9 1.7 1.4 3 1.4 1 0 1.7-0.3 2.3-0.9s0.9-1.4 1-2.4h3.1c-0.2 1.8-0.8 3.3-2 4.4s-2.6 1.6-4.4 1.6c-2.2 0-4-0.7-5.2-2.2-1.3-1.4-1.9-3.3-1.9-5.4 0-2.2 0.6-4.1 1.9-5.5 1.3-1.5 3-2.2 5.3-2.2 1.7 0 3.1 0.5 4.3 1.4 1.1 1 1.7 2.3 1.9 3.9"/>
<polyline class="st1" points="290.7 114.1 290.7 99.5 301.6 99.5 301.6 102.2 293.9 102.2 293.9 105.3 301 105.3 301 107.8 293.9 107.8 293.9 111.4 301.8 111.4 301.8 114.1 290.7 114.1"/>
<polyline class="st1" points="305.6 114.1 305.6 99.5 308.8 99.5 314.9 109.3 315 109.3 315 99.5 318 99.5 318 114.1 314.8 114.1 308.7 104.3 308.6 104.3 308.6 114.1 305.6 114.1"/>
<polyline class="st1" points="325.7 114.1 325.7 102.2 321.3 102.2 321.3 99.5 333.3 99.5 333.3 102.2 328.9 102.2 328.9 114.1 325.7 114.1"/>
<polyline class="st1" points="336.6 114.1 336.6 99.5 347.6 99.5 347.6 102.2 339.9 102.2 339.9 105.3 346.9 105.3 346.9 107.8 339.9 107.8 339.9 111.4 347.7 111.4 347.7 114.1 336.6 114.1"/>
<path class="st1" d="m351.6 114.1v-14.6h7.9c1.3 0 2.3 0.4 3.1 1.2s1.2 1.7 1.2 2.9c0 1.8-0.8 3-2.3 3.7 1.3 0.3 2 1.5 2.1 3.4v0.6c0 0.3 0 0.6 0.1 0.8 0 0.2 0 0.4 0.1 0.7 0 0.3 0.1 0.5 0.2 0.8l0.3 0.6h-3.3c-0.1-0.3-0.2-0.6-0.3-1s-0.1-0.8-0.1-1.4c0-0.5-0.1-0.9-0.1-1.1-0.1-0.8-0.3-1.4-0.7-1.7s-0.9-0.5-1.7-0.5h-3.2v5.7h-3.3m3.2-12.2v4.1h3.5c1.5 0 2.2-0.7 2.2-2.1s-0.7-2-2.2-2h-3.5z"/>
<path class="st1" d="m174.4 148.7v-14.7h6.6c1.2 0 2.1 0.2 2.9 0.7s1.3 1 1.7 1.7c0.3 0.7 0.5 1.4 0.5 2.3 0 0.8-0.2 1.6-0.5 2.3s-0.9 1.2-1.7 1.7-1.8 0.7-2.9 0.7h-3.4v5.2h-3.2m3.2-12.1v4.4h2.5c0.9 0 1.6-0.2 2.1-0.5s0.8-0.9 0.8-1.7-0.3-1.4-0.8-1.7-1.2-0.5-2.1-0.5h-2.5z"/>
<polyline class="st1" points="189.7 148.7 189.7 134 192.9 134 192.9 145.9 200.1 145.9 200.1 148.7 189.7 148.7"/>
<path class="st1" d="m202 148.7l5.6-14.6h3.3l5.5 14.6h-3.3l-1.1-3.3h-5.5l-1.1 3.3h-3.4m7.1-11.1l-1.9 5.4h3.8l-1.9-5.4z"/>
<polyline class="st1" points="219.2 148.7 219.2 134 222.4 134 228.5 143.8 228.6 143.8 228.6 134 231.6 134 231.6 148.7 228.4 148.7 222.3 138.9 222.2 138.9 222.2 148.7 219.2 148.7"/>
<path class="st1" d="m235.4 141.4c0-2.2 0.6-4.1 1.9-5.5 1.3-1.5 3-2.2 5.3-2.2 2.2 0 4 0.7 5.3 2.2s1.9 3.3 1.9 5.5-0.6 4-1.9 5.4-3 2.2-5.2 2.2-4-0.7-5.2-2.2c-1.4-1.4-2.1-3.2-2.1-5.4m3.2 0c0 1.4 0.3 2.5 1 3.5s1.7 1.4 3 1.4 2.3-0.5 3-1.4c0.7-1 1-2.1 1-3.5 0-0.9-0.1-1.7-0.4-2.5-0.3-0.7-0.7-1.3-1.3-1.8s-1.4-0.7-2.3-0.7-1.7 0.2-2.3 0.7-1 1.1-1.3 1.8c-0.2 0.8-0.4 1.6-0.4 2.5z"/>
</svg>
