<?xml version="1.0" encoding="utf-8"?>
<!-- Generator: Adobe Illustrator 22.1.0, SVG Export Plug-In . SVG Version: 6.00 Build 0)  -->
<svg version="1.1" id="Isolation_Mode" xmlns="http://www.w3.org/2000/svg" xmlns:xlink="http://www.w3.org/1999/xlink" x="0px"
	 y="0px" viewBox="0 0 168.5 138" style="enable-background:new 0 0 168.5 138;" xml:space="preserve">
<style type="text/css">
	.st0{fill:#FFFFFF;}
	.st1{fill:#F04923;}
</style>
<path class="st0" d="M116.4,10.4c0,0.1,0,0.2,0,0.3c-0.3,1.3-1.1,2.3-1.6,3.6c-0.4,1-1.2,1.8-1.7,2.8c-0.7,1.2-1.4,2.4-2.1,3.6
	c-0.3,0.5-0.4,1-0.8,1.3c0,0,0,0.2,0.1,0.3c0.6-0.2,1.1-0.3,1.6-0.5c0.5-0.2,1-0.5,1.5-0.8c0,0,0.1,0.1,0.1,0.1
	c0.2-0.3,0.4-0.6,0.6-0.8h0.6c0.3-0.3,0.6-0.6,0.9-0.9c0.7,0.1,1-0.5,1.2-0.9c0.4-0.2,0.7-0.4,1-0.6c0.8-0.5,1.4-1.2,2-1.8
	c0.4-0.4,0.7-0.7,1.3-0.7c0.1,0,0.1-0.1,0.1,0c0.2-0.3,0.4-0.6,0.6-0.9c-0.2,0-0.3-0.1-0.4-0.1v-0.7c0.5-0.5,1.1-1.1,1.7-1.7
	c-0.1-0.7,0.3-1.2,0.8-1.6c-0.5-0.8-1.1-1-1.9-1c-1.5,0-3,0-4.6,0C117,9.8,116.7,10.1,116.4,10.4 M121.8,41.5
	c-0.3,0.2-0.5,0.4-0.7,0.5c-0.9,0.7-2,1.2-3.2,0.7c-0.4-0.2-0.9,0-1.3,0.1c-0.4,0.1-0.8,0.2-1.3,0c-0.3-0.2-0.6-0.1-1,0.1
	c-0.8-0.4-1.8-0.9-2.7-1.3c-0.3-0.1-0.5-0.2-0.9-0.2c0.1-0.2,0.2-0.4,0.3-0.6c-0.3-0.1-0.7-0.3-1-0.4v-1.2c-0.4-0.4-0.8-0.8-1.2-1.2
	c0.6-0.5,0.2-1-0.1-1.3c-0.7-1-1.2-2-1.8-3c-0.4-0.8-0.6-1.6-0.8-2.5c-0.2-0.6-0.5-1.1-1-1.7c-0.3,0.6-0.5,1.1-0.7,1.7
	c0,0,0.1,0.1,0.1,0.1c-0.4,1-0.9,2-1.4,3c-0.3,0.6-0.7,1.1-0.9,1.7c-0.7,1.5-1.2,3.1-1.8,4.6c-0.1,0.2-0.1,0.5-0.1,0.8
	c-0.5,0.5-1.1,0.6-1.7,0.5c-1.1-0.8-2.7-1.1-2.7-3c-0.1,0-0.3-0.1-0.4,0c-0.1,0-0.3,0.1-0.4,0.2c-0.1-0.2-0.3-0.4-0.5-0.6
	c0.2-1.1-0.8-1.6-1.4-2.3v-0.9c0.2-0.2,0.3-0.4,0.5-0.7c0.2-0.3,0.5-0.7,0.7-1c0.2-0.3,0.4-0.6,0.5-1c0.2-0.5,0.4-1.1,0.8-1.5
	c0.2-0.3,0.5-0.6,0.6-0.9c0.1-0.4,0.2-0.7,0.4-0.9c0.5-0.7,0.8-1.5,1.2-2.2c0.4-0.8,0.7-1.7,1-2.5c0.1-0.4,0.3-0.7,0.5-1.1
	c0.2-0.3,0.3-0.6,0.5-1c0.2-0.4,0.3-0.7,0.4-1.1c0.3-0.3,0.6-0.6,0.8-0.8c0.2-0.6,0.4-1,0.6-1.5v-0.8c0.7-0.3,0.5-1.4,1.4-1.6
	c-0.1-0.2-0.1-0.5-0.2-0.8c0.6-0.8,1.2-1.7,2-2.7c-0.3-0.1-0.4-0.2-0.8-0.3c-0.4,0.2-1.1,0.2-1.9,0.1c-0.1-0.1-0.2-0.2-0.4-0.4
	c0.1-0.2,0.2-0.4,0.3-0.7c-0.3,0-0.5-0.1-0.7-0.1c-0.1-0.2-0.3-0.5-0.5-0.8c0.3-0.9-0.5-1.6-0.8-2.6c1.2-0.1,1.9-1,2.9-1.4
	c0.2-0.5,0.7-0.3,1.1-0.5c0.5-0.2,1.1-0.2,1.6-0.3c1.3-0.2,2.7-0.4,4-0.8c0.3-0.4,0.9,0,1.3-0.3c0.3-0.3,0.8-0.4,1.2-0.5
	c0.1,0,0.1,0,0.2-0.1c1-0.1,2-0.2,3.1-0.2c0.5,0,1,0.1,1.6-0.2c0.3-0.1,0.9,0.2,1.1,0.1c0.5-0.3,0.7,0.1,1,0.1
	c0.6,0.1,0.9,0.6,1.5,0.6c0.5,0,1,0.3,1.5,0.5c0.5,0.2,0.9,0.5,1.4,0.7c1.2,0.5,2,1.4,2.7,2.4c0.1,0.2,0.4,0.3,0.7,0.6
	c0.3,0.5,0.7,1.2,1.1,1.9c0.6,1.2,1,2.4,0.8,3.7c-0.1,0.6-0.3,1.1-0.5,1.7c-0.5,1.3-1,2.5-2,3.5c-0.5,0.6-1.1,1.1-1.6,1.7
	c-0.7,0.8-1.6,1.3-2.5,2c-0.2,0.2-0.5,0.2-0.8,0.3c-0.3,0.1-0.6,0.2-0.8,0.4c-1,0.8-2.2,1.3-3.3,1.9c-1,0.6-2,1.2-2.8,2.1
	c0.4,0.6,0.6,1.3,0.5,2.1c-0.1,0.6,0.1,1.2,0.5,1.7c0.1,0.2,0.2,0.5,0.3,0.7c0.4,1.2,1,2.2,1.6,3.3c0.2,0.5,0.6,0.9,0.9,1.3
	c0.9,0.9,1.7,1.8,2.6,2.6c0.1,0.1,0.2,0.1,0.4,0.1C121.6,40.7,121.7,41.2,121.8,41.5"/>
<path class="st0" d="M86.2,19.5c0.4-0.6,0.6-1,0.9-1.4c-0.2-0.7-0.2-0.7,0-1.9c-0.2-0.1-0.4-0.3-0.6-0.5c-1.1,1.4-2.1,2.8-3.4,3.9
	c-0.2-0.1-0.4-0.2-0.7-0.3c0.1,0.3,0.2,0.5,0.3,0.7c-0.2,0.3-0.6,0.7-0.8,1c-0.5,0.7-1,1.4-1.5,2c-0.9,1.1-1.6,2.4-2.6,3.4
	c-0.3,0.2-0.4,0.6-0.7,1.2c0.6-0.1,1.1-0.2,1.6-0.3c0.1,0.1,0.3,0.3,0.5,0.4c0.5-0.1,0.8-0.2,1.3-0.3c0.5-0.4,0.9-1.1,1.7-1.4
	c0.2,0.1,0.4,0.2,0.6,0.3c-0.1,0.1-0.2,0.2-0.3,0.4h1.4c0.8-0.6,1.1-1.5,1.3-2.3c0.4-1.2,0.6-2.5,1.3-3.6c0.2-0.4,0.4-0.8,0.2-1.2
	C86.5,19.7,86.4,19.6,86.2,19.5 M91.6,31.3c-0.8,1.1-0.9,2.3-1.4,3.5c-0.6,1.4-1,2.9-1.6,4.3c-0.4,1-0.8,2.1-1.2,3.1
	c-0.2,0.4-0.3,0.9-0.5,1.3c-0.3,0.9-0.2,1.8-0.2,2.7c-0.3,0.3-0.5,0.5-0.8,0.8h-1.5c-0.5-0.4-1-0.8-1.5-1.2
	c-0.2,0.1-0.4,0.1-0.8,0.2c-0.2-0.3-0.4-0.8-0.8-1.1c-0.4-0.3-0.7-0.6-1-1c-0.1,0.1-0.3,0.3-0.5,0.5c-0.1-0.1-0.1-0.3-0.2-0.5
	c0.2-1-0.9-1-1.5-1.5c0-0.3-0.1-0.6-0.2-1c0.1-0.1,0.2-0.4,0.4-0.6c0.2-0.2,0.5-0.3,0.8-0.5c-0.1-0.2-0.1-0.3-0.2-0.5
	c0,0,0-0.1,0-0.1c0.8-0.7,1.1-1.7,1.4-2.7c0.2-0.8,0.7-1.4,0.9-2.2c-0.2-0.2-0.5-0.4-0.9-0.1c-0.4,0.2-0.8,0.3-1.3,0.3
	c-0.5,0-1,0.1-1.4,0.2c-0.9,0.2-1.9,0.4-2.8,0.5c-0.5,0.4-1.1,0.1-1.6,0.3c-0.5,0.3-1.1,0.1-1.6,0.2c-0.2,0-0.3,0.2-0.5,0.2
	c-0.1,0-0.3,0-0.5,0c-0.2,0.5-0.3,1-0.5,1.5c-0.1,0.3-0.3,0.6-0.4,0.9c-0.2,0.4-0.6,0.8-0.7,1.2c-0.1,0.3-0.1,0.5-0.3,0.8
	c-0.2,0.2-0.3,0.6-0.4,0.9c-0.1,0.3-0.2,0.6-0.3,1c-1.6,0.2-2.9-0.6-4.2-1.3c-0.2-0.1-0.4-0.3-0.6-0.4c-0.5-0.4-0.8-0.9-1.2-1.8
	c-0.2-0.2-0.5-0.3-0.7-0.5c0.7-1.1,1.4-2.1,2-3.2c0.6-1.1,1.2-2.1,1.8-3.2c-0.2-0.4-0.4-0.9-0.7-1.3c0.1-0.5,0.5-0.8,1.1-1
	c0.5-0.2,0.9-0.5,1.4-0.7c0.6-0.2,1-0.7,1.2-1.3c0.6-1.4,1.7-3,2.6-4c0.4-0.5,0.8-1,1.2-1.6c0.6-1.2,1.3-2.3,2.3-3.2
	c1-1,1.9-2.1,2.9-3.2c1-1.2,2.1-2.4,3.4-3.3c0.4-0.3,0.7-0.8,1-1.2c0.9-0.9,1.8-1.9,3-2.6c0.6-0.9,1.5-1.3,2.4-1.7
	c0.5-0.2,1.1-0.4,1.6-0.6c0,0.1,0,0.2,0.1,0.3c0.1,0,0.1,0.1,0.2,0.1c0.5,0.1,1-0.1,1.4-0.3c0.6-0.4,1.2-0.3,1.9-0.4
	c-0.1,0.2-0.2,0.4-0.3,0.6c0.6,0.1,1.1,0.2,1.7,0.3c0.5,0.1,1,0.1,1.5,0.2c0.7,0.2,1.4,0.4,1.8,1.2c0.1,0.3,0.3,0.5,0.4,0.8
	c0.1,0.4,0.1,0.9,0.2,1.4c0,0.2-0.2,0.6-0.1,0.9c0.5,1.2,0.2,2.3-0.1,3.4c-0.2,0.8-0.5,1.6-0.4,2.5c-0.3,0.2-0.5,0.4-0.8,0.6
	c0.1,0.2,0.2,0.3,0.2,0.3c-0.2,0.5-0.5,0.9-0.6,1.3c-0.6,1.8-1,3.6-1.9,5.3c-0.1,1.1-0.8,2.1-1,3.2c-0.1,0.4-0.3,0.9-0.5,1.3
	C91.6,30.3,91.6,30.8,91.6,31.3"/>
<path class="st0" d="M45.2,36.5c0.1,0,0.1,0.1,0.2,0.1c0.4-0.4,0.8-0.8,1.2-1.2c0.1,0,0.2,0,0.4,0c0.1-0.2,0.1-0.3,0.2-0.4
	c0.3,0,0.5,0,0.5,0c1.2-0.9,2.2-1.6,3.3-2.3c0.2-0.1,0.5-0.2,0.5-0.4c0-0.5,0.5-0.6,0.8-0.7c0.5-0.2,0.9-0.6,1.1-1
	c0.1-0.2,0.2-0.3,0.3-0.5h0.4c0.3-0.4,0.4-0.8,0.7-1.1c1-0.9,1.6-2,2.2-3.2c0.5-0.9,1-1.8,1.3-2.7c0.1-0.4,0.3-0.9,0.6-1.5
	c0,0,0-0.3,0-0.6c0.1-0.7-0.2-1.3-0.7-1.8c-0.7-0.7-1.5-1.1-2.3-1.7c-0.9-0.7-2-0.9-2.6-1.7c-0.8-0.3-1.4-0.5-2-0.8
	c-0.1,0.1-0.3,0.2-0.5,0.3c0,0.3-0.1,0.7,0,0.9c0.5,0.8,0.1,1.5-0.1,2.2c-0.3,1-0.8,1.9-1.2,2.9c-0.2,0.4-0.2,0.8-0.4,1.1
	c-0.4,0.7-0.7,1.5-1.1,2.2c-0.6,1.1-1,2.4-1.8,3.3c-0.9,2-2.2,3.9-3.2,5.9c-0.7,1.3-1.4,2.7-2,4.2c0.8-0.1,1.5-0.2,2.2-0.6
	C43.8,37,44.5,36.8,45.2,36.5 M35.2,46.6c-0.2-0.3-0.5-0.7-0.7-1c0.1-0.1,0.2-0.3,0.3-0.4c-0.4-0.5-0.8-1-1.2-1.5
	c0.2-1.1-0.8-2.1-0.4-3.3c-0.4-0.2-0.8-0.3-1.2-0.5c0.2-0.6-0.2-1.1-0.5-1.6c0.1-0.2,0.2-0.4,0.3-0.6h0.9c0.1-0.2,0.3-0.3,0.4-0.4
	c-0.4,0-0.7-0.1-1.1-0.1c0.3-0.3,0.4-0.4,0.6-0.5c-0.1-0.1-0.1-0.2-0.2-0.2c0.4-0.8,0.8-1.5,1.3-2.4c0.2-0.1,0.6-0.1,0.6-0.6
	c-0.1,0-0.2-0.1-0.4-0.1c0,0,0-0.1,0-0.1c0.6-0.6,1-1.4,1.5-2.1c0.3-0.4,0.2-1.1,0.3-1.7c0.5-0.5,1.1-1.1,1.5-1.5
	c0.5-1,0.9-1.7,1.3-2.4c-0.3-0.1-0.4,0.2-0.5,0.3c-0.1,0.1-0.1,0.3-0.3,0.5c-0.2,0.2-0.3,0.5-0.6,0.2c0,0,0-0.1,0-0.1
	c0.6-0.8,1.2-1.5,1.7-2.3c0.7-0.1,0.5-0.8,0.9-1.2c0.3-0.3,0.7-0.7,0.7-1.2c0-0.1,0.2-0.3,0.3-0.4c0.2-0.3,0.2-0.6-0.1-0.8
	c0.2-0.1,0.4-0.3,0.5-0.4c-0.3-0.7-0.3-1.2,0-1.5c0.8-0.6,0.8-1.5,1.1-2.2c0.1-0.2,0.1-0.4,0.2-0.6c0.2-0.5,0.5-1,0.7-1.4
	c-0.1-0.7-0.8-0.8-1.1-1.3c-0.3-0.5-0.6-0.9-1-1.5v-0.9c-0.2-0.1-0.4-0.2-0.5-0.3c0-0.2,0-0.2,0.1-0.3c0.6-0.6,0.8-0.7,1.7-0.8
	c0.1-0.1,0.3-0.3,0.4-0.5c0.9,0.1,1.7-0.3,2.5-0.2c0.8,0.1,1.6,0.1,2.4,0c1.5-0.1,2.8,0.4,4.2,0.8c0.4,0.1,0.8,0.3,1.2,0.4
	c0.7,0.2,1.4,0.6,2,1c0.4,0.3,0.9,0.4,1.3,0.8c0.5,0.5,1.2,1,1.5,1.6c0.6,0.9,1.6,1.5,1.9,2.6c1,1.2,1.8,2.6,2.7,3.9
	c0.2,0.3,0.4,0.6,0.5,1c0.2,0.4,0.5,0.9,0.5,1.3c0,0.6,0.7,0.7,0.5,1.2c0.5,0.7,0.3,1.5,0.2,2.1c-0.1,0.5-0.1,1-0.2,1.5
	c0,0.5-0.1,1,0,1.5c0.2,1.3-0.4,2.4-0.8,3.6c-0.1,0.5-0.5,0.9-0.8,1.3c-0.6,0.8-1.1,1.7-1.9,2.4c-0.4,0.3-1,0.4-1.1,1
	c-0.6,0.1-0.8,0.7-1.2,0.9c-0.5,0.2-0.9,0.6-1.3,0.9c-0.4,0.3-0.8,0.7-1.2,1c-0.4,0.3-0.8,0.6-1.3,0.8c-0.3,0.2-0.7,0.4-1.1,0.6
	c-0.6,0.2-1.1,0.6-1.4,1c-0.8,1.1-2,1.6-3.3,2c-1.4,0.4-2.6,1.2-4.1,1.4c-0.8,0.8-1.9,0.5-2.9,0.9c-0.3,0.1-0.5,0.2-0.8,0.3
	c-0.3,0.1-0.7,0.2-1,0.2c-0.4,0.1-0.7,0.3-1.2,0.2c-0.6,0-1.1,0.3-1.8,0.2C36.4,46.6,35.8,46.6,35.2,46.6"/>
<path class="st0" d="M131.5,42.4c-0.4-0.3-0.7-0.6-1-0.7c-1-0.4-1.7-1.2-2.4-2c-0.3-0.3-0.6-0.8-0.7-1.2c-0.1-0.7-0.5-1.1-1-1.6
	c-0.3-0.3-0.6-0.6-0.8-0.8c-0.2-0.6-0.4-1.2-0.6-1.7c-0.3-0.7-0.7-1.3-0.3-2.2c0.2-0.5-0.1-1.2,0.3-1.8c-0.1-1.1,0.5-1.9,0.9-2.8
	c0.1-0.2,0.3-0.5,0.3-0.7c0-0.4,0.3-0.7,0.4-1c0.6-1.4,1.4-2.6,2.2-3.9c0.5-0.8,1.1-1.6,1.6-2.5c0.7-1.3,1.4-2.5,2.3-3.7
	c0.3-0.4,0.5-0.9,0.8-1.3c0.3-0.4,0.7-0.8,1-1.2c0.4-0.5,0.7-0.9,1.2-1.5v-0.8c-0.2-0.3-0.4-0.6-0.7-1c0.1-0.8-0.1-1.6-0.8-2.2
	c0.4-0.3,0.8-0.1,1.2-0.2c0.9-0.9,2-1.3,3.1-1.8c0.6-0.3,1.4-0.4,2-0.9c0.3-0.2,0.8-0.1,1.2-0.3c0.3-0.1,0.5-0.6,1-0.3
	c1.1-0.6,2.4-0.8,3.7-1.4c1.1,0.1,2.4-0.4,3.8-0.2c0.5-0.3,1-0.3,1.5-0.2c1.3,0.3,2.6,0.1,3.8,0.7c0.1-0.1,0.2-0.2,0.3-0.2
	c0.2,0.1,0.3,0.3,0.5,0.4c0.1-0.1,0.2-0.2,0.2-0.2c0.5,0.1,1,0.2,1.6,0.3c-0.1,0.2-0.1,0.3-0.2,0.5c0.6,0.4,1.2,0.7,1.8,1.1
	c-0.1,0.1-0.2,0.2-0.2,0.2c0.1,0.1,0.1,0.3,0.2,0.5c-0.8,0.9-1.8,1.1-2.9,1.1c-0.2,0.5-0.6,0.7-1.1,0.7c-0.7,0.1-1.5,0.1-2.2,0.2
	c-0.7,0.1-1.4,0.3-2.1,0.5c-0.4,0.1-0.7,0.3-1.1,0.5c-0.1-0.1-0.2-0.2-0.3-0.3c-0.3,0.4-0.7,0.4-1.2,0.5c-0.8,0.1-1.6,0.3-2.4,0.8
	v0.9c-0.3,0.5-0.6,0.9-0.9,1.4c-0.5,0.8-1.2,1.5-1.6,2.4c-0.7,1.2-1.6,2.1-2.4,3.1c0.1,0.1,0.2,0.2,0.3,0.3c1-0.4,2-0.7,3.1-1.1
	c0,0,0.1,0.1,0.2,0.2c0.1-0.1,0.2-0.3,0.4-0.5c0.3,0,0.8,0.1,1,0c0.3-0.3,0.7-0.2,1-0.2c0.3,0,0.6,0,1-0.2c0.3-0.1,0.7,0,0.8,0
	c0.9,0.4,1.5,0.7,2.3,1.1c0.2,0.2,0,0.9,0.8,0.9c-0.2,0.7-0.9,0.9-1.1,1.5c-0.2,0.6-1.1,0.4-1.4,1c0.1,0.1,0.1,0.2,0.2,0.4
	c-0.3,0.4-0.7,0.7-1.3,0.8c-0.6,0.1-1.1,0.5-1.7,0.5c-0.1,0-0.2,0.2-0.4,0.2c-0.5,0.3-0.9,0.6-1.4,0.8c-0.6,0.2-1.1,0.6-1.6,0.9
	c-1,0.6-2.2,0.8-3.2,1.3c-0.2,0.1-0.3,0.2-0.4,0.3c-0.2,0.3-0.7,0.3-1.1,0.5c0,0.1-0.1,0.2-0.1,0.4c-0.1-0.1-0.1-0.1-0.2-0.2
	c-0.1,0.2-0.2,0.4-0.3,0.5c-1-0.1-1.9-0.2-2.8-0.3c-0.2,0.4-0.4,0.8-0.6,1.1c-0.7,1.6-2.1,3-2.5,4.8c0,0.2-0.3,0.3-0.4,0.4
	c-0.2,0.3-0.4,0.6-0.4,1c0,0.3-0.2,0.6-0.2,1c0,0.3,0,0.7,0,1c0,0.2-0.2,0.3-0.3,0.5c0.1,0.1,0.2,0.2,0.3,0.4
	c1.1,0.2,2.2-0.1,3.2-0.6c0.9-0.4,1.7-0.7,2.6-1.1c0.5-0.2,1-0.5,1.5-0.7c0.5-0.2,1-0.5,1.5-0.7c0.5-0.2,0.9-0.5,1.3-0.7
	c0.6-0.3,1.2-0.4,1.7-0.8c0.5-0.4,1-0.5,1.5-0.8c0.8-0.4,1.5-0.9,2.3-1.1c1.2-0.4,2.2-1.4,3.6-1.5c0.3-0.5,0.9-0.4,1.5-0.7
	c0.2,0.2,0.4,0.4,0.8,0.6c0,0,0.2,0,0.4,0c-0.1,0.1-0.1,0.2-0.2,0.5c0.3-0.1,0.6-0.1,0.9-0.2c0.2,0.2,0.4,0.6,0.7,1
	c-0.5,0.7-0.9,1.5-1.5,2.2c-0.5,0.7-1.1,1.3-1.7,2c-0.9,1-2.1,1.7-3.3,2.5c-1,0.7-2.1,1.3-3.1,2c-0.4,0.3-0.8,0.5-1.2,0.7
	c-1.4,0.7-2.6,1.7-4.1,2.1c-0.6,0.2-1,0.6-1.7,0.7c-0.3,0-0.6,0.4-0.9,0.4c-0.8,0.1-1.6,0.3-2.5,0.3c-0.6,0-1.2-0.1-1.7-0.4
	C132.3,42.4,131.9,42.4,131.5,42.4"/>
<path class="st0" d="M107.1,62.5c-0.5,0.5-1,1.3-1.7,1.7c-1.5,0.8-1.6,1.4-3.3,3.7c-0.3,0.4-0.6,0.8-0.6,1.3
	c-0.1,1.1-0.8,1.9-1.2,2.9c-0.4,1-0.8,2-1.4,2.9c-0.1,1.3-0.2,2.7-0.3,4c0.3,0.3,0.5,0.4,0.6,0.5c0.8-0.3,1.5-0.6,2.2-0.7
	c0.7-0.1,1.3-0.4,1.7-0.9c0.3-0.3,0.6-0.8,1-0.9c1.7-0.5,2.7-1.9,4-2.9c1.4-1.1,1.7-5.6,2.5-6.7c0.2-0.3,0.3-0.7,0.3-1
	c0.3-1.8,0-3.7,0.5-5.5c0-0.1,0-0.3,0-0.3c-0.6-0.5-0.2-1.3-0.5-2c-0.5-0.2-1.2-0.4-1.7-0.6c-0.8,0.5-1.6,1-2.4,1.5
	c0,0.3,0,0.5,0,0.7c0.3,0.3,0.5,0.5,0.7,0.7C107.3,61.6,107.2,62,107.1,62.5 M96.3,59.6c0.6-0.8,1.2-1.5,1.8-2.4c1,0.1,2-0.3,3,0.3
	c0.6-0.7,1.4-0.4,2.2,0c0.1-0.3,0.1-0.5,0.1-0.7c-0.3-0.1-0.5-0.2-0.7-0.3c0.5-0.9,0.2-2.1,1-2.7c1.1-0.2,2-0.4,2.9-0.6
	c0-0.3,0.1-0.6,0.1-0.9c0.4,0,0.8,0,1.1,0c1.3,0.5,2.4,1.3,3.7,1.5c0.5,0.1,1,0.4,1.4,0.6c0.4,0.2,0.8,0.6,1.2,0.8
	c1.7,0.8,2.6,2.5,3.7,3.8c0.1,0.7,0.2,1.3,0.4,2.1c0,0-0.1,0.1-0.3,0.4c0.1,0.2,0.3,0.4,0.5,0.7c-0.2,0.4-0.4,0.8-0.7,1.4
	c0,1.1,0.2,2.5,0.1,3.8c-0.2,1.2-0.8,2.3-1.1,3.4c0.1,0.7-1.8,8.2-3.1,9.5c-0.7,0.7-1.5,1.2-2.3,1.7c-1.3,1-3.8,2.4-5.2,2.7
	c-1.5,0.3-3,0.7-4.5,0.5c-0.7-0.1-1.4-0.5-2.2-0.8c-0.5-0.2-1.1-0.3-1.9-0.6c-0.3-0.2-0.9-0.5-1.4-0.9c-0.8-0.7-1.5-1.6-2.2-2.4
	c-0.3-0.3-0.5-0.8-0.8-1c-1.1-0.4-1.6-1.3-2.1-2.3c0-0.1-0.2-0.2-0.2-0.2c-0.1-0.7,0.1-1.5-0.4-2.2c-0.1-0.1,0.2-0.5,0.2-0.7
	c0-0.2-0.1-0.4-0.1-0.6c0-0.2,0.1-0.4,0.2-0.6c0.1-0.3,0.1-0.5,0.2-0.8c0.4-1.4,0.9-2.8,1.6-4.1c0.4-0.7,0.6-1.5,0.9-2.3
	c0.5-1,1.1-2,1.6-3C95.2,62.3,95.6,60.4,96.3,59.6"/>
<path class="st0" d="M81,59.6c-0.6,0,1.8-2.9,2.4-3.3c0.6-0.3,1-0.5,1.6-0.9c0.3-0.2,0.8,0.1,1-0.4c1.2,0-0.5,0.7,0.7,0.8
	c0.3-0.3,0.6-0.5,1-0.8c0.2,0,0.6-0.1,0.9,0c0.3,0.1,0.4-0.3,0.8-0.2c0.2,0.1-1.2,4.7-1.8,5.6c-0.4,1.4-2.8,5.3-3.4,6.8
	c-0.5,1.2-1.5,2.1-1.8,3.4c-0.8,0.8-1,2-1.7,2.8c-0.1,0.1-0.1,0.2-0.1,0.3c-0.4,1.2-0.5,0.7-1,1.8c-0.2,0.4-0.4,0.7-0.5,1.1
	c-0.3,0.6-0.7,1.2-1.1,1.8c-0.1,0.2-0.1,0.4-0.3,0.8c-0.7,0.9-0.6,0.6-1.2,1.8c-0.4,0.8-0.9,1.5-1.3,2.3c-0.1,0.2-0.2,0.5-0.3,0.8
	c-0.3,0.1-0.7,0.3-1.2,0.5c-0.1,0-0.3-0.1-0.5-0.2c0-0.2-0.1-0.4-0.1-0.6c-0.2,0.1-0.3,0.2-0.6,0.4c-0.1-0.4-0.1-0.7-0.2-1
	c-0.3,0-0.5,0-0.8,0.1c-0.2-0.5-0.3-0.9-0.5-1.4c-0.2,0.1-0.4,0.2-0.6,0.3c-0.1,0-0.2-0.1-0.2-0.1c0-0.9,0-1.6-0.4-2.4
	c-0.1-0.2,0-0.4,0-0.6c0-0.2,0.1-0.4,0.1-0.7c0.2,0,0.3,0.1,0.6,0.2c0.8-0.2,1-1,1.3-1.7c0.8-1.3,0.7-1.2,1.3-2.6
	c0.5-1,0.1-0.5,0.8-1.5c0.4-0.6,0.6-1.3,0.9-2c0.7-1.5,4.8-9,5.7-10.3C80.7,60.2,81,59.9,81,59.6"/>
<path class="st0" d="M73.7,63.2c-0.9,0.3-1.9,0.5-2.8,0c-0.1-0.1-0.4,0-0.7,0c-0.2-0.2-0.4-0.7-0.8-0.9c-0.4-0.2-0.5-0.6-0.8-0.9
	c0-0.8,0-1.6,0.1-2.5c-0.2-0.1-0.3-0.3-0.5-0.5c0-0.3,0-0.6,0-0.9c0-0.2-0.1-0.4-0.2-0.9c0.4,0.3,0.7,0.5,1,0.7c0.5,0,1.1,0,1.8,0.1
	c0.4-0.2,0.9-0.5,1.4-0.7c0.7-0.1,1.4-0.1,2-0.3c0.8-0.3,2.7-0.4,3.5-0.8c0.7-0.3,1.5-0.4,2.2-0.7c0.4-0.2,0.9,0.2,1.2-0.3
	c1.4,0.1,8-1.5,9.4-1.3c0.4-0.3,0.8-0.5,1.2-0.8c0.3,0,0.7-0.1,1.1,0.1c0.3,0.1,0.5-0.3,0.9-0.1c0.3,0.1,0.7-0.1,1.1-0.1
	c0.3-0.1,0.7-0.2,1-0.3c0.3,0.2,0.6,0.4,1,0.6c0.1,0,0.2-0.1,0.3-0.2c0.8,0.1,1.2,0.7,1.7,1.3c0,0.2,0,0.6,0,0.9
	c0.4,0.2,0.9,0.3,1.4,0.5c0.4,0.9,0.9,1.9,1.4,3c-0.2,0.4-0.4,0.7-0.6,1c-0.9,0-1.9-0.2-2.7,0c-0.9,0.2-1.8,0.2-2.8,0.2
	C94.8,59.8,74.2,63,73.7,63.2"/>
<path class="st0" d="M108.5,133.1c-0.1-0.1-0.1-0.1-0.2-0.2c-0.6,0.5-1.3,0.6-1.9,0.7c-0.7,0.1-1.5,0.1-2.2,0
	c-0.3,0-0.6-0.1-0.8-0.3c-0.5-0.4-1-0.5-1.4-0.4c-0.7-0.4-1.2-0.7-1.7-1.1c-0.5-0.3-1-0.7-1.6-1.1c0,0,0-0.1,0-0.1
	c-0.6-0.8-1-1.8-1.4-2.7c-0.1-0.3-0.4-0.7-0.6-0.8c-0.8-0.2-0.8-0.9-1-1.5c-0.1-0.4-0.2-0.7-0.5-1c0.1-0.1,0.2-0.2,0.2-0.2
	c-0.2-0.2-0.3-0.3-0.5-0.5c0.4-1.1,0.4-2.3,0.7-3.4c0.5-1.9,1.3-3.6,2.2-5.3c0.8-1.4,1.7-2.8,2.6-4.2c0.8-1.3,1.7-2.5,2.5-3.8
	c0.2-0.3,0.4-0.7,0.7-1c0.7-0.8,1.1-1.9,2-2.6c0.4-0.3,0.6-0.8,1.1-1.3c0.3-0.7-0.8-1.2-0.7-2c-2.2,0.3-4.4,0.3-6.7,0.9
	c-0.2,0.2-0.4,0.5-0.7,0.8c-0.2,0.4-0.3,0.9-0.6,1.4c-0.6,0.9-1,2-1.7,2.9c-0.1,0.1-0.1,0.2-0.1,0.3c-0.5,1.3-1.4,2.4-2.1,3.5
	c-0.3,0.5-0.6,1.1-0.9,1.6c-0.6,1.1-1.3,2.1-2,3.2c-0.6,1-1.1,2.1-1.7,3.1c-0.4,0.8-0.9,1.5-1.3,2.2c-0.6,1-1,2.2-1.9,3.1
	c-0.3,1.3-1.3,2.1-2,3.2c-0.3,0.4-0.4,0.8-0.6,1.3c-0.3,0.6-0.7,1.2-1.2,1.9c0,0.1-0.1,0.3-0.2,0.4c-0.5,0.6-1,1.2-1.2,2.1
	c-0.2,0.5-0.7,0.8-1.3,0.9c-0.2,0-0.5,0-0.8,0c-0.1-0.3-0.2-0.5-0.3-0.9h-0.8c-0.1-0.3-0.2-0.6-0.4-1h-0.7c-0.3-0.3-0.5-0.5-0.9-0.9
	c0-0.2,0.1-0.5,0.2-0.8c-0.1-0.1-0.2-0.2-0.3-0.3c-0.2,0.2-0.4,0.4-0.7,0.7c0-0.8,0-1.5-0.2-2.1c0-0.1,0-0.3,0-0.3
	c-0.8-0.9-0.3-1.9-0.5-2.7c0.2-0.2,0.3-0.3,0.4-0.4c0.3,0.1,0.6,0.2,0.9,0.3c0.6-0.5,0.9-1.2,1.3-1.8c0.7-1,1.2-2.1,1.9-3.2
	c0.7-1.1,1.2-2.3,1.8-3.4c0.9-1.7,1.7-3.3,2.7-5c0.2-0.4,0.3-0.8,0.5-1.2c0.8-1.6,1.6-3.1,2.6-4.7c0.1-0.2,0.2-0.4,0.3-0.6
	c-0.2-0.2-0.4-0.4-0.6-0.6c-0.6,0.4-1.5,0.3-2.1,1c-0.1-0.1-0.2-0.2-0.3-0.3c-0.1,0.1-0.2,0.3-0.3,0.4h-1.3
	c-0.2-0.2-0.4-0.4-0.6-0.6h-0.7c-0.5-0.4-1.2-0.8-1.5-1.3c-0.5-0.9-0.6-1.9-0.5-3c-0.2-0.3-0.5-0.7-0.7-1c0,0,0.1-0.1,0.2-0.2
	c0.1-0.5-0.8-0.6-0.4-1.3c0.4,0.3,0.8,0.6,1.3,0.9h1c0.3-0.2,0.5-0.3,0.8-0.5c0.1,0,0.2,0,0.3-0.1c0.9-0.5,1.8-0.6,2.8-0.9
	c1.1-0.3,2.3-0.4,3.4-0.9c0.1-0.1,0.3,0,0.4-0.1c0.7-0.7,1.5-0.6,2.3-0.8c0.9-0.2,1.9-0.3,2.7-0.9c0.9,0,1.9-0.2,2.8-0.5
	c0.3-0.1,0.6-0.2,0.9-0.4c0.4-0.3,0.8-0.4,1.2-0.5c0.4-0.1,0.8,0,1.3,0c0.4,0,0.7-0.2,1.1-0.2c0.5-0.1,1.1-0.2,1.5-0.3
	c0.4,0.2,0.6,0.3,0.8,0.4c0.4-0.3,0.8-0.3,1.3,0.1c0.3,0.3,0.7,0.5,1.2,0.9v1c0.6,0.3,1.2,0.5,1.8,0.8c0.2,0.3,0.4,0.7,0.7,1.1
	c0.3,0,0.6,0,0.9-0.2c0.5-0.3,1-0.5,1.6-0.7c0.5-0.3,1.1-0.5,1.6-0.6c0.6-0.1,1.2-0.4,1.8-0.7c0.6-0.2,1.1-0.5,1.7-0.6
	c1-0.2,1.9-0.3,2.8-0.7c0.2-0.1,0.4,0.3,0.8,0c0.2-0.2,0.6,0,0.9-0.2c0.2-0.1,0.6,0,0.9,0c1,0,1.9,0,2.9,0c0.3,0,0.6,0.1,0.9,0.2
	c0.1,0,0.4-0.3,0.6-0.2c0.5,0.3,1.1,0.4,1.7,0.5c0.7,0.2,1.5,0.5,2.4,0.5c-0.1,0.2-0.2,0.4-0.2,0.6c0.5,0.4,1.1,0.6,1.8,0.9
	c0.1,0.3,0.1,0.6,0.2,1c-0.6,0.6-1.5,0.9-2.4,1.2c0,0-0.1-0.1-0.2-0.2c-0.4,0.2-0.8,0.5-1.2,0.8c-0.1-0.1-0.2-0.2-0.4-0.3
	c-0.7,0.4-1.5,0.2-2.3,0.2c-0.1,0.1-0.3,0.3-0.4,0.4c-2.2,0.5-4.3,0.7-6.5,1.6c0.1,0.9-0.3,1.7-1,2.4c-0.7,0.8-1.3,1.6-1.8,2.5
	c-0.3,0.5-0.7,0.9-1,1.3c-0.3,0.5-0.8,1-1.3,1.6c0.3,0,0.5,0,0.7,0c0.6-0.1,1.2-0.3,1.8-0.5c0.3-0.1,0.5-0.3,0.8-0.4
	c0.1,0.1,0.1,0.1,0.2,0.2c0.3-0.4,0.7-0.5,1.2-0.5c0.4,0,0.7-0.2,1.1-0.2c0.3,0,0.7,0,1,0c0.2,0,0.4-0.2,0.5-0.2
	c0.7-0.1,0.9,0.5,1.3,0.7c0.5,0.1,1,0.3,1.4,0.5c0.2,0.4,0.4,0.8,0.5,1.1c-0.4,0.5-0.8,1-1.2,1.6c-0.3,0.1-0.7,0.2-1.1,0.4
	c0.1,0.2,0.1,0.3,0.2,0.5c-0.1,0.1-0.1,0.3-0.2,0.5c-0.5,0.2-1,0.4-1.5,0.5c-0.8,0.2-1.5,0.3-2.1,1c-0.1,0.1-0.3,0.2-0.5,0.3
	c-0.4,0.1-0.8,0.2-1.1,0.4c-0.4,0.2-0.8,0.3-1.1,0.5c-1.2,0.8-2.7,0.9-3.9,1.8c-0.8,0.6-1.8,0.9-2.8,0.7c-0.4-0.1-0.9-0.2-1.2-0.2
	c-0.7,1.1-1.3,2.3-2,3.4c-0.8,1.2-1.5,2.4-1.9,3.8c-0.2,0.6-0.4,1.2-0.4,1.9c0,0.2-0.1,0.5-0.2,0.9c0.1,0,0.3,0.1,0.5,0.2
	c1.3,0.3,2.6-0.3,4-0.6c0-0.1,0.1-0.3,0.1-0.3c0.4-0.1,0.8-0.2,1.2-0.3c0.8-0.3,1.5-0.7,2.3-1c0.7-0.3,1.4-0.7,2.2-0.8
	c0.9-0.8,2.1-0.9,3.1-1.6c0.3-0.2,0.6-0.4,1-0.4c0.6-0.1,1.1-0.5,1.7-0.8c0.7-0.4,1.4-0.6,2.1-0.8c0.3-0.1,0.5-0.2,0.7-0.3
	c0.8-0.5,1.6-0.7,2.6-0.9c0.1,0,0.1,0,0.3,0.1v0.8c0.2,0.1,0.4,0.3,0.6,0.4c0.3-1.1,1.1-2,1.5-2.9c0-0.1,0.2-0.2,0.2-0.2
	c0-1.2,1-1.9,1.5-2.9c0.1-0.1,0.2-0.2,0.2-0.3c-0.2-0.6,0.4-1,0.6-1.4c0.4-0.6,0.5-1.3,1-1.9c0.4-0.5,0.7-1.2,0.9-1.8
	c0-0.1,0-0.2,0-0.4c0.3-0.3,0.6-0.6,0.9-0.9v-0.8c0.5-0.5,0.9-0.9,1-1.7c0.1-0.4,0.6-0.7,0.9-1.2c0.5-0.9,1.1-1.7,1.5-2.6
	c0.4-1,1.1-1.9,1.6-2.8c0.2-0.3,0.4-0.5,0.6-0.8c0.4-0.6,0.3-0.6,1-1c-0.1-0.1-0.2-0.2-0.3-0.3c0.3-0.4,0.6-0.8,0.9-1.2
	c0.3-0.4,0.7-0.8,1-1.2c-0.1-0.4,0.2-0.9-0.3-1.3c1.2-0.9,2.6-0.9,4.2-1.2c0,0,0.3,0.1,0.6,0.3c-0.3,0.2-0.5,0.4-0.8,0.7
	c0.2,0.1,0.4,0.1,0.6,0.2c0,0.1-0.1,0.2-0.1,0.2c0.4-0.2,0.8-0.5,1.2-0.8c0.6-0.1,0.7,0.3,0.7,0.8c0.4,0.1,0.7,0.3,1.2,0.4
	c0.8,0.1,1.3,0.6,1.9,1.3c0,0.8,0.1,1.8,0,2.7c-0.4,2.6,0,5.2-0.3,7.7c-0.1,1.4-0.1,2.7-0.2,4.1c0,0.1,0,0.3,0,0.6
	c0.3-0.3,0.7-0.4,0.7-0.5c0.2-1.2,1.1-2,1.5-3.1c0.1-0.2,0.2-0.3,0.3-0.4c-0.3-0.2-0.1-0.3,0-0.4c0.1-0.1,0.1-0.3,0.2-0.5
	c0.3,0,0.6,0,0.9-0.1c0.3-0.5-0.2-0.4-0.4-0.6c0.1-0.8,0.9-1.4,1-2.2c0.3,0,0.4,0,0.7-0.1v-1.1c0.4-0.7,0.9-1.4,1.3-2.2
	c0.2,0.1,0.4,0.2,0.7,0.4c0.1-0.2,0.1-0.4,0.2-0.6c0,0-0.2-0.2-0.4-0.5c0.2-0.3,0.3-0.7,0.5-1c0.9-0.9,1.4-2,1.2-3.3
	c0.5-0.6,1.2-0.3,1.8-0.6c0.6-0.2,1.4-0.1,2.1-0.1c0.7,0,1.3-0.1,2,0c0.6,0.1,1.2,0.3,1.8,0.5v0.6c-0.2,0-0.4-0.1-0.6-0.2
	c-0.1,0.1-0.4,0.2-0.6,0.4c0.1,0.1,0.2,0.2,0.2,0.2c0.7-0.1,1.5-0.2,2.3-0.3c0.2,0.2,0.3,0.5,0.5,0.8c0,0.1-0.1,0.4-0.2,0.5
	c-0.9,0.8-1.5,1.8-2.2,2.8c-0.4,0.6-0.8,1.3-1.3,1.9c-0.2,0.2-0.4,0.4-0.7,0.7v0.8c-0.8,1.1-1.5,2.2-2.1,3.4
	c-0.5,1.2-1.3,2.3-1.8,3.5c-0.1-0.2-0.2-0.3-0.4-0.5c-0.3,0.3-0.4,0.4-0.7,0.7c0.2,0,0.5,0.1,0.8,0.1c-0.1,0.2-0.1,0.5-0.2,0.7
	c-0.4,0.7-1,1.2-1,2.2c0,0.5-0.4,1.1-0.8,1.5c-0.4,0.4-0.5,1.1-1.2,1.3c-0.2,0-0.3,0.6-0.4,0.6c-0.5,0-0.2,0.4-0.4,0.6
	c-0.4,0.4-0.5,0.9-0.7,1.4c-0.6,1.1-1,2.3-1.4,3.5c0,0.1-0.1,0.1-0.1,0.2c-0.6,1-0.8,2.2-1.3,3.3c-0.2,0.5-0.5,0.9-0.7,1.4
	c-0.3,0.8-0.6,1.6-0.7,2.4c-0.1,0.6-0.4,1.1-0.8,1.5c-0.3,0.2-0.5,0.5-0.7,0.7c-0.2,0-0.4,0-0.6,0.1c-0.4,0.2-0.7,0.1-1,0
	c-0.7-0.2-1.4-0.5-2.2-0.6c-0.5-0.1-1.3-0.2-1.5-1.1c-0.3,0-0.5,0-0.8,0c-0.5-0.6-1.3-1.1-1.5-2c0.6-0.8,0.5-1.8,0.9-2.7
	c0.1-0.1,0.1-0.3,0-0.4c-0.2-3.1,0.3-6.2,0.2-9.2c-0.1-2,0-4,0-6c-0.2-0.1-0.5-0.2-0.7-0.4c-0.3,0.3-0.7,0.5-0.8,1
	c0.4-0.2,0.6-0.4,0.9-0.6c0,0.3,0,0.4,0.1,0.7c-0.3,0.2-0.8,0.4-0.9,0.8c-0.1,0.5-0.9,0.4-0.8,0.9c-0.2,0-0.4,0-0.6,0.1
	c0,0.1-0.1,0.2,0,0.3c0.3,0.6,0.2,1.1-0.2,1.6c-0.1,0.1-0.1,0.4-0.1,0.5c-0.3,0.3-0.6,0.6-0.9,0.9c0.2,0.9-0.8,1.1-1.2,1.8
	c0.5,0.4,0.3,0.8,0,1.3c-0.8,0.3-1.2,1-1.5,1.7c-0.4,0.8-0.8,1.6-1,2.5c0,0.2-0.2,0.5-0.3,0.7c-0.6,1-1,2.1-1.3,3.2
	c0,0.1,0,0.2,0,0.2c-0.7,0.5-0.7,1.4-1,2c-0.3,0.6-0.6,1.2-1.1,1.5c-0.4,0.1-0.7,0.1-1.2,0.2c-0.5-0.1-1.2-0.3-1.9-0.4
	c-0.3-0.3-0.6-0.6-1-0.9c-0.4-0.3-0.6-0.7-0.9-1c-0.3-0.3-0.5-0.7-0.7-1c-0.5-0.1-0.8-0.2-1.1-0.4c-1.1,0.4-1.8,1.4-3,1.7
	c0,0.1-0.1,0.2-0.1,0.3c-0.2,0.1-0.5,0.1-0.7,0.3c-0.2,0.1-0.4,0.3-0.6,0.4c-0.9,0.6-1.8,1.4-2.8,1.8c-1,0.4-1.7,1.2-2.6,1.5
	c-0.8,0.2-1.6,0.7-2.4,1C108.8,132.9,108.7,133,108.5,133.1"/>
<path class="st0" d="M12.8,110.9c-0.4-0.2-0.4-0.2-0.8,0.1c0-0.2-0.1-0.5,0-0.6c0.4-0.6,0.9-1.3,1.4-1.9c0.2-0.3,0.5-0.6,0.5-1.1
	c0.1-0.7,0.4-1.4,0.8-2c0.5-0.6,0.6-1.3,0.8-2c0.2-0.5,0.2-1,0.5-1.4c0,0-0.1-0.2-0.1-0.2c0.4-0.7,0.8-1.5,1.3-2.3
	c0-0.2-0.1-0.5-0.2-1c0.2-0.3,0.4-0.7,0.7-1c0.8-0.3,1.5,0.4,2.1,0.2c1.1,0.7,2,1.4,3,2.1c0.1-0.1,0.2-0.2,0.3-0.3
	c0.3,0.1,0.6,0.2,1,0.3c0,0,0.1,0.2,0.2,0.2c1,0.7,1.5,1.8,1.8,3c0,0.1,0.1,0.3,0.1,0.4c-0.1,0.5-0.3,1-0.4,1.5
	c0,0.2-0.5,0.4-0.1,0.7c-0.2,0.3-0.4,0.5-0.5,0.8c-0.1,0.2-0.2,0.5-0.4,0.8c-0.2,0.3-0.4,0.6-0.5,0.8c-0.2,0.2-0.4,0.5-0.5,0.7
	c-0.1,0.6-0.6,0.9-0.9,1.4c-0.3,0.5-0.6,1.1-1,1.6c-0.4,0.5-0.6,1-0.9,1.5c-0.3,0.4-0.6,0.8-0.8,1.2c-0.1,0.1-0.1,0.3-0.2,0.6
	c-0.5,0.6-1.1,1.3-1.8,2.1c-0.1-0.3-0.1-0.6-0.1-0.9c-0.2,0.3-0.4,0.6-0.6,0.9c0,0.1,0.1,0.3,0.2,0.5c-0.2,0.1-0.4,0.3-0.6,0.4
	c0.1,0.1,0.2,0.3,0.3,0.4c-0.3,0.2-0.6,0.3-0.7,0.5c-0.1,0.3-0.3,0.3-0.5,0.5v0.4c-0.5,0.5-0.9,1.1-1.3,1.6
	c-0.3,0.4-0.5,0.8-0.3,1.2c-0.4,0.4-0.8,0.8-1.2,1.2c0.1,0.2,0.2,0.4,0.3,0.6c-0.3,0.3-0.8,0.5-0.7,1c0.2,0.5-0.3,0.8,0,1.2
	c-0.4,0.2-0.9-0.1-1.2,0.5c-0.2,0.9-0.4,2-0.6,3c0.9-0.1,1.5-1,2.5-0.8c0.2-0.2,0.4-0.5,0.6-0.7c0.5,0,0.9,0,1.3,0
	c0.1-0.1,0.3-0.3,0.4-0.4c0.1,0.1,0.1,0.1,0.2,0.2c0.5-0.6,1.4-0.6,2-0.9c0.3-0.2,0.7-0.2,1-0.3c0.3-0.1,0.7-0.5,0.9-0.4
	c0.5,0.3,0.6-0.2,0.9-0.2c0.1,0,0.3,0,0.4-0.1c0.4-0.1,0.9-0.1,1.3-0.2c0,0,0,0.1,0.1,0.2c-0.2,0.2-0.5,0.4-0.9,0.7
	c1.3-0.2,2.3-0.4,3.3-0.6c0.4,0.4,0.7,0.7,1.1,1.1c0.1,0.3,0.1,0.5,0.2,0.8c-0.1,0.1-0.3,0.2-0.4,0.3v1.3c-1.1,0.9-2.5,1.2-3.7,1.9
	c-0.5-0.2-0.6,0.4-1,0.5c-0.8,0.3-1.6,0.7-2.4,1.1c-0.3,0.1-0.7,0.2-0.9,0.5c-0.2,0.4-0.6,0.4-0.9,0.5c-0.3,0.2-0.7,0.3-1,0.5
	c-0.7,0.4-2,0.9-2.7,1.1c-1,0.3-2,0.3-3,0.7c-0.2,0.1-0.6-0.1-1-0.1c-0.1,0-0.4,0.2-0.8,0.4c-0.6,0.1-1.3-0.3-2-0.5
	c-0.2-0.2-0.3-0.5-0.5-0.7c-0.7-0.8-1.3-1.6-2-2.5c-0.2-0.3-0.3-0.6-0.5-0.9c-0.2-0.3-0.6-0.5-0.7-0.8c0-0.4-0.5-0.3-0.6-0.7
	c0-0.3-0.5-0.5-0.9-0.8c0-0.3,0.3-0.5,0.7-0.6c0.2-0.7,0.4-1.4,0.6-2.2h0.5V127c0.9-1,1-2.1,1-3.4c0.6-0.7,1.1-1.5,1.7-2.2
	c-0.1-0.3-0.2-0.6-0.3-0.8c0.8-0.4,1.2-1.1,1.9-2.5c0-0.1-0.1-0.2-0.2-0.2c0-0.1-0.1-0.1-0.1-0.3c0.5-0.5,1.1-0.9,1.5-1.5
	c0.4-0.5,0.6-1.2,0.9-1.9c-0.1-0.1-0.1-0.2-0.3-0.4c0.3-0.5,0.4-1.3,1.3-1.2c0.2,0,0.5-0.3,0.6-0.6
	C11.9,111.4,12.4,111.3,12.8,110.9"/>
<path class="st0" d="M36.4,131.9v0.8c0.2,0.3,0.3,0.6,0.5,0.8c-0.1,0.5-0.6,0.7-1.1,1c-0.7,0.1-1.4,0-2.1-0.4
	c-0.1,0-0.1,0.1-0.2,0.2c-0.5-0.4-1.1-0.7-1.5-1.1c-0.5-0.5-1-0.9-1.7-1.3c-0.3-0.1-0.5-0.5-0.6-0.8c-0.1-1.1-0.9-1.8-1.6-2.5
	c-0.1-0.3-0.2-0.6-0.3-1c0.2-0.5,0.7-0.7,1.1-0.9c0.3-0.1,0.4-0.3,0.6-0.6c0.3-0.8,0.8-1.6,1.2-2.4c-0.4-0.8-0.4-1,0.2-1.5
	c0.4-0.3,0.6-0.8,1.2-0.7c-0.1-0.2-0.2-0.3-0.3-0.4c0.4-0.8,0.8-1.6,1.2-2.4c0.2-0.4,0.4-0.8,0.7-1.2c0.3-0.4,0.1-0.9,0.6-1.2
	c0.1-0.8,0.6-1.4,1.2-1.9c0,0,0-0.1,0-0.1c0.6-1.8,1.9-3.2,2.6-5c0.5-1.4,1.3-2.6,2.1-3.8c0.4-0.6,0.4-1.3,0.8-1.9
	c0.4-0.7,0.7-1.3,1-2c0.3-0.7,0.5-1.4,0.8-2.1c-0.4-0.1-0.4-0.1-0.9,0.5c0,0.2,0,0.4-0.1,0.7c-0.3-0.2-0.5-0.3-0.6-0.4
	c0.7-0.8,1-1.8,1.2-2.9c0.6-1,1.9-1.1,3.3-1.4c0.3,0.1,0.7,0.1,1.3,0.2c0.3,0.2,0.7,0.4,1.1,0.6c0.6,0.3,1.3,0.6,1.8,1.1
	c0.3,0.3,0.7,0.4,1,0.6c1.1,0.6,1.6,1.4,1.2,2.4c-0.2,0.5-0.2,1-0.2,1.4c0,0.6-0.2,1-0.5,1.5c-0.8,1.4-1.7,2.7-2.7,4
	c-0.3,1.4-1.5,2.3-2.2,3.4c-0.1,0.2-0.1,0.5-0.3,0.7c-0.1,0.2-0.3,0.3-0.5,0.5c0.1,0.2,0.2,0.3,0.3,0.4c-0.3,1.2-1.1,2.1-1.5,3.2
	c-0.4,1.1-1.1,2-1.5,3.1c-0.6,0-0.8,0.5-0.8,0.9c-0.1,0.7-0.6,1.3-0.9,2c-0.3,0.6-0.5,1.3-1,1.8c-0.1,0.1-0.2,0.4-0.2,0.6
	c0.1,0.1,0.2,0.2,0.2,0.4c0,0.1,0,0.1,0,0.1c-0.1,0.3-0.5,0.4-0.5,0.9c0,0.3-0.2,0.7-0.5,0.8c-0.7,0.3-0.6,1-0.9,1.5
	c-0.3,0.6-0.4,1.3-0.9,1.7c-0.4,0.3-0.3,0.8-0.5,1.2c-0.1,0.2-0.2,0.5-0.3,0.7L36.4,131.9z"/>
<path class="st0" d="M67.6,108.1c1.3-1.6,2.6-3.1,3.9-4.8c-0.6-0.2-1.1-0.1-1.6-0.1c-0.7,0.5-1.6,0.7-2.3,1.2
	c-0.7,0.5-1.5,0.9-2.2,1.4c-0.8,0.5-1.5,1-2.3,1.6c-0.7,0.6-1.4,1.2-2.1,1.8c-0.7,0.6-1.2,1.3-1.9,1.8c0.1,0.4,0.2,0.8,0.4,1
	c0.3,0.4,1,0.6,1.2,1c0.2,0.5,0.5,0.9,0.9,1.3c0.5,0.4,1,0.8,1.6,1.1c0.3,0.2,0.6,0.4,0.9,0.7c1.2,1.2,2.3,2.5,3.5,3.7
	c-0.1,0.6,0.4,0.9,0.7,1.3c0.5,0.7,0.8,1.4,0.7,2.3c0,0.8,0,1.6,0,2.3c0,0.8-0.1,1.5-0.7,2c0.1,0.4-0.5,0.2-0.5,0.5
	c0,0.3-0.1,0.5-0.3,0.7c-1,1-2.4,2.3-3.8,2.9c-1,0.4-1.9,1.1-3,1.4c-0.2,0-0.3,0.3-0.5,0.4c-0.1-0.1-0.1-0.1-0.2-0.2
	c-0.2,0.1-0.5,0.3-0.7,0.4c-0.2,0.1-0.5,0.1-0.7,0.2c-0.6,0.2-1.3,0.2-2,0.3c-0.5,0.1-0.9,0.2-1.4,0.2c-0.5,0-1-0.1-1.5,0
	c-0.4,0.1-0.8-0.3-1.2-0.1c-0.3-0.4-0.9,0.1-1.1-0.4c-1-0.1-1.6-0.8-2.2-1.5c-0.7-0.8-1.3-1.7-2-2.4c-0.8-0.8-1.5-1.7-2-2.7
	c-0.8-1.6-0.8-3.2,0-4.8c0.1-0.2,0.2-0.3,0.3-0.5c0.4,0,0.5,0.2,0.6,0.5c0.3,1.1,0.7,2.1,1.5,3c0.2,0.2,0.3,0.6,0.4,1
	c0.2-0.1,0.4-0.2,0.4-0.3c1.6,0.5,3.1-0.1,4.7-0.1c0.1-0.1,0.2-0.3,0.4-0.4c0.7-0.1,1.4-0.2,2.3-0.4c0.5-0.4,1.3-0.9,2-1.4
	c0.3,0.2,0.5,0.4,0.7,0.6c0.9-0.2,1.2-1,1.7-1.6c0.4-0.3,0.3-0.9,0.2-1.4c-0.3-0.2-0.6-0.6-1-0.7c-0.8-0.3-1.3-0.9-1.9-1.4
	c-0.4-0.4-0.8-0.8-1.2-1.2c-0.4-0.4-0.8-0.7-1.2-1.1c-0.6-0.6-0.9-1.4-1.3-2.1c-0.3-0.6-0.7-1.1-1.2-1.5c-0.8-0.7-1.2-1.6-1.1-2.7
	c0-0.3,0-0.5-0.1-0.8c-0.2-0.4-0.2-0.9,0.1-1.3c-0.5-1.1,0-2.5,1.1-3.7c0-0.2,0-0.4,0.1-0.5c0,0,0.1-0.1,0.1-0.1
	c0.1,0.2,0.1,0.5,0.2,0.7c0.1-0.1,0.2-0.1,0.3-0.2c0-0.3,0.1-0.5,0.1-0.8c0.8-0.5,1.6-0.8,2.2-1.7c0.6-0.8,1.2-1.7,2.3-2.2
	c0.5-0.2,0.9-0.8,1.3-1.3c-0.5-0.3-0.6,0.3-0.9,0.3v-0.6c1-0.6,2.2-1.3,3.2-2c1.1-0.9,2.4-1.5,3.6-2.2c0.6-0.3,2.4-0.8,3-0.7
	c1.2,0.2,2.4,0.2,3.5,0.9c0.1,0.1,0.3,0.1,0.4,0.2c0.1,0.5,0.6,0.7,1,1c0.3,0.2,0.5,0.4,0.7,0.7c0.4,0.6,0.9,1.2,1.3,1.8
	c0.2,0.2,0.3,0.5,0.4,0.8c0.2,0.5,0.6,0.9,0.9,1.3c-0.1,0.5,0.4,0.8,0.6,1.2c0.3,0.4,0.4,0.9,0.5,1.3c0.1,0.7,0.4,1.2,0.7,2
	c0.2,1-0.3,1.9-1.1,2.6c-0.6,0.6-1.2,1.1-1.9,1.6c-0.6,0.3-1.2,1.1-1.5,1.7c-0.2,0-0.4-0.1-0.8-0.2c-1,0.3-1.9,1-2.8,1.8
	c-0.2-0.1-0.3-0.2-0.6-0.3c-0.6,0.5-1,1.2-2.1,0.9c-0.9-0.3-1.2-1-1.6-1.6c0.2-1.1,1.1-1.7,1.6-2.6c0.2-0.3,0.3-0.6,0.6-1
	C67.8,108.2,67.7,108.2,67.6,108.1"/>
<path class="st0" d="M67.3,108.7c0.1-0.3,0.1-0.4,0.2-0.6c0,0.1,0.1,0.2,0.1,0.3C67.5,108.5,67.5,108.6,67.3,108.7"/>
<path class="st0" d="M55.2,102.3c0.8-1.1,0.8-1.1,1.2-1C55.9,102.1,55.8,102.1,55.2,102.3"/>
<path class="st0" d="M57.6,100.6v-0.8c0.2,0,0.3,0.1,0.5,0.1C57.9,100.1,57.8,100.3,57.6,100.6"/>
<path class="st0" d="M54.3,102.8h0.4c0,0,0,0.1,0,0.1c-0.1,0-0.3,0.1-0.4,0.1C54.3,103,54.3,102.9,54.3,102.8"/>
<path class="st0" d="M55.2,102.3c-0.1,0.1-0.1,0.1-0.2,0.2c0,0,0,0-0.1-0.1C55,102.4,55.1,102.4,55.2,102.3L55.2,102.3z"/>
<path class="st1" d="M234.4,118c-4.6,0-8.3,3.7-8.3,8.3c0,4.6,3.7,8.3,8.3,8.3c4.6,0,8.3-3.7,8.3-8.3
	C242.7,121.7,238.9,118,234.4,118"/>
<polygon class="st1" points="221.1,84.6 234.4,114.8 247.6,84.6 "/>
</svg>
