<?xml version="1.0" encoding="utf-8"?>
<!-- Generator: Adobe Illustrator 24.0.0, SVG Export Plug-In . SVG Version: 6.00 Build 0)  -->
<svg version="1.1" id="Layer_1" xmlns="http://www.w3.org/2000/svg" xmlns:xlink="http://www.w3.org/1999/xlink" x="0px" y="0px"
	 viewBox="0 0 1080 1080" style="enable-background:new 0 0 1080 1080;" xml:space="preserve">
<style type="text/css">
	.st0{fill:none;}
</style>
<path class="st0" d="M103.6,659.4c0,0,14.33-12.38,20.85-16.94c6.52-4.56,11.08-9.12,14.99-11.08c3.91-1.95,5.54-4.56,12.71-12.38
	c7.17-7.82,19.87-22.15,25.09-25.74c5.21-3.58,6.52-3.58,9.12-7.49c2.61-3.91,9.12-15.64,20.2-29.65
	c11.08-14.01,17.27-21.18,20.85-23.78c3.58-2.61,11.08-13.68,11.08-13.68l2.93-0.33l16.62-15.64c0,0,21.83-17.92,29-23.78
	c7.17-5.86,14.99-13.03,20.52-15.96c5.54-2.93,15.31-11.4,17.92-13.03c2.61-1.63,7.82-9.12,11.4-11.08
	c3.58-1.95,12.05-4.56,18.9-4.24c6.84,0.33,19.87,0.98,20.85,0.65c0.98-0.33,8.14-3.26,10.43-1.95c2.28,1.3,9.77,6.19,9.77,6.19
	l6.19,6.19l-2.28,14.99l4.89,3.58l7.82-1.95c0,0,5.54-33.56,6.84-39.09c1.3-5.54,4.24-14.33,6.52-14.66
	c2.28-0.33,30.62,0.65,33.88,1.3s8.14,2.28,9.12,5.54c0.98,3.26,3.91,16.62,4.89,17.92c0.98,1.3,1.95,31.93,1.95,31.93l0.65,11.08
	c0,0,5.86,15.31,6.84,20.2c0.98,4.89,5.86,18.24,6.52,23.13s5.54,21.5,5.54,21.5s22.48,6.84,28.34,11.4
	c5.86,4.56,8.47,6.19,10.75,13.68c2.28,7.49,5.21,56.04,4.89,60.6s-0.98,23.13-0.98,23.13l5.21,10.75c0,0,3.26,8.8,4.24,13.68
	c0.98,4.89,2.28,10.75,2.28,10.75s22.15,18.24,23.13,21.18c0.98,2.93,2.61,58.32,2.61,58.32l0.98,15.31c0,0,7.17,7.49,10.75,9.45
	c3.58,1.95,13.68,3.91,14.66,4.24c0.98,0.33,29.97,17.59,29.97,17.59s66.46,32.58,72,33.88s16.94,5.21,27.04,5.54
	c10.1,0.33,37.14,2.93,44.96,3.91c7.82,0.98,49.52,0,65.48,4.24c15.96,4.24,39.75,7.82,49.52,19.55
	c9.77,11.73,28.34,39.75,30.95,67.44c2.61,27.69,7.17,61.25-0.98,91.87c-8.14,30.62-29.32,42.03-29.32,42.03l-99.37-0.33
	c0,0-61.25-18.24-79.82-28.67c-18.57-10.43-93.18-63.53-102.62-70.37c-9.45-6.84-54.08-31.28-62.88-32.9
	c-8.8-1.63-13.03-4.24-13.03-4.24s-10.75-18.57-10.75-32.58c0-14.01,0-14.01,0-14.01s-17.27-22.81-24.11-24.11
	s-34.53-7.49-48.87-10.75c-14.33-3.26-40.72-9.45-45.61-13.03c-4.89-3.58-12.05-7.17-12.05-7.17s-9.12,5.54-24.11,6.19
	c-14.99,0.65-32.25-0.98-32.25-0.98s-26.71-23.13-31.6-29.32c-4.89-6.19-14.99-27.04-14.99-27.04l-3.26,11.4
	c0,0-23.78,37.14-33.56,44.31c-9.77,7.17-32.58,23.78-40.07,28.02s-29.32,13.03-37.79,16.29c-8.47,3.26-29,9.12-39.42,9.45
	c-10.43,0.33-20.52-2.61-24.76-5.86c-4.24-3.26-29.65-33.56-31.93-53.1c-2.28-19.55-2.61-84.05-2.61-84.05s0.98-26.71,2.61-37.79
	C81.45,707.94,89.59,673.74,103.6,659.4z"/>
</svg>
