<?xml version="1.0" encoding="utf-8"?>
<!-- Generator: Adobe Illustrator 24.0.0, SVG Export Plug-In . SVG Version: 6.00 Build 0)  -->
<svg version="1.1" id="Layer_1" xmlns="http://www.w3.org/2000/svg" xmlns:xlink="http://www.w3.org/1999/xlink" x="0px" y="0px"
	 viewBox="0 0 78.84 26.88" style="enable-background:new 0 0 78.84 26.88;" xml:space="preserve">
<style type="text/css">
	.st0{fill:#231F20;}
	.st1{fill:#035099;}
</style>
<g>
	<polygon class="st0" points="1.19,20.9 4.44,20.9 4.44,21.58 1.98,21.58 1.98,22.76 4.26,22.76 4.26,23.4 1.98,23.4 1.98,24.73 
		4.48,24.73 4.48,25.41 1.19,25.41 1.19,20.9 	"/>
	<polygon class="st0" points="5.11,20.9 6.05,20.9 7.08,22.49 8.15,20.9 9.03,20.9 7.54,23.07 9.14,25.41 8.18,25.41 7.06,23.68 
		5.91,25.41 5,25.41 6.61,23.07 5.11,20.9 	"/>
	<path class="st0" d="M12.73,22.33c-0.13-0.52-0.47-0.9-1.13-0.9c-0.97,0-1.37,0.85-1.37,1.72c0,0.87,0.4,1.72,1.37,1.72
		c0.7,0,1.09-0.53,1.15-1.18h0.77c-0.06,1.08-0.83,1.83-1.92,1.83c-1.35,0-2.16-1.08-2.16-2.37c0-1.29,0.81-2.36,2.16-2.36
		c1.02,0.01,1.82,0.57,1.92,1.54H12.73L12.73,22.33z"/>
	<polygon class="st0" points="14.67,20.9 17.92,20.9 17.92,21.58 15.46,21.58 15.46,22.76 17.73,22.76 17.73,23.4 15.46,23.4 
		15.46,24.73 17.96,24.73 17.96,25.41 14.67,25.41 14.67,20.9 	"/>
	<polygon class="st0" points="19.16,20.9 22.41,20.9 22.41,21.58 19.95,21.58 19.95,22.76 22.23,22.76 22.23,23.4 19.95,23.4 
		19.95,24.73 22.45,24.73 22.45,25.41 19.16,25.41 19.16,20.9 	"/>
	<path class="st0" d="M24.44,24.76h0.78c1.24,0,1.51-0.71,1.51-1.62c0-0.9-0.27-1.61-1.51-1.61h-0.78V24.76L24.44,24.76z
		 M23.65,20.9h1.87c1.39,0,1.99,1.01,1.99,2.25c0,1.25-0.6,2.26-1.99,2.26h-1.87V20.9L23.65,20.9z"/>
	<polygon class="st0" points="31.53,23.64 29.83,20.9 30.75,20.9 31.95,22.92 33.12,20.9 34.01,20.9 32.32,23.64 32.32,25.41 
		31.53,25.41 31.53,23.64 	"/>
	<path class="st0" d="M34.96,23.15c0,0.87,0.4,1.72,1.37,1.72c0.97,0,1.37-0.85,1.37-1.72c0-0.86-0.4-1.72-1.37-1.72
		C35.37,21.43,34.96,22.29,34.96,23.15L34.96,23.15z M38.5,23.15c0,1.29-0.81,2.37-2.16,2.37c-1.35,0-2.16-1.08-2.16-2.37
		c0-1.29,0.81-2.36,2.16-2.36C37.69,20.79,38.5,21.86,38.5,23.15L38.5,23.15z"/>
	<path class="st0" d="M39.45,20.9h0.79v2.63c0,0.61,0.04,1.31,1.06,1.31c1.03,0,1.06-0.7,1.06-1.31V20.9h0.79v2.89
		c0,1.16-0.74,1.73-1.85,1.73c-1.11,0-1.85-0.58-1.85-1.73V20.9L39.45,20.9z"/>
	<path class="st0" d="M45.18,22.95h1.3c0.5,0,0.77-0.25,0.77-0.72c0-0.58-0.37-0.69-0.78-0.69h-1.28V22.95L45.18,22.95z M44.39,20.9
		h2.16c0.99,0,1.49,0.46,1.49,1.22c0,0.87-0.6,1.09-0.75,1.14v0.01c0.27,0.04,0.67,0.24,0.67,0.96c0,0.52,0.08,1,0.25,1.19h-0.85
		c-0.12-0.2-0.12-0.44-0.12-0.67c0-0.83-0.17-1.19-0.9-1.19h-1.16v1.86h-0.79V20.9L44.39,20.9z"/>
	<polygon class="st0" points="50.88,20.89 51.71,20.89 52.84,24.47 52.85,24.47 54.01,20.89 54.81,20.89 53.27,25.41 52.39,25.41 
		50.88,20.89 	"/>
	<polygon class="st0" points="55.63,20.89 56.42,20.89 56.42,25.41 55.63,25.41 55.63,20.89 	"/>
	<path class="st0" d="M58.2,23.9c0,0.7,0.51,0.97,1.14,0.97c0.7,0,0.96-0.34,0.96-0.68c0-0.35-0.19-0.49-0.37-0.56
		c-0.32-0.12-0.73-0.2-1.35-0.37c-0.77-0.21-1-0.68-1-1.14c0-0.9,0.83-1.33,1.65-1.33c0.94,0,1.73,0.5,1.73,1.44h-0.79
		c-0.04-0.58-0.43-0.8-0.98-0.8c-0.37,0-0.83,0.13-0.83,0.59c0,0.32,0.21,0.49,0.54,0.58c0.07,0.02,1.07,0.28,1.3,0.35
		c0.59,0.18,0.88,0.68,0.88,1.15c0,1.01-0.9,1.42-1.8,1.42c-1.03,0-1.87-0.5-1.88-1.61H58.2L58.2,23.9z"/>
	<polygon class="st0" points="62.16,20.89 62.95,20.89 62.95,25.41 62.16,25.41 62.16,20.89 	"/>
	<path class="st0" d="M64.77,23.15c0,0.87,0.41,1.72,1.37,1.72c0.97,0,1.37-0.85,1.37-1.72c0-0.86-0.41-1.72-1.37-1.72
		C65.18,21.43,64.77,22.29,64.77,23.15L64.77,23.15z M68.31,23.15c0,1.29-0.81,2.37-2.16,2.37s-2.16-1.08-2.16-2.37
		c0-1.29,0.81-2.36,2.16-2.36S68.31,21.86,68.31,23.15L68.31,23.15z"/>
	<polygon class="st0" points="69.34,20.89 70.17,20.89 72.24,24.22 72.25,24.22 72.25,20.89 73,20.89 73,25.41 72.17,25.41 
		70.11,22.09 70.09,22.09 70.09,25.41 69.34,25.41 69.34,20.89 	"/>
	<path class="st1" d="M50.9,15.09c-3.09,0-4.28-2.85-4.28-5.74s1.19-5.74,4.28-5.74c3.09,0,4.28,2.85,4.28,5.74
		S53.99,15.09,50.9,15.09L50.9,15.09z M50.9,0.7c-4.87,0-7.68,3.65-7.68,8.65c0,5,2.81,8.64,7.68,8.64s7.68-3.65,7.68-8.64
		C58.58,4.35,55.77,0.7,50.9,0.7L50.9,0.7z"/>
	<polygon class="st1" points="1.19,1.19 13.39,1.19 13.39,4.1 4.58,4.1 4.58,7.72 12.79,7.72 12.79,10.55 4.58,10.55 4.58,14.6 
		13.39,14.6 13.39,17.51 1.19,17.51 1.19,1.19 	"/>
	<path class="st1" d="M21.31,9.71h-3.07V4.1l0,0h3.08c2.13,0,3.55,0.93,3.55,2.8C24.86,8.78,23.44,9.71,21.31,9.71L21.31,9.71z
		 M14.84,17.51h3.39v-4.9h3.07c4.15,0,6.94-2.04,6.94-5.71c0-3.67-2.79-5.71-6.94-5.71h-6.47V17.51L14.84,17.51z"/>
	<path class="st1" d="M63.35,1.19h-3.49v16.32h3.32V10.9c0-1.81-0.07-3.41-0.13-4.83c0.39,0.82,1.58,3.27,2.13,4.19l4.33,7.25H73
		V1.19h-3.33v6.45c0,1.81,0.07,3.58,0.13,5c-0.39-0.82-1.58-3.27-2.13-4.19L63.35,1.19L63.35,1.19z"/>
	<path class="st1" d="M32.11,12.11c0,2.19,1.82,3.05,3.77,3.05c1.27,0,3.33-0.37,3.33-2.05c0-1.78-2.52-2.11-4.94-2.76
		c-2.54-0.67-4.99-1.63-4.99-4.65c0-3.37,3.19-4.99,6.16-4.99c3.44,0,6.6,1.5,6.6,5.31h-3.39C38.52,4.03,37,3.52,35.27,3.52
		c-1.16,0-2.61,0.48-2.61,1.87c0,1.27,0.83,1.47,4.96,2.53c1.2,0.3,4.97,1.03,4.97,4.77c0,3.02-2.38,5.29-6.86,5.29
		c-3.65,0-7.06-1.8-7.02-5.86H32.11L32.11,12.11z"/>
	<path class="st1" d="M76.27,4.62c0.99,0,1.79-0.8,1.79-1.79c0-0.99-0.8-1.8-1.79-1.8c-0.99,0-1.8,0.8-1.8,1.8
		C74.47,3.81,75.28,4.62,76.27,4.62L76.27,4.62z M74.64,2.82c0-0.9,0.73-1.63,1.63-1.63c0.9,0,1.63,0.73,1.63,1.63
		c0,0.9-0.73,1.63-1.63,1.63C75.37,4.45,74.64,3.72,74.64,2.82L74.64,2.82z"/>
	<path class="st1" d="M76.44,2.77c0.19,0,0.35-0.13,0.35-0.36c0-0.23-0.16-0.36-0.35-0.36l-0.55,0v1.82h-0.37v-2.1h0.91
		c0.43,0,0.71,0.29,0.71,0.65c0,0.31-0.23,0.55-0.48,0.59l0.59,0.86h-0.44l-0.71-1.1H76.44L76.44,2.77z"/>
</g>
</svg>
