<?xml version="1.0" encoding="utf-8"?>
<!-- Generator: Adobe Illustrator 24.0.0, SVG Export Plug-In . SVG Version: 6.00 Build 0)  -->
<svg version="1.1" id="Layer_1" xmlns="http://www.w3.org/2000/svg" xmlns:xlink="http://www.w3.org/1999/xlink" x="0px" y="0px"
	 viewBox="0 0 300 600" style="enable-background:new 0 0 300 600;" xml:space="preserve">
<style type="text/css">
	.st0{fill:none;}
</style>
<path class="st0" d="M281.16,416.69c2.57,6.97-9.29,27.53-11.73,31.28c-2.44,3.75-9.12,11.4-11.57,13.03
	c-2.44,1.63-4.72,2.28-7.66,1.63c-2.93-0.65-14.66-6.52-18.41-6.84c-3.75-0.33-13.36-2.61-15.31-3.58
	c-1.95-0.98-13.85-6.19-17.27-8.8s-21.34-14.99-23.62-16.94c-2.28-1.95-13.52-7.66-16.29-8.47c-2.77-0.81-5.05-2.61-6.35-3.42
	c-1.3-0.81-3.91-3.1-4.24-4.4c-0.33-1.3-0.33-10.1-0.33-10.1l-8.63-7.66l-11.89-2.44l-11.73-2.93l-5.86-2.28l-3.75-3.1l-3.91,0.33
	l-1.3,1.47H89.59l-11.24-10.75l-4.24-6.52l-3.91,8.14l-6.68,6.84l-8.63,8.14l-8.63,4.72l-11.24,4.56l-9.45,1.14l-6.68-0.49
	l-6.19-6.84L7.49,380.2v-32.42c0,0,0.81-8.31,2.44-11.24s3.42-7.33,5.21-9.29c1.79-1.95,4.72-4.56,7.33-6.52
	c2.61-1.95,6.35-4.72,6.35-4.72l5.21-6.03l6.52-6.03l3.42-3.75l5.21-7.49l6.68-7.17l7.33-7.49l7.82-7.17l8.31-5.7l6.03-4.56
	l4.4-4.56l6.84-1.14l6.68,1.14l10.26,0.65l2.93-9.45l7-0.65l6.19,1.79l1.47,15.15l0.65,2.44l1.95,7.49l1.95,4.24l2.12,9.94
	l5.54,2.44c0,0,4.56,2.28,6.03,3.58c1.47,1.3,2.12,9.45,2.12,9.45l0.49,16.94l0.81,4.07l2.28,4.89l0.65,4.4l7.17,7.17l0.65,15.15
	l0.16,8.47l5.21,3.1l1.95-0.49l7.66,4.89l22.15,10.26l12.38,3.1C213.07,385.09,262.91,382.48,281.16,416.69z"/>
</svg>
