<svg enable-background="new 0 0 423 149" viewBox="0 0 423 149" xmlns="http://www.w3.org/2000/svg"><g fill="#1c4799"><path d="m103.2 79.3v-15.2h4.7l3.6 10.4 3.4-10.4h4.6v15.2h-3.1v-10.8l-3.7 10.8h-2.6l-3.7-10.7h-.1v10.7z"/><path d="m124.6 79.3v-15.2h11.4v2.8h-8.1v3.3h7.4v2.6h-7.4v3.7h8.2v2.8z"/><path d="m140.5 79.3v-15.2h6.5c2.1 0 3.7.6 5 1.9s1.9 3.1 1.9 5.6c0 2.3-.6 4.1-1.8 5.6-1.2 1.4-2.9 2.1-5.1 2.1zm3.3-12.4v9.6h3c1.1 0 2-.4 2.7-1.1s1.1-1.9 1.1-3.4c0-1.6-.3-2.9-1-3.7-.7-.9-1.8-1.3-3.4-1.3h-2.4z"/><path d="m158.4 64.1h3.3v15.2h-3.3z"/><path d="m180.1 69.2h-3.2c-.1-.8-.5-1.4-1.1-1.9s-1.4-.8-2.2-.8c-.9 0-1.7.3-2.4.8-.6.5-1.1 1.1-1.3 1.9-.3.8-.4 1.6-.4 2.5 0 1.4.3 2.6 1 3.6s1.7 1.5 3.1 1.5c1 0 1.8-.3 2.4-.9s.9-1.4 1.1-2.5h3.2c-.2 1.9-.9 3.4-2.1 4.5s-2.7 1.7-4.6 1.7c-2.3 0-4.1-.7-5.4-2.2s-2-3.4-2-5.6c0-2.3.7-4.2 2-5.7s3.2-2.3 5.5-2.3c1.7 0 3.2.5 4.4 1.5 1.1.9 1.8 2.2 2 3.9"/><path d="m183 79.3 5.8-15.2h3.4l5.7 15.2h-3.5l-1.1-3.4h-5.7l-1.2 3.4zm7.4-11.5-2 5.6h3.9z"/><path d="m201.3 79.3v-15.2h3.4v12.4h7.3v2.8z"/><path d="m237.4 69.2h-3.2c-.1-.8-.5-1.4-1.1-1.9s-1.4-.8-2.2-.8c-.9 0-1.7.3-2.4.8-.6.5-1.1 1.1-1.3 1.9-.3.8-.4 1.6-.4 2.5 0 1.4.3 2.6 1 3.6s1.7 1.5 3.1 1.5c1 0 1.8-.3 2.4-.9s.9-1.4 1.1-2.5h3.2c-.2 1.9-.9 3.4-2.1 4.5s-2.7 1.7-4.6 1.7c-2.3 0-4.1-.7-5.4-2.2s-2-3.4-2-5.6c0-2.3.7-4.2 2-5.7s3.2-2.3 5.5-2.3c1.7 0 3.2.5 4.4 1.5 1.1.9 1.8 2.2 2 3.9"/><path d="m241.9 79.3v-15.2h11.4v2.8h-8v3.3h7.3v2.6h-7.3v3.7h8.2v2.8z"/><path d="m257.8 79.3v-15.2h3.4l6.3 10.2v-10.2h3.2v15.2h-3.4l-6.3-10.2v10.2z"/><path d="m279.1 79.3v-12.4h-4.6v-2.8h12.5v2.8h-4.6v12.4z"/><path d="m290.8 79.3v-15.2h11.4v2.8h-8v3.3h7.3v2.6h-7.3v3.7h8.1v2.8z"/><path d="m306.7 79.3v-15.2h8.2c1.3 0 2.4.4 3.2 1.2s1.2 1.8 1.2 3c0 1.9-.8 3.2-2.4 3.8 1.3.3 2.1 1.5 2.2 3.5v.6c0 .3 0 .6.1.8 0 .2 0 .5.1.8 0 .3.1.6.2.8s.2.4.3.6h-3.3c-.1-.3-.2-.6-.3-1s-.1-.9-.1-1.4-.1-.9-.1-1.2c-.1-.8-.4-1.4-.7-1.8-.4-.4-1-.5-1.8-.5h-3.3v5.9h-3.5m3.4-12.5v4.3h3.7c1.5 0 2.3-.7 2.3-2.2 0-1.4-.8-2.1-2.3-2.1z"/><path d="m5.2 11.9c0-4.5-.2-5.6-2.9-5.8l-2-.2c-.5-.4-.4-1.3.1-1.5 3.2-.3 7.3-.5 12.9-.5 3.8 0 7.4.3 10.1 1.7 2.6 1.2 4.6 3.6 4.6 7.5 0 4.3-2.5 6.6-6.1 8.2 0 .6.5.8 1.1.9 3.2.6 8.1 3.6 8.1 10 0 7-5.2 11.7-16 11.7-1.7 0-4.7-.2-7.2-.2-2.6 0-4.7.1-6.9.2-.4-.2-.5-1.1-.1-1.5l1.1-.2c3.2-.5 3.3-1.2 3.3-7.5v-22.8m4.8 8c0 1.7.1 1.8 3.1 1.7 6.1-.2 9.4-2 9.4-7.7 0-5.9-4.4-8.1-9-8.1-1.3 0-2.2.1-2.8.4-.6.2-.8.5-.8 1.6v12.1zm0 13.9c0 2.2.1 5.2 1.3 6.6 1.1 1.4 2.9 1.7 4.8 1.7 5.4 0 9.4-2.4 9.4-8.4 0-4.8-2.4-10.3-12-10.3-3.2 0-3.5.4-3.5 1.6z"/><path d="m47.1 31.3c.9-.3 1-.8 1-1.7l.1-2.8c.1-2.2-.7-5.2-4.4-5.2-1.7 0-3.7.8-3.8 2.7-.1 1-.1 1.7-.6 2-.9.7-2.5 1.1-3.4 1.1-.5 0-.8-.3-.8-.8 0-3.1 6.8-7.4 11.2-7.4 4.3 0 6.4 2.5 6.3 7l-.4 10.5c-.1 2.8.4 5.2 2.8 5.2.6 0 1.1-.2 1.5-.4.3-.2.6-.4.8-.4s.4.4.4.8c0 .3-2.1 2.6-5 2.6-1.4 0-2.9-.5-3.9-1.9-.2-.4-.6-.8-1-.8s-1.1.5-2.3 1.2c-1.3.7-2.6 1.5-4.3 1.5s-3.2-.5-4.2-1.4c-1.1-1-1.9-2.5-1.9-4.2 0-2.3 1.1-3.7 5-5.1zm-3.7 10.6c1.2 0 3.1-.9 3.7-1.5.7-.7.7-1.6.8-2.8l.1-3.6c0-.7-.2-.8-.6-.8s-1.4.2-2.5.6c-3.5 1.2-5.3 2.1-5.3 4.4 0 1.1.7 3.7 3.8 3.7"/><path d="m57.6 55c0-1.6 1.1-2.4 2.4-2.4h1.1c1 0 1.6-.4 2-1.1 1.7-2.7 2.4-4.1 2.9-5.5.2-.5.6-1.7.6-2.6 0-1.2-.2-1.9-1-4.1l-4.6-12.9c-1-2.8-1.4-4.3-3.5-4.7l-1.5-.3c-.4-.3-.3-1.3.2-1.5 1.9.1 3.7.2 5.7.2 1.6 0 3.3-.1 5.2-.2.5.2.5 1.2.1 1.5l-1.5.3c-.8.2-1.3.4-1.3.8 0 .7 1.4 4.6 1.7 5.7l1.9 5.5c.4 1 1.5 4.1 1.7 4.3.2-.1 1.1-2 2.2-4.4l2-4.8c1.3-3.1 2.1-5.4 2.1-6 0-.4-.4-.8-1.4-1l-1.9-.3c-.4-.3-.4-1.3.1-1.5 1.9.1 3.7.2 5.3.2 1.5 0 2.9-.1 4.6-.2.5.2.5 1.1.1 1.5l-1 .2c-2 .4-3.1 2.1-5.1 6.4l-3.4 6.9c-2 4-6.4 13.3-9.3 19.9-1 2.3-2.5 2.8-3.8 2.8-1.7-.1-2.6-1.2-2.6-2.7"/><path d="m89 37c0 4.3.1 4.9 2.3 5.2l1.4.2c.4.3.3 1.3-.1 1.5-2-.1-3.7-.2-5.8-.2-2.2 0-4 .1-5.8.2-.4-.2-.5-1.2-.1-1.5l1.4-.2c2.2-.3 2.3-.9 2.3-5.2v-27.1c0-3.5-.1-3.9-1.9-5l-.6-.4c-.3-.2-.3-1 0-1.2 1.5-.5 4.3-1.4 6.5-2.5.2 0 .5.1.6.4 0 1.7-.2 4.7-.2 7.4z"/><path d="m119.8 31.7c0 7.5-5.2 12.9-12.7 12.9-6.9 0-12.3-4.9-12.3-12.4 0-7.6 5.7-13 12.8-13 6.7 0 12.2 5.1 12.2 12.5m-13-10.7c-4 0-6.9 3.8-6.9 10.4 0 5.5 2.5 11.4 7.8 11.4s6.9-5.5 6.9-10.2c0-5.1-2-11.6-7.8-11.6"/><path d="m126.3 26.5c0-2.3 0-2.6-1.6-3.7l-.5-.4c-.2-.2-.2-.9.1-1.1 1.4-.5 4.6-2 6.1-2.9.3.1.5.2.5.4v3.5c0 .3.1.5.2.5 2.1-1.7 4.4-3.6 6.6-3.6 1.5 0 2.7 1 2.7 2.4 0 2-1.6 2.8-2.6 2.8-.6 0-.9-.2-1.3-.4-.9-.6-1.8-1-2.6-1-1 0-1.7.5-2.2 1.2-.6.8-.8 2.6-.8 4.6v8.2c0 4.3.1 5 2.4 5.2l2.2.2c.4.3.3 1.3-.1 1.5-2.8-.1-4.6-.2-6.7-.2-2.2 0-4 .1-5.5.2-.4-.2-.5-1.2-.1-1.5l1.1-.2c2.2-.4 2.3-.9 2.3-5.2v-10.5"/><path d="m152.7 44.7c-5.1 0-8.2-1.6-9.4-2.2-.7-1.3-1.5-5.6-1.6-8.4.3-.4 1.2-.5 1.4-.2.9 3.1 3.4 9 10.3 9 5.1 0 7.5-3.3 7.5-6.9 0-2.6-.5-5.6-4.9-8.4l-5.7-3.7c-3-2-6.5-5.4-6.5-10.3 0-5.7 4.4-10.3 12.3-10.3 1.9 0 4 .4 5.6.8.8.2 1.6.4 2.1.4.5 1.4 1.1 4.8 1.1 7.3-.2.4-1.2.5-1.5.2-.8-3.1-2.4-7-8.2-7-5.9 0-7.2 3.9-7.2 6.7 0 3.5 2.9 6 5.1 7.4l4.8 3c3.8 2.3 7.5 5.8 7.5 11.5.1 6.6-4.9 11.1-12.7 11.1"/><path d="m189.2 20.3c.5.4.9 1.4.9 2.4 0 1.1-.6 2.2-1.3 2.2-.3 0-.6-.1-.8-.4-1.3-1.6-3.5-3.2-6-3.2-4.2 0-8.3 3.3-8.3 9.7 0 4.7 3.2 10.3 9.7 10.3 3.5 0 5.3-1.6 6.7-3.6.5-.1 1 .3 1.1.8-2 4.5-6.6 6.1-10 6.1-3.2 0-6.1-1-8.2-3.1-2.1-2-3.5-5-3.5-8.9 0-6.5 4.6-13.4 14.6-13.4 1.1 0 3.5.3 5.1 1.1"/><path d="m216.8 31.7c0 7.5-5.2 12.9-12.7 12.9-6.9 0-12.3-4.9-12.3-12.4 0-7.6 5.7-13 12.8-13 6.7 0 12.2 5.1 12.2 12.5m-12.9-10.7c-4 0-6.9 3.8-6.9 10.4 0 5.5 2.5 11.4 7.8 11.4s6.9-5.5 6.9-10.2c-.1-5.1-2.1-11.6-7.8-11.6"/><path d="m228.2 22.6c-1 0-1.1.2-1.1 1.4v11.2c0 3.5.4 6.7 4.4 6.7.6 0 1.1-.1 1.6-.3s1.3-.8 1.5-.8c.5 0 .7.7.6 1-1.1 1.3-3.2 2.8-6.3 2.8-5.2 0-6.3-2.9-6.3-6.5v-13.8c0-1.6-.1-1.7-1.3-1.7h-1.7c-.4-.2-.4-.9-.2-1.3 1.7-.5 3.2-1.3 3.9-1.9.8-.7 1.9-2.3 2.5-3.5.3-.1 1-.1 1.3.3v2.7c0 1.1.1 1.1 1.1 1.1h6.7c.7.5.6 2.2.1 2.5h-6.8"/><path d="m246.4 22.6c-1 0-1.1.2-1.1 1.4v11.2c0 3.5.4 6.7 4.4 6.7.6 0 1.1-.1 1.6-.3s1.3-.8 1.5-.8c.5 0 .7.7.6 1-1.1 1.3-3.2 2.8-6.3 2.8-5.2 0-6.3-2.9-6.3-6.5v-13.8c0-1.6-.1-1.7-1.3-1.7h-1.7c-.4-.2-.4-.9-.2-1.3 1.7-.5 3.2-1.3 3.9-1.9.8-.7 1.9-2.3 2.5-3.5.3-.1 1-.1 1.3.3v2.7c0 1.1.1 1.1 1.1 1.1h6.7c.7.5.6 2.2.1 2.5h-6.8"/><path d="m263.4 18.7c0-4.2 3.3-7.4 7.5-7.4 2.8 0 5.6 1.7 5.6 4.5 0 3-3 4.2-4.1 4.2-.2 0-1.2 0-.5-1 .1-.2 1-1.1.5-2.7-.4-1.2-1.5-2.2-3.3-2.3-2.2-.2-3.9 1.3-3.9 3.2 0 2 1.2 3.3 5.3 5.5 5.3 2.9 9.9 5.3 13.8 13.4 1.4-1.7 2-3.5 2-5.7 0-1.5-.3-2.7-1.3-4.1-.7-.9-1.6-1.1-2.2-1.2s-1.7-.2-3 .9c-.2.2-.4.3-.8.2s-.5-.7-.4-1.4c.3-2 2.4-3.6 5.3-3.6.8 0 2 .2 3 .4 1.2.2 1.9.3 2.3.3.7 0 1.1-.1 1.4-.6 0 0 .2-.3.4-.3.5 0 .7.4.7.4 0 2.2-1.3 3.5-4.2 4.3.7 1.4.9 2.4.9 3.9 0 2.9-1 5.3-3.3 7.8 1.8 3.3 3.5 4.6 6.5 4.6.6 0 1.1-.1 1.6-.2.6-.2.8-.2 1-.2.3 0 .4.1.4.4 0 1.1-2.5 2-5.8 2-3.1 0-4.7-.7-7.3-3-4 2.3-6.5 3.1-10 3.1-7.3 0-12.9-4.7-12.9-10.8 0-6.4 4.8-8.7 6.9-9.6-1.5-1.7-2.1-3.1-2.1-5m3.7 6.4c-2.4.5-3.5 2-3.5 4.9 0 6.2 5.2 11.6 11 11.6 2.1 0 3.5-.4 6.1-1.7-1-1.2-1.5-1.7-2.6-3.4l-1.3-1.9c-3.3-4.8-6-6.8-8.3-8.6z"/><path d="m286.4 5.3c-.4-.4-.3-1.2.2-1.4 1.6.1 4.3.2 6.2.2 1.7 0 4.7-.1 6.9-.2.5.2.5 1 .1 1.4l-1.4.1c-1.3.1-2 .5-2 1 0 .7 1.3 3.8 3.1 8.1 3.4 7.5 6.9 15 10.4 22.4 1.4-3 3.1-6.4 4.6-9.7.5-1.1 1-2.2 1-2.5s-.2-.8-.5-1.6c-2.1-4.8-4.3-9.6-6.6-14.4-.9-1.9-1.8-3.1-3.8-3.3l-1.4-.1c-.4-.5-.4-1.2.1-1.4 1.7.1 4 .2 6.4.2 3 0 5.2-.1 6.6-.2.4.2.5 1 .1 1.4l-1.6.1c-2.3.2-2.4.6-1.3 3.3 1.3 2.9 2.9 6.7 4.6 10.5 1.1-2.3 2.2-4.6 3.5-7.9 2.2-5.1 1.9-5.8-.1-5.9l-1.8-.1c-.4-.6-.3-1.3.1-1.4 1.6.1 3.4.2 5.7.2 2 0 4.4-.1 5.8-.2.4.2.5 1 .1 1.4l-1.7.1c-2.5.2-3.6 2.9-4.9 5.4-1.3 2.2-3.8 7.5-4.7 9.6-.3.6-.5 1.2-.5 1.4s.1.7.4 1.4c2 4.6 4.1 9.1 6.1 13.7 1.9-4.2 3.7-8.4 5.4-12.7 1.2-2.9 4.4-10.9 4.8-12 .8-2.2 1.8-4.7 1.8-5.5s-.7-1.3-2-1.4l-1.7-.1c-.5-.5-.4-1.2.1-1.4 2.3.1 3.9.2 5.8.2 2.3 0 4-.1 5.6-.2.5.2.5 1 .1 1.4l-1.1.1c-3 .3-3.5 2.1-7.2 10.5l-4.4 10.2c-2.6 6.1-5.1 12-7.5 18.5-.2.1-.4.2-.7.2s-.6-.1-.8-.2c-1.9-5.4-5.4-12.9-7.3-17.1-2.2 4.4-5.8 12.1-7.5 17.1-.2.1-.4.2-.7.2s-.6-.1-.9-.2c-1-2.5-3.4-7.9-4.1-9.7-3.9-8.4-7.6-16.7-11.5-25.1-1.1-2.5-1.9-4.1-4.4-4.3z"/><path d="m344.5 9.9c0-3.8-.3-4.3-1.1-4l-1.4-1.4c-.3-.2-2.3-.4-1.5-.4 4.8 0 5.9-2.1 8-3.3.2-.1.6 0 .6.4-.1 1.8-.2 4.8-.2 7.5v12.6c0 .5.1 1 .2 1.1 2.2-1.7 5.1-3.1 8.1-3.1 5.7 0 7.8 3.5 7.8 7.8v10c0 4.3.1 5 2.3 5.2l1.6.2c.4.3.3 1.3-.1 1.5-2.2-.1-3.9-.2-6-.2-2.2 0-4 .1-5.6.2-.4-.2-.5-1.2-.1-1.5l1.2-.2c2.2-.4 2.3-.9 2.3-5.2v-8.6c0-3.8-1.9-6.4-5.7-6.4-2 0-3.6.7-4.7 1.6s-1.3 1.2-1.3 3.3v10c0 4.3.1 4.9 2.3 5.2l1.3.2c.4.2.3 1.3-.1 1.5-1.8-.1-3.5-.2-5.7-.2s-4 .1-5.9.2c-.4-.2-.5-1.2-.1-1.5l1.5-.2c2.2-.2 2.3-.9 2.3-5.2z"/><path d="m374.5 26.5c0-2.3 0-2.6-1.6-3.7l-.5-.4c-.2-.2-.2-.9.1-1.1 1.4-.5 4.8-2 6.2-2.9.3 0 .5.1.6.4-.1 2.1-.2 5-.2 7.5v10.7c0 4.3.1 4.9 2.3 5.2l1.3.2c.4.3.3 1.3-.1 1.5-1.8-.1-3.5-.2-5.7-.2s-4 .1-5.7.2c-.4-.2-.5-1.2-.1-1.5l1.3-.2c2.2-.3 2.3-.9 2.3-5.2v-10.5m4.8-15.2c0 2.2-1.5 3.1-3.2 3.1-1.9 0-3.1-1.4-3.1-3 0-2 1.4-3.2 3.2-3.2 1.9 0 3.1 1.4 3.1 3.1"/><path d="m393.4 22.6c-1 0-1.1.2-1.1 1.4v11.2c0 3.5.4 6.7 4.4 6.7.6 0 1.1-.1 1.6-.3s1.3-.8 1.5-.8c.5 0 .7.7.6 1-1.1 1.3-3.2 2.8-6.3 2.8-5.2 0-6.3-2.9-6.3-6.5v-13.8c0-1.6-.1-1.7-1.3-1.7h-1.7c-.4-.2-.4-.9-.2-1.3 1.7-.5 3.2-1.3 3.8-1.9.8-.7 1.9-2.3 2.5-3.5.3-.1 1-.1 1.3.3v2.7c0 1.1.1 1.1 1.1 1.1h6.7c.7.5.6 2.2.1 2.5h-6.7"/><path d="m407.4 28.4c-1.6 0-1.6.1-1.6 1.6 0 6.1 3.5 11.2 10 11.2 2 0 3.7-.6 5.5-2.9.6-.2 1 .2 1.1.7-2 4.1-6.3 5.6-9.4 5.6-3.9 0-7-1.7-8.7-4-1.8-2.3-2.5-5.2-2.5-7.8 0-7.4 4.9-13.6 12.1-13.6 5.2 0 8.5 3.5 8.5 7.2 0 .8-.1 1.3-.2 1.6-.2.4-1 .4-3.5.4zm3.7-1.8c4.5 0 5.8-.2 6.3-.6.2-.1.4-.4.4-1.1 0-1.7-1.1-3.8-4.6-3.8s-6.6 3.2-6.7 5.2c0 .1 0 .3.4.3z"/></g><path d="m60 114.1v-14.6h6.9c3.1 0 4.7 1.2 4.7 3.6 0 1.4-.7 2.4-2 3.1.9.2 1.5.7 2 1.3s.7 1.4.7 2.4c0 1.4-.5 2.5-1.5 3.2s-2.2 1.1-3.7 1.1h-7.1m3.2-12.2v3.4h3.3c.6 0 1.1-.1 1.4-.4.4-.3.5-.7.5-1.3 0-1.1-.7-1.7-2.2-1.7zm0 5.6v4h3.4c1.6 0 2.4-.6 2.4-1.9 0-1.4-.8-2.1-2.3-2.1z" fill="#008ebd"/><path d="m76.1 114.1v-14.6h7.9c1.3 0 2.3.4 3.1 1.2s1.2 1.7 1.2 2.9c0 1.8-.8 3-2.3 3.7 1.3.3 2 1.5 2.1 3.4v.6c0 .3 0 .6.1.8 0 .2 0 .4.1.7 0 .3.1.5.2.8.1.2.2.4.3.6h-3.2c-.1-.3-.2-.6-.3-1s-.1-.8-.1-1.4c0-.5-.1-.9-.1-1.1-.1-.8-.3-1.4-.7-1.7s-.9-.5-1.7-.5h-3.2v5.7h-3.4m3.2-12.2v4.1h3.5c1.5 0 2.2-.7 2.2-2.1s-.7-2-2.2-2z" fill="#008ebd"/><path d="m91 114.1 5.6-14.6h3.3l5.5 14.6h-3.4l-1.1-3.3h-5.5l-1.1 3.3zm7.1-11-1.9 5.4h3.8z" fill="#008ebd"/><path d="m108.2 99.5h3.2v14.6h-3.2z" fill="#008ebd"/><path d="m115.9 114.1v-14.6h3.2l6.1 9.8h.1v-9.8h3v14.6h-3.2l-6.1-9.8h-.1v9.8z" fill="#008ebd"/><path d="m138.5 114.1 5.6-14.6h3.3l5.5 14.6h-3.3l-1.1-3.3h-5.5l-1.1 3.3zm7.2-11-1.9 5.4h3.8z" fill="#008ebd"/><path d="m155.8 114.1v-14.6h3.2l6.1 9.8v-9.8h3.1v14.6h-3.3l-6.1-9.8v9.8z" fill="#008ebd"/><path d="m172.6 114.1v-14.6h6.3c2 0 3.6.6 4.8 1.9 1.2 1.2 1.8 3 1.8 5.4 0 2.2-.6 4-1.7 5.4s-2.8 2-4.9 2h-6.3m3.2-12v9.2h2.9c1 0 1.9-.4 2.6-1.1s1-1.8 1-3.3c0-1.6-.3-2.8-1-3.6-.6-.8-1.7-1.2-3.3-1.2z" fill="#008ebd"/><path d="m195.9 109.3h3.1c0 .9.3 1.6.9 2s1.4.7 2.3.7c.5 0 .9 0 1.3-.1s.8-.3 1.1-.6.5-.7.5-1.1c0-.2 0-.4-.1-.6s-.2-.3-.4-.5c-.2-.1-.4-.3-.5-.4-.2-.1-.4-.2-.7-.3s-.6-.2-.8-.2c-.2-.1-.5-.1-.9-.2s-.7-.2-.9-.2c-.6-.2-1.2-.3-1.6-.5s-.9-.4-1.4-.7-.8-.7-1-1.2-.3-1.1-.3-1.7c0-.9.3-1.8.8-2.5.6-.7 1.2-1.2 2-1.5s1.7-.5 2.6-.5c1.1 0 2 .1 2.9.5.8.3 1.6.8 2.1 1.5.6.7.9 1.6.9 2.7h-3.1c-.1-1.5-1-2.2-2.9-2.2-.6 0-1.1.1-1.5.4s-.7.7-.7 1.3c0 .5.2.9.7 1.1s1.7.6 3.7 1.1c1.3.3 2.3.7 2.9 1.2 1 .8 1.5 1.8 1.5 3.1 0 1.4-.5 2.5-1.6 3.4s-2.6 1.3-4.5 1.3c-1.8 0-3.2-.4-4.4-1.3-1.4-1-2-2.3-2-4" fill="#008ebd"/><path d="m211.8 114.1v-14.6h6.6c1.2 0 2.1.2 2.9.7s1.3 1 1.7 1.7c.3.7.5 1.4.5 2.3 0 .8-.2 1.6-.5 2.3s-.9 1.2-1.7 1.7-1.8.7-2.9.7h-3.4v5.2zm3.2-12.1v4.4h2.5c.9 0 1.6-.2 2.1-.5s.8-.9.8-1.7-.3-1.4-.8-1.7-1.2-.5-2.1-.5z" fill="#008ebd"/><path d="m227.1 99.5h3.2v14.6h-3.2z" fill="#008ebd"/><path d="m234.8 114.1v-14.6h3.2l6.1 9.8v-9.8h3v14.6h-3.2l-6.1-9.8v9.8z" fill="#008ebd"/><path d="m251.6 114.1v-14.6h10.9v2.7h-7.7v3.1h7.1v2.5h-7.1v3.6h7.9v2.7z" fill="#008ebd"/><path d="m286.7 104.4h-3.1c-.1-.7-.5-1.3-1.1-1.8s-1.3-.7-2.1-.7c-.9 0-1.7.2-2.3.7s-1 1.1-1.3 1.8-.4 1.5-.4 2.4c0 1.4.3 2.5 1 3.5.7.9 1.7 1.4 3 1.4 1 0 1.7-.3 2.3-.9s.9-1.4 1-2.4h3.1c-.2 1.8-.8 3.3-2 4.4s-2.6 1.6-4.4 1.6c-2.2 0-4-.7-5.2-2.2-1.3-1.4-1.9-3.3-1.9-5.4 0-2.2.6-4.1 1.9-5.5 1.3-1.5 3-2.2 5.3-2.2 1.7 0 3.1.5 4.3 1.4 1.1 1 1.7 2.3 1.9 3.9" fill="#008ebd"/><path d="m290.7 114.1v-14.6h10.9v2.7h-7.7v3.1h7.1v2.5h-7.1v3.6h7.9v2.7z" fill="#008ebd"/><path d="m305.6 114.1v-14.6h3.2l6.1 9.8h.1v-9.8h3v14.6h-3.2l-6.1-9.8h-.1v9.8z" fill="#008ebd"/><path d="m325.7 114.1v-11.9h-4.4v-2.7h12v2.7h-4.4v11.9z" fill="#008ebd"/><path d="m336.6 114.1v-14.6h11v2.7h-7.7v3.1h7v2.5h-7v3.6h7.8v2.7z" fill="#008ebd"/><path d="m351.6 114.1v-14.6h7.9c1.3 0 2.3.4 3.1 1.2s1.2 1.7 1.2 2.9c0 1.8-.8 3-2.3 3.7 1.3.3 2 1.5 2.1 3.4v.6c0 .3 0 .6.1.8 0 .2 0 .4.1.7 0 .3.1.5.2.8.1.2.2.4.3.6h-3.3c-.1-.3-.2-.6-.3-1s-.1-.8-.1-1.4c0-.5-.1-.9-.1-1.1-.1-.8-.3-1.4-.7-1.7s-.9-.5-1.7-.5h-3.2v5.7h-3.3m3.2-12.2v4.1h3.5c1.5 0 2.2-.7 2.2-2.1s-.7-2-2.2-2z" fill="#008ebd"/><path d="m174.4 148.7v-14.7h6.6c1.2 0 2.1.2 2.9.7s1.3 1 1.7 1.7c.3.7.5 1.4.5 2.3 0 .8-.2 1.6-.5 2.3s-.9 1.2-1.7 1.7-1.8.7-2.9.7h-3.4v5.2h-3.2m3.2-12.1v4.4h2.5c.9 0 1.6-.2 2.1-.5s.8-.9.8-1.7-.3-1.4-.8-1.7-1.2-.5-2.1-.5z" fill="#008ebd"/><path d="m189.7 148.7v-14.7h3.2v11.9h7.2v2.8z" fill="#008ebd"/><path d="m202 148.7 5.6-14.6h3.3l5.5 14.6h-3.3l-1.1-3.3h-5.5l-1.1 3.3zm7.1-11.1-1.9 5.4h3.8z" fill="#008ebd"/><path d="m219.2 148.7v-14.7h3.2l6.1 9.8h.1v-9.8h3v14.7h-3.2l-6.1-9.8h-.1v9.8z" fill="#008ebd"/><path d="m235.4 141.4c0-2.2.6-4.1 1.9-5.5 1.3-1.5 3-2.2 5.3-2.2 2.2 0 4 .7 5.3 2.2s1.9 3.3 1.9 5.5-.6 4-1.9 5.4-3 2.2-5.2 2.2-4-.7-5.2-2.2c-1.4-1.4-2.1-3.2-2.1-5.4m3.2 0c0 1.4.3 2.5 1 3.5s1.7 1.4 3 1.4 2.3-.5 3-1.4c.7-1 1-2.1 1-3.5 0-.9-.1-1.7-.4-2.5-.3-.7-.7-1.3-1.3-1.8s-1.4-.7-2.3-.7-1.7.2-2.3.7-1 1.1-1.3 1.8c-.2.8-.4 1.6-.4 2.5z" fill="#008ebd"/></svg>