<svg enable-background="new 0 0 74.7 17.5" viewBox="0 0 74.7 17.5" xmlns="http://www.w3.org/2000/svg"><g fill="#008fbe"><path d="m63.1 5.3h7v6.9z"/><path d="m11.7 6.6v1.1h-2.2v.9h2.2v1.1h-2.2v1.9h-1.2v-5z"/><path d="m13.8 6.6v5h-1.2v-5z"/><path d="m16 6.6 1.9 3v-3h1.1v5h-1.2l-2-3.1v3.1h-1.1v-5z"/><path d="m21.7 6.6c.4 0 .7.1 1.1.2.3.1.6.3.8.5s.4.5.5.8.2.6.2 1-.1.7-.2 1-.3.6-.5.8-.5.4-.8.5-.7.2-1 .2h-1.8v-5zm-.5 3.9h.5c.2 0 .4 0 .6-.1s.3-.2.5-.3c.1-.1.2-.3.2-.4.1-.2.1-.4.1-.5 0-.2 0-.4-.1-.5s-.2-.3-.3-.4-.3-.2-.5-.3-.4-.1-.6-.1h-.5v2.6z"/><path d="m28.3 11.5c-.3-.1-.6-.3-.8-.5s-.4-.5-.5-.8-.2-.6-.2-1 .1-.7.2-1 .3-.6.5-.8.5-.4.8-.6.6-.2 1-.2.7.1 1 .2.6.3.8.6.4.5.5.8.2.6.2 1-.1.7-.2 1-.3.6-.5.8-.5.4-.8.5-.6.2-1 .2c-.3 0-.7-.1-1-.2zm1.6-1.1c.2-.1.3-.2.4-.3s.2-.3.3-.4c.1-.2.1-.3.1-.5s0-.4-.1-.5c-.1-.2-.2-.3-.3-.4-.1-.3-.3-.4-.4-.5-.2-.1-.3-.1-.5-.1s-.4 0-.5.1c-.2.1-.3.2-.4.3s-.2.3-.3.4-.2.4-.2.6 0 .4.1.5c.1.2.2.3.3.4s.3.2.4.3c.2.1.3.1.5.1s.4.1.6 0z"/><path d="m33.8 11.6c-.2-.1-.5-.2-.6-.4-.2-.2-.3-.4-.4-.6-.1-.3-.1-.5-.1-.9v-3h1.2v3c0 .3.1.5.2.6s.3.2.6.2c.2 0 .4-.1.6-.2.2-.2.2-.4.2-.6v-3h1.2v3c0 .3 0 .6-.1.9s-.2.5-.4.6c-.2.2-.4.3-.6.4-.3.1-.5.1-.8.1-.5 0-.7 0-1-.1z"/><path d="m37.5 7.7v-1.1h3.9v1.1h-1.4v3.9h-1.2v-3.9z"/><path d="m44.9 6.6.8 3.1.9-3.1h1.1l.9 3.1.8-3.1h1.2l-1.4 5h-1.2l-.9-3.2-.9 3.2h-1.2l-1.4-5z"/><path d="m52.4 9.7v1.9h-1.2v-5h1.2v1.9h1.6v-1.9h1.2v5h-1.2v-1.9z"/><path d="m55.8 6.6h1.3l1 1.8.9-1.8h1.3l-1.6 2.9v2.1h-1.2v-2.1z"/></g></svg>