<?xml version="1.0" encoding="UTF-8"?>
<svg enable-background="new 0 0 74.7 17.5" version="1.1" viewBox="0 0 74.7 17.5" xml:space="preserve" xmlns="http://www.w3.org/2000/svg" xmlns:xlink="http://www.w3.org/1999/xlink">
<style type="text/css">
	.st0{display:none;}
	.st1{display:inline;}
	.st2{display:inline;clip-path:url(#a);fill:none;stroke:#008FBE;stroke-miterlimit:10;}
	.st3{fill:#008FBE;}
</style>
<g class="st0">
	<defs>
		<rect id="b" width="74.7" height="17.5"/>
	</defs>
	<clipPath id="a" class="st1">
		<use xlink:href="#b"/>
	</clipPath>
	<rect class="st2" x=".5" y=".5" width="73.7" height="16.5"/>
</g>
<polygon class="st3" points="63.1 5.3 70.1 5.3 70.1 12.2"/>

	<path class="st3" d="M11.7,6.6v1.1H9.5v0.9h2.2v1.1H9.5v1.9H8.3v-5H11.7z"/>
	<path class="st3" d="m13.8 6.6v5h-1.2v-5h1.2z"/>
	<path class="st3" d="M16,6.6l1.9,3v-3H19v5h-1.2l-2-3.1v3.1h-1.1v-5H16z"/>
	<path class="st3" d="m21.7 6.6c0.4 0 0.7 0.1 1.1 0.2 0.3 0.1 0.6 0.3 0.8 0.5s0.4 0.5 0.5 0.8 0.2 0.6 0.2 1-0.1 0.7-0.2 1-0.3 0.6-0.5 0.8-0.5 0.4-0.8 0.5-0.7 0.2-1 0.2h-1.8v-5h1.7zm-0.5 3.9h0.5c0.2 0 0.4 0 0.6-0.1s0.3-0.2 0.5-0.3c0.1-0.1 0.2-0.3 0.2-0.4 0.1-0.2 0.1-0.4 0.1-0.5 0-0.2 0-0.4-0.1-0.5s-0.2-0.3-0.3-0.4-0.3-0.2-0.5-0.3-0.4-0.1-0.6-0.1h-0.5v2.6z"/>
	<path class="st3" d="m28.3 11.5c-0.3-0.1-0.6-0.3-0.8-0.5s-0.4-0.5-0.5-0.8-0.2-0.6-0.2-1 0.1-0.7 0.2-1 0.3-0.6 0.5-0.8 0.5-0.4 0.8-0.6 0.6-0.2 1-0.2 0.7 0.1 1 0.2 0.6 0.3 0.8 0.6 0.4 0.5 0.5 0.8 0.2 0.6 0.2 1-0.1 0.7-0.2 1-0.3 0.6-0.5 0.8-0.5 0.4-0.8 0.5-0.6 0.2-1 0.2c-0.3 0-0.7-0.1-1-0.2zm1.6-1.1c0.2-0.1 0.3-0.2 0.4-0.3s0.2-0.3 0.3-0.4c0.1-0.2 0.1-0.3 0.1-0.5s0-0.4-0.1-0.5c-0.1-0.2-0.2-0.3-0.3-0.4-0.1-0.3-0.3-0.4-0.4-0.5-0.2-0.1-0.3-0.1-0.5-0.1s-0.4 0-0.5 0.1c-0.2 0.1-0.3 0.2-0.4 0.3s-0.2 0.3-0.3 0.4-0.2 0.4-0.2 0.6 0 0.4 0.1 0.5c0.1 0.2 0.2 0.3 0.3 0.4s0.3 0.2 0.4 0.3c0.2 0.1 0.3 0.1 0.5 0.1s0.4 0.1 0.6 0z"/>
	<path class="st3" d="m33.8 11.6c-0.2-0.1-0.5-0.2-0.6-0.4-0.2-0.2-0.3-0.4-0.4-0.6-0.1-0.3-0.1-0.5-0.1-0.9v-3h1.2v3c0 0.3 0.1 0.5 0.2 0.6s0.3 0.2 0.6 0.2c0.2 0 0.4-0.1 0.6-0.2 0.2-0.2 0.2-0.4 0.2-0.6v-3h1.2v3c0 0.3 0 0.6-0.1 0.9s-0.2 0.5-0.4 0.6c-0.2 0.2-0.4 0.3-0.6 0.4-0.3 0.1-0.5 0.1-0.8 0.1-0.5 0-0.7 0-1-0.1z"/>
	<path class="st3" d="M37.5,7.7V6.6h3.9v1.1H40v3.9h-1.2V7.7H37.5z"/>
	<path class="st3" d="m44.9 6.6 0.8 3.1 0.9-3.1h1.1l0.9 3.1 0.8-3.1h1.2l-1.4 5h-1.2l-0.9-3.2-0.9 3.2h-1.2l-1.4-5h1.3z"/>
	<path class="st3" d="M52.4,9.7v1.9h-1.2v-5h1.2v1.9h1.6V6.6h1.2v5h-1.2V9.7H52.4z"/>
	<path class="st3" d="M55.8,6.6h1.3l1,1.8L59,6.6h1.3l-1.6,2.9v2.1h-1.2V9.5L55.8,6.6z"/>

</svg>
