<?xml version="1.0" encoding="UTF-8"?>
<svg enable-background="new 0 0 423 115" version="1.1" viewBox="0 0 423 115" xml:space="preserve" xmlns="http://www.w3.org/2000/svg">
<style type="text/css">
	.st0{fill:#1B449C;}
	.st1{fill:#008FBE;}
</style>
	<path class="st0" d="m5.2 11.7c0-4.5-0.2-5.6-2.9-5.8l-2-0.2c-0.5-0.4-0.4-1.3 0.1-1.5 3.2-0.3 7.3-0.5 12.9-0.5 3.8 0 7.4 0.3 10.1 1.7 2.6 1.2 4.6 3.6 4.6 7.5 0 4.3-2.5 6.6-6.1 8.2 0 0.6 0.5 0.8 1.1 0.9 3.2 0.6 8.1 3.6 8.1 10 0 7-5.2 11.7-16 11.7-1.7 0-4.7-0.2-7.2-0.2-2.6 0-4.7 0.1-6.9 0.2-0.4-0.2-0.5-1.1-0.1-1.5l1.1-0.2c3.2-0.5 3.3-1.2 3.3-7.5v-22.8m4.8 8c0 1.7 0.1 1.8 3.1 1.7 6.1-0.2 9.4-2 9.4-7.7 0-5.9-4.4-8.1-9-8.1-1.3 0-2.2 0.1-2.8 0.4-0.6 0.2-0.8 0.5-0.8 1.6v12.1zm0 13.9c0 2.2 0.1 5.2 1.3 6.6 1.1 1.4 2.9 1.7 4.7 1.7 5.4 0 9.4-2.4 9.4-8.4 0-4.8-2.4-10.3-12-10.3-3.2 0-3.5 0.4-3.5 1.6v8.8z"/>
<path class="st0" d="m47.1 31.1c0.9-0.3 1-0.8 1-1.7l0.1-2.8c0.1-2.2-0.7-5.2-4.4-5.2-1.7 0-3.7 0.8-3.8 2.7-0.1 1-0.1 1.7-0.6 2-0.9 0.7-2.5 1.1-3.4 1.1-0.5 0-0.8-0.3-0.8-0.8 0-3.1 6.8-7.4 11.2-7.4 4.3 0 6.4 2.5 6.3 7l-0.4 10.5c-0.1 2.8 0.4 5.2 2.8 5.2 0.6 0 1.1-0.2 1.5-0.4 0.3-0.2 0.6-0.4 0.8-0.4s0.4 0.4 0.4 0.8c0 0.3-2.1 2.6-5 2.6-1.4 0-2.9-0.5-3.9-1.9-0.2-0.4-0.6-0.8-1-0.8s-1.1 0.5-2.3 1.2c-1.3 0.7-2.6 1.5-4.3 1.5s-3.2-0.5-4.2-1.4c-1.1-1-1.9-2.5-1.9-4.2 0-2.3 1.1-3.7 5-5.1l6.9-2.5m-3.7 10.6c1.2 0 3.1-0.9 3.7-1.5 0.7-0.7 0.7-1.6 0.8-2.8l0.1-3.5c0-0.7-0.2-0.8-0.6-0.8s-1.4 0.2-2.5 0.6c-3.5 1.2-5.3 2.1-5.3 4.4 0 1 0.7 3.6 3.8 3.6"/>
<path class="st0" d="m57.6 54.8c0-1.6 1.1-2.4 2.4-2.4h1.1c1 0 1.6-0.4 2-1.1 1.7-2.7 2.4-4.1 2.9-5.5 0.2-0.5 0.6-1.7 0.6-2.6 0-1.2-0.2-1.9-1-4.1l-4.6-12.9c-1-2.8-1.4-4.3-3.5-4.7l-1.5-0.3c-0.4-0.3-0.3-1.3 0.2-1.5 1.9 0.1 3.7 0.2 5.7 0.2 1.6 0 3.3-0.1 5.2-0.2 0.5 0.2 0.5 1.2 0.1 1.5l-1.5 0.3c-0.8 0.2-1.3 0.4-1.3 0.8 0 0.7 1.4 4.6 1.7 5.7l1.9 5.5c0.4 1 1.5 4.1 1.7 4.3 0.2-0.1 1.1-2 2.2-4.4l2-4.8c1.3-3.1 2.1-5.4 2.1-6 0-0.4-0.4-0.8-1.4-1l-1.9-0.3c-0.4-0.3-0.4-1.3 0.1-1.5 1.9 0.1 3.7 0.2 5.3 0.2 1.5 0 2.9-0.1 4.6-0.2 0.5 0.2 0.5 1.1 0.1 1.5l-1 0.2c-2 0.4-3.1 2.1-5.1 6.4l-3.4 6.9c-2 4-6.4 13.3-9.3 19.9-1 2.3-2.5 2.8-3.8 2.8-1.7-0.1-2.6-1.2-2.6-2.7"/>
<path class="st0" d="m89 36.8c0 4.3 0.1 4.9 2.3 5.2l1.4 0.2c0.4 0.3 0.3 1.3-0.1 1.5-2-0.1-3.7-0.2-5.8-0.2-2.2 0-4 0.1-5.8 0.2-0.4-0.2-0.5-1.2-0.1-1.5l1.4-0.2c2.2-0.3 2.3-0.9 2.3-5.2v-27.1c0-3.5-0.1-3.9-1.9-5l-0.6-0.4c-0.3-0.2-0.3-1 0-1.2 1.5-0.5 4.3-1.4 6.5-2.5 0.2 0 0.5 0.1 0.6 0.4 0 1.7-0.2 4.7-0.2 7.4v28.4"/>
<path class="st0" d="m119.8 31.5c0 7.5-5.2 12.9-12.7 12.9-6.9 0-12.3-4.9-12.3-12.4 0-7.6 5.7-13 12.8-13 6.7 0 12.2 5.1 12.2 12.5m-13-10.7c-4 0-6.9 3.8-6.9 10.4 0 5.5 2.5 11.4 7.8 11.4s6.9-5.5 6.9-10.2c0-5.1-2-11.6-7.8-11.6"/>
<path class="st0" d="m126.3 26.3c0-2.3 0-2.6-1.6-3.7l-0.5-0.4c-0.2-0.2-0.2-0.9 0.1-1.1 1.4-0.5 4.6-2 6.1-2.9 0.3 0.1 0.5 0.2 0.5 0.4v3.5c0 0.3 0.1 0.5 0.2 0.5 2.1-1.7 4.4-3.6 6.6-3.6 1.5 0 2.7 1 2.7 2.4 0 2-1.6 2.8-2.6 2.8-0.6 0-0.9-0.2-1.3-0.4-0.9-0.6-1.8-1-2.6-1-1 0-1.7 0.5-2.2 1.2-0.6 0.8-0.8 2.6-0.8 4.6v8.2c0 4.3 0.1 5 2.4 5.2l2.2 0.2c0.4 0.3 0.3 1.3-0.1 1.5-2.8-0.1-4.6-0.2-6.7-0.2-2.2 0-4 0.1-5.5 0.2-0.4-0.2-0.5-1.2-0.1-1.5l1.1-0.2c2.2-0.4 2.3-0.9 2.3-5.2v-10.5"/>
<path class="st0" d="m152.7 44.5c-5.1 0-8.2-1.6-9.4-2.2-0.7-1.3-1.5-5.6-1.6-8.4 0.3-0.4 1.2-0.5 1.4-0.2 0.9 3.1 3.4 9 10.3 9 5.1 0 7.5-3.3 7.5-6.9 0-2.6-0.5-5.6-4.9-8.4l-5.7-3.7c-3-2-6.5-5.4-6.5-10.3 0-5.7 4.4-10.3 12.3-10.3 1.9 0 4 0.4 5.6 0.8 0.8 0.2 1.6 0.4 2.1 0.4 0.5 1.4 1.1 4.8 1.1 7.3-0.2 0.4-1.2 0.5-1.5 0.2-0.8-2.9-2.4-6.8-8.2-6.8-5.9 0-7.2 3.9-7.2 6.7 0 3.5 2.9 6 5.1 7.4l4.8 3c3.8 2.3 7.5 5.8 7.5 11.5 0.1 6.4-4.9 10.9-12.7 10.9"/>
<path class="st0" d="m189.2 20.1c0.5 0.4 0.9 1.4 0.9 2.4 0 1.1-0.6 2.2-1.3 2.2-0.3 0-0.6-0.1-0.8-0.4-1.3-1.6-3.5-3.2-6-3.2-4.2 0-8.3 3.3-8.3 9.7 0 4.7 3.2 10.3 9.7 10.3 3.5 0 5.3-1.6 6.7-3.6 0.5-0.1 1 0.3 1.1 0.8-2 4.5-6.6 6.1-10 6.1-3.2 0-6.1-1-8.2-3.1-2.1-2-3.5-5-3.5-8.9 0-6.5 4.6-13.4 14.6-13.4 1.1 0 3.5 0.3 5.1 1.1"/>
<path class="st0" d="m216.8 31.5c0 7.5-5.2 12.9-12.7 12.9-6.9 0-12.3-4.9-12.3-12.4 0-7.6 5.7-13 12.8-13 6.7 0 12.2 5.1 12.2 12.5m-12.9-10.7c-4 0-6.9 3.8-6.9 10.4 0 5.5 2.5 11.4 7.8 11.4s6.9-5.5 6.9-10.2c-0.1-5.1-2.1-11.6-7.8-11.6"/>
<path class="st0" d="m228.2 22.4c-1 0-1.1 0.2-1.1 1.4v11.2c0 3.5 0.4 6.7 4.4 6.7 0.6 0 1.1-0.1 1.6-0.3s1.3-0.8 1.5-0.8c0.5 0 0.7 0.7 0.6 1-1.1 1.3-3.2 2.8-6.3 2.8-5.2 0-6.3-2.9-6.3-6.5v-13.8c0-1.6-0.1-1.7-1.3-1.7h-1.7c-0.4-0.2-0.4-0.9-0.2-1.3 1.7-0.5 3.2-1.3 3.9-1.9 0.8-0.7 1.9-2.3 2.5-3.5 0.3-0.1 1-0.1 1.3 0.3v2.7c0 1.1 0.1 1.1 1.1 1.1h6.7c0.7 0.5 0.6 2.2 0.1 2.5h-6.8"/>
<path class="st0" d="m246.4 22.4c-1 0-1.1 0.2-1.1 1.4v11.2c0 3.5 0.4 6.7 4.4 6.7 0.6 0 1.1-0.1 1.6-0.3s1.3-0.8 1.5-0.8c0.5 0 0.7 0.7 0.6 1-1.1 1.3-3.2 2.8-6.3 2.8-5.2 0-6.3-2.9-6.3-6.5v-13.8c0-1.6-0.1-1.7-1.3-1.7h-1.7c-0.4-0.2-0.4-0.9-0.2-1.3 1.7-0.5 3.2-1.3 3.9-1.9 0.8-0.7 1.9-2.3 2.5-3.5 0.3-0.1 1-0.1 1.3 0.3v2.7c0 1.1 0.1 1.1 1.1 1.1h6.7c0.7 0.5 0.6 2.2 0.1 2.5h-6.8"/>
<path class="st0" d="m263.4 18.5c0-4.2 3.3-7.4 7.5-7.4 2.8 0 5.6 1.7 5.6 4.5 0 3-3 4.2-4.1 4.2-0.2 0-1.2 0-0.5-1 0.1-0.2 1-1.1 0.5-2.7-0.4-1.2-1.5-2.2-3.3-2.3-2.2-0.2-3.9 1.3-3.9 3.2 0 2 1.2 3.3 5.3 5.5 5.3 2.9 9.9 5.3 13.8 13.4 1.4-1.7 2-3.5 2-5.7 0-1.5-0.3-2.7-1.3-4.1-0.7-0.9-1.6-1.1-2.2-1.2s-1.7-0.2-3 0.9c-0.2 0.2-0.4 0.3-0.8 0.2s-0.5-0.7-0.4-1.4c0.3-2 2.4-3.6 5.3-3.6 0.8 0 2 0.2 3 0.4 1.2 0.2 1.9 0.3 2.3 0.3 0.7 0 1.1-0.1 1.4-0.6 0 0 0.2-0.3 0.4-0.3 0.5 0 0.7 0.4 0.7 0.4 0 2.2-1.3 3.5-4.2 4.3 0.7 1.4 0.9 2.4 0.9 3.9 0 2.9-1 5.3-3.3 7.8 1.8 3.3 3.5 4.6 6.5 4.6 0.6 0 1.1-0.1 1.6-0.2 0.6-0.2 0.8-0.2 1-0.2 0.3 0 0.4 0.1 0.4 0.4 0 1.1-2.5 2-5.8 2-3.1 0-4.7-0.7-7.3-3-4 2.3-6.5 3.1-10 3.1-7.3 0-12.9-4.7-12.9-10.8 0-6.4 4.8-8.7 6.9-9.6-1.5-1.7-2.1-3.1-2.1-5m3.7 6.4c-2.4 0.5-3.5 2-3.5 4.9 0 6.2 5.2 11.6 11 11.6 2.1 0 3.5-0.4 6.1-1.7-1-1.2-1.5-1.7-2.6-3.4l-1.3-1.9c-3.3-4.8-6-6.8-8.3-8.6l-1.4-0.9z"/>
<path class="st0" d="m286.4 5.1c-0.4-0.4-0.3-1.2 0.2-1.4 1.6 0.1 4.3 0.2 6.2 0.2 1.7 0 4.7-0.1 6.9-0.2 0.5 0.2 0.5 1 0.1 1.4l-1.4 0.1c-1.3 0.1-2 0.5-2 1 0 0.7 1.3 3.8 3.1 8.1 3.4 7.5 6.9 15 10.4 22.4 1.4-3 3.1-6.4 4.6-9.7 0.5-1.1 1-2.2 1-2.5s-0.2-0.8-0.5-1.6c-2.1-4.8-4.3-9.6-6.6-14.4-0.9-1.9-1.8-3.1-3.8-3.3l-1.4-0.1c-0.4-0.5-0.4-1.2 0.1-1.4 1.7 0.1 4 0.2 6.4 0.2 3 0 5.2-0.1 6.6-0.2 0.4 0.2 0.5 1 0.1 1.4l-1.6 0.1c-2.3 0.2-2.4 0.6-1.3 3.3 1.3 2.9 2.9 6.7 4.6 10.5 1.1-2.3 2.2-4.6 3.5-7.9 2.2-5.1 1.9-5.8-0.1-5.9l-1.8-0.1c-0.4-0.6-0.3-1.3 0.1-1.4 1.6 0.1 3.4 0.2 5.7 0.2 2 0 4.4-0.1 5.8-0.2 0.4 0.2 0.5 1 0.1 1.4l-1.7 0.1c-2.5 0.2-3.6 2.9-4.9 5.4-1.3 2.2-3.8 7.5-4.7 9.6-0.3 0.6-0.5 1.2-0.5 1.4s0.1 0.7 0.4 1.4c2 4.6 4.1 9.1 6.1 13.7 1.9-4.2 3.7-8.4 5.4-12.7 1.2-2.9 4.4-10.9 4.8-12 0.8-2.2 1.8-4.7 1.8-5.5s-0.7-1.3-2-1.4l-1.7-0.1c-0.5-0.5-0.4-1.2 0.1-1.4 2.3 0.1 3.9 0.2 5.8 0.2 2.3 0 4-0.1 5.6-0.2 0.5 0.2 0.5 1 0.1 1.4l-1.1 0.1c-3 0.3-3.5 2.1-7.2 10.5l-4.4 10.2c-2.6 6.1-5.1 12-7.5 18.5-0.2 0.1-0.4 0.2-0.7 0.2s-0.6-0.1-0.8-0.2c-1.9-5.4-5.4-12.9-7.3-17.1-2.2 4.4-5.8 12.1-7.5 17.1-0.2 0.1-0.4 0.2-0.7 0.2s-0.6-0.1-0.9-0.2c-1-2.5-3.4-7.9-4.1-9.7-3.9-8.4-7.6-16.7-11.5-25.1-1.1-2.5-1.9-4.1-4.4-4.3l-1.5-0.1"/>
<path class="st0" d="m344.5 9.7c0-3.8-0.3-4.3-1.1-4l-1.4-1.4c-0.3-0.2-2.3-0.4-1.5-0.4 4.8 0 5.9-2.1 8-3.3 0.2-0.1 0.6 0 0.6 0.4-0.1 1.8-0.2 4.8-0.2 7.5v12.5c0 0.5 0.1 1 0.2 1.1 2.2-1.7 5.1-3.1 8.1-3.1 5.7 0 7.8 3.5 7.8 7.8v10c0 4.3 0.1 5 2.3 5.2l1.6 0.2c0.4 0.3 0.3 1.3-0.1 1.5-2.2-0.1-3.9-0.2-6-0.2-2.2 0-4 0.1-5.6 0.2-0.4-0.2-0.5-1.2-0.1-1.5l1.2-0.2c2.2-0.4 2.3-0.9 2.3-5.2v-8.6c0-3.8-1.9-6.4-5.7-6.4-2 0-3.6 0.7-4.7 1.6s-1.3 1.2-1.3 3.3v10.1c0 4.3 0.1 4.9 2.3 5.2l1.3 0.2c0.4 0.2 0.3 1.3-0.1 1.5-1.8-0.1-3.6-0.2-5.7-0.2-2.2 0-4 0.1-5.9 0.2-0.4-0.2-0.5-1.2-0.1-1.5l1.5-0.2c2.2-0.2 2.3-0.9 2.3-5.2v-27.1"/>
<path class="st0" d="m374.5 26.3c0-2.3 0-2.6-1.6-3.7l-0.5-0.4c-0.2-0.2-0.2-0.9 0.1-1.1 1.4-0.5 4.8-2 6.2-2.9 0.3 0 0.5 0.1 0.6 0.4-0.1 2.1-0.2 5-0.2 7.5v10.8c0 4.3 0.1 4.9 2.3 5.2l1.3 0.2c0.4 0.3 0.3 1.3-0.1 1.5-1.8-0.1-3.5-0.2-5.7-0.2s-4 0.1-5.7 0.2c-0.4-0.2-0.5-1.2-0.1-1.5l1.3-0.2c2.2-0.3 2.3-0.9 2.3-5.2v-10.6m4.8-15.2c0 2.2-1.5 3.1-3.2 3.1-1.9 0-3.1-1.4-3.1-3 0-2 1.4-3.2 3.2-3.2 1.9 0 3.1 1.4 3.1 3.1"/>
<path class="st0" d="m393.4 22.4c-1 0-1.1 0.2-1.1 1.4v11.2c0 3.5 0.4 6.7 4.4 6.7 0.6 0 1.1-0.1 1.6-0.3s1.3-0.8 1.5-0.8c0.5 0 0.7 0.7 0.6 1-1.1 1.3-3.2 2.8-6.3 2.8-5.2 0-6.3-2.9-6.3-6.5v-13.8c0-1.6-0.1-1.7-1.3-1.7h-1.7c-0.4-0.2-0.4-0.9-0.2-1.3 1.7-0.5 3.2-1.3 3.8-1.9 0.8-0.7 1.9-2.3 2.5-3.5 0.3-0.1 1-0.1 1.3 0.3v2.7c0 1.1 0.1 1.1 1.1 1.1h6.7c0.7 0.5 0.6 2.2 0.1 2.5h-6.7"/>
<path class="st0" d="m407.4 28.2c-1.6 0-1.6 0.1-1.6 1.6 0 6.1 3.5 11.2 10 11.2 2 0 3.7-0.6 5.5-2.9 0.6-0.2 1 0.2 1.1 0.7-2 4.1-6.3 5.6-9.4 5.6-3.9 0-7-1.7-8.7-4-1.8-2.3-2.5-5.2-2.5-7.8 0-7.4 4.9-13.6 12.1-13.6 5.2 0 8.5 3.5 8.5 7.2 0 0.8-0.1 1.3-0.2 1.6-0.2 0.4-1 0.4-3.5 0.4h-11.3m3.7-1.8c4.5 0 5.8-0.2 6.3-0.6 0.2-0.1 0.4-0.4 0.4-1.1 0-1.7-1.1-3.8-4.6-3.8s-6.6 3.2-6.7 5.2c0 0.1 0 0.3 0.4 0.3h4.2z"/>
<polyline class="st0" points="105.5 79.2 105.5 64 110.2 64 113.8 74.4 113.8 74.4 117.2 64 121.9 64 121.9 79.2 118.7 79.2 118.7 68.4 118.7 68.4 115 79.2 112.4 79.2 108.7 68.5 108.7 68.5 108.7 79.2 105.5 79.2"/>
<polyline class="st0" points="126.9 79.2 126.9 64 138.3 64 138.3 66.8 130.3 66.8 130.3 70 137.6 70 137.6 72.6 130.3 72.6 130.3 76.3 138.4 76.3 138.4 79.2 126.9 79.2"/>
<path class="st0" d="m142.8 79.2v-15.2h6.5c2.1 0 3.7 0.6 5 1.9s1.9 3.1 1.9 5.6c0 2.3-0.6 4.1-1.8 5.6-1.2 1.4-2.9 2.1-5.1 2.1h-6.5m3.4-12.4v9.6h3c1.1 0 2-0.4 2.7-1.1s1.1-1.9 1.1-3.4c0-1.6-0.3-2.9-1-3.7s-1.8-1.3-3.4-1.3h-2.4z"/>
<rect class="st0" x="160.7" y="64" width="3.3" height="15.2"/>
<path class="st0" d="m182.4 69.1h-3.2c-0.1-0.8-0.5-1.4-1.1-1.9s-1.4-0.8-2.2-0.8c-0.9 0-1.7 0.3-2.4 0.8-0.6 0.5-1.1 1.1-1.3 1.9-0.3 0.8-0.4 1.6-0.4 2.5 0 1.4 0.3 2.6 1 3.6s1.7 1.5 3.1 1.5c1 0 1.8-0.3 2.4-0.9s0.9-1.4 1.1-2.5h3.2c-0.2 1.9-0.9 3.4-2.1 4.5s-2.7 1.7-4.6 1.7c-2.3 0-4.1-0.7-5.4-2.2s-2-3.4-2-5.6c0-2.3 0.7-4.2 2-5.7s3.2-2.3 5.4-2.3c1.7 0 3.2 0.5 4.4 1.5 1.2 0.8 1.9 2.2 2.1 3.9"/>
<path class="st0" d="m185.3 79.2l5.8-15.2h3.4l5.7 15.2h-3.5l-1.1-3.4h-5.7l-1.2 3.4h-3.4m7.5-11.5l-2 5.6h3.9l-1.9-5.6z"/>
<polyline class="st0" points="203.6 79.2 203.6 64 207 64 207 76.3 214.4 76.3 214.4 79.2 203.6 79.2"/>
<path class="st0" d="m239.7 69.1h-3.2c-0.1-0.8-0.5-1.4-1.1-1.9s-1.4-0.8-2.2-0.8c-0.9 0-1.7 0.3-2.4 0.8-0.6 0.5-1.1 1.1-1.4 1.9s-0.4 1.6-0.4 2.5c0 1.4 0.3 2.6 1 3.6s1.7 1.5 3.1 1.5c1 0 1.8-0.3 2.4-0.9s0.9-1.4 1.1-2.5h3.2c-0.2 1.9-0.9 3.4-2.1 4.5s-2.7 1.7-4.6 1.7c-2.3 0-4.1-0.7-5.4-2.2s-2-3.4-2-5.6c0-2.3 0.7-4.2 2-5.7s3.2-2.3 5.4-2.3c1.7 0 3.2 0.5 4.4 1.5 1.3 0.8 2 2.2 2.2 3.9"/>
<polyline class="st0" points="244.3 79.2 244.3 64 255.6 64 255.6 66.8 247.6 66.8 247.6 70 255 70 255 72.6 247.6 72.6 247.6 76.3 255.8 76.3 255.8 79.2 244.3 79.2"/>
<polyline class="st0" points="260.2 79.2 260.2 64 263.5 64 269.8 74.2 269.9 74.2 269.9 64 273 64 273 79.2 269.6 79.2 263.3 69 263.3 69 263.3 79.2 260.2 79.2"/>
<polyline class="st0" points="281.4 79.2 281.4 66.8 276.8 66.8 276.8 64 289.3 64 289.3 66.8 284.7 66.8 284.7 79.2 281.4 79.2"/>
<polyline class="st0" points="293.1 79.2 293.1 64 304.5 64 304.5 66.8 296.5 66.8 296.5 70 303.8 70 303.8 72.6 296.5 72.6 296.5 76.3 304.7 76.3 304.7 79.2 293.1 79.2"/>
<path class="st0" d="m309 79.2v-15.2h8.2c1.3 0 2.4 0.4 3.2 1.2s1.2 1.8 1.2 3c0 1.9-0.8 3.2-2.4 3.8 1.3 0.3 2.1 1.5 2.2 3.5v0.6c0 0.3 0 0.6 0.1 0.8 0 0.2 0 0.5 0.1 0.8 0 0.3 0.1 0.6 0.2 0.8l0.3 0.6h-3.3c-0.1-0.3-0.2-0.6-0.3-1s-0.1-0.9-0.1-1.4-0.1-0.9-0.1-1.2c-0.1-0.8-0.4-1.4-0.7-1.8-0.4-0.4-1-0.5-1.8-0.5h-3.3v5.9h-3.5m3.4-12.5v4.3h3.7c1.5 0 2.3-0.7 2.3-2.2 0-1.4-0.8-2.1-2.3-2.1h-3.7z"/>
<polyline class="st1" points="153.6 114.6 153.6 99.7 158.2 99.7 161.7 110 161.8 110 165.1 99.7 169.7 99.7 169.7 114.6 166.6 114.6 166.6 104.1 166.6 104.1 162.9 114.6 160.4 114.6 156.7 104.2 156.7 104.2 156.7 114.6 153.6 114.6"/>
<path class="st1" d="m187.4 104.7h-3.2c-0.1-0.7-0.5-1.4-1.1-1.9s-1.4-0.8-2.2-0.8c-0.9 0-1.7 0.2-2.3 0.8-0.6 0.5-1.1 1.1-1.3 1.9-0.3 0.7-0.4 1.6-0.4 2.5 0 1.4 0.3 2.6 1 3.5 0.7 1 1.7 1.5 3.1 1.5 1 0 1.8-0.3 2.3-0.9 0.6-0.6 0.9-1.4 1.1-2.4h3.2c-0.2 1.9-0.8 3.3-2 4.4s-2.7 1.7-4.5 1.7c-2.2 0-4-0.7-5.4-2.2-1.3-1.5-2-3.3-2-5.5 0-2.3 0.7-4.2 2-5.7s3.1-2.2 5.4-2.2c1.7 0 3.2 0.5 4.3 1.4 1.1 1 1.8 2.3 2 3.9"/>
<polyline class="st1" points="191.4 114.6 191.4 99.7 194.7 99.7 194.7 105.9 200.5 99.7 204.6 99.7 198.8 105.6 205.2 114.6 201.1 114.6 196.6 107.9 194.7 109.8 194.7 114.6 191.4 114.6"/>
<rect class="st1" x="208.2" y="99.7" width="3.3" height="14.9"/>
<polyline class="st1" points="216 114.6 216 99.7 219.3 99.7 225.5 109.7 225.5 109.7 225.5 99.7 228.6 99.7 228.6 114.6 225.3 114.6 219.1 104.7 219.1 104.7 219.1 114.6 216 114.6"/>
<polyline class="st1" points="233.2 114.6 233.2 99.7 236.4 99.7 242.7 109.7 242.7 109.7 242.7 99.7 245.8 99.7 245.8 114.6 242.5 114.6 236.3 104.7 236.2 104.7 236.2 114.6 233.2 114.6"/>
<polyline class="st1" points="250.3 114.6 250.3 99.7 261.5 99.7 261.5 102.5 253.6 102.5 253.6 105.7 260.8 105.7 260.8 108.2 253.6 108.2 253.6 111.9 261.7 111.9 261.7 114.6 250.3 114.6"/>
<polyline class="st1" points="269.4 114.6 269.4 108.8 263.9 99.7 267.6 99.7 271.1 105.6 274.6 99.7 278.2 99.7 272.7 108.9 272.7 114.6 269.4 114.6"/>
</svg>
